<svg width="24" height="24" viewBox="0 0 24 24" fill="none" xmlns="http://www.w3.org/2000/svg">
<path d="M5.65698 15.501L10.312 8.47998" stroke="#BB6BD9" stroke-width="2" stroke-miterlimit="10" stroke-linecap="square"/>
<path d="M18.343 15.501L13.688 8.47998" stroke="#BB6BD9" stroke-width="2" stroke-miterlimit="10" stroke-linecap="square"/>
<path d="M17 18H7" stroke="#BB6BD9" stroke-width="2" stroke-miterlimit="10" stroke-linecap="square"/>
<path d="M4 21C5.65685 21 7 19.6569 7 18C7 16.3431 5.65685 15 4 15C2.34315 15 1 16.3431 1 18C1 19.6569 2.34315 21 4 21Z" stroke="#BB6BD9" stroke-width="2" stroke-miterlimit="10" stroke-linecap="square"/>
<path d="M20 21C21.6569 21 23 19.6569 23 18C23 16.3431 21.6569 15 20 15C18.3431 15 17 16.3431 17 18C17 19.6569 18.3431 21 20 21Z" stroke="#BB6BD9" stroke-width="2" stroke-miterlimit="10" stroke-linecap="square"/>
<path d="M12 9C13.6569 9 15 7.65685 15 6C15 4.34315 13.6569 3 12 3C10.3431 3 9 4.34315 9 6C9 7.65685 10.3431 9 12 9Z" stroke="#BB6BD9" stroke-width="2" stroke-miterlimit="10" stroke-linecap="square"/>
</svg>
