<svg width="253" height="71" viewBox="0 0 253 71" fill="none" xmlns="http://www.w3.org/2000/svg">
<path d="M7.97966 55.8552C12.2631 51.3694 16.7371 44.7481 16.7371 36.6481C16.7371 29.9917 17.4718 20.2031 18.5548 11.8431C19.1397 7.32817 22.9793 4.02238 27.5442 3.85999L43.1366 3.30531L66.7309 4.14465C67.9821 4.2368 71.7329 4.18134 77.3241 4.03153C82.9311 3.8813 90.4076 3.63548 99.1159 3.3446C100.262 3.30634 101.428 3.26729 102.615 3.22758C119.472 2.66354 140.34 1.96531 161.066 1.46219C183.253 0.923637 205.274 0.608756 222.039 0.921163C230.423 1.07738 237.486 1.39038 242.597 1.90982C245.154 2.16965 247.214 2.48035 248.703 2.84647C249.448 3.02965 250.042 3.22467 250.481 3.42992C250.927 3.63884 251.178 3.84248 251.285 4.02271C251.344 4.12267 251.409 4.30327 251.472 4.57833C251.534 4.84806 251.59 5.18971 251.64 5.59808C251.739 6.41452 251.812 7.48145 251.863 8.74105C251.964 11.2594 251.974 14.5306 251.927 18.0724C251.834 25.1546 251.516 33.3055 251.25 38.6505C251.25 38.6509 251.25 38.6512 251.25 38.6515L250.61 49.2313C250.319 54.0373 246.614 57.8712 241.818 58.174C228.367 59.0233 203.677 60.2998 177.997 61.6274C140.072 63.588 99.9881 65.6603 90.7608 66.6331C85.0644 67.2337 79.6272 67.1611 74.1867 66.974C73.0999 66.9366 72.0127 66.8946 70.9233 66.8525C66.563 66.6842 62.1664 66.5145 57.6135 66.6318C55.7539 66.6798 53.4953 67.0195 51.0271 67.4682C49.8425 67.6836 48.6064 67.9247 47.3403 68.1717L47.1771 68.2036C45.8534 68.4618 44.4975 68.7255 43.1304 68.973C37.6512 69.9648 32.0368 70.6854 27.6759 69.7519C25.6839 69.3255 23.5565 68.5814 21.3825 67.8211C20.9639 67.6747 20.5435 67.5276 20.1221 67.3822C17.5236 66.4852 14.8873 65.6487 12.4158 65.4156C11.4678 65.3262 10.5051 65.2097 9.55661 65.0699C8.20698 64.8712 7.21525 64.4341 6.53813 63.8478C5.86422 63.2642 5.48864 62.5217 5.38515 61.6803C5.17654 59.9842 6.07446 57.8503 7.97966 55.8552Z" fill="white" stroke="#E9E9ED" stroke-width="0.5"/>
<path d="M41.4307 35.7686H40.2344V31.168H36.1533V35.7686H34.9639V25.8154H36.1533V30.0947H40.2344V25.8154H41.4307V35.7686ZM42.9622 32.002C42.9622 31.4688 43.0397 30.9743 43.1946 30.5186C43.3496 30.0583 43.5706 29.6595 43.8577 29.3223C44.1494 28.985 44.5026 28.7207 44.9173 28.5293C45.332 28.3333 45.7991 28.2354 46.3186 28.2354C46.8427 28.2354 47.3121 28.3333 47.7268 28.5293C48.1461 28.7207 48.4993 28.985 48.7864 29.3223C49.0781 29.6595 49.3014 30.0583 49.4563 30.5186C49.6113 30.9743 49.6888 31.4688 49.6888 32.002V32.1523C49.6888 32.6855 49.6113 33.18 49.4563 33.6357C49.3014 34.0915 49.0781 34.488 48.7864 34.8252C48.4993 35.1624 48.1484 35.4268 47.7337 35.6182C47.319 35.8096 46.8518 35.9053 46.3323 35.9053C45.8082 35.9053 45.3365 35.8096 44.9173 35.6182C44.5026 35.4268 44.1494 35.1624 43.8577 34.8252C43.5706 34.488 43.3496 34.0915 43.1946 33.6357C43.0397 33.18 42.9622 32.6855 42.9622 32.1523V32.002ZM44.2268 32.1523C44.2268 32.5169 44.2701 32.8656 44.3567 33.1982C44.4433 33.5264 44.5732 33.8158 44.7464 34.0664C44.9241 34.3171 45.1451 34.5153 45.4095 34.6611C45.6738 34.807 45.9814 34.8799 46.3323 34.8799C46.6787 34.8799 46.9817 34.807 47.2415 34.6611C47.5058 34.5153 47.7246 34.3171 47.8977 34.0664C48.0755 33.8158 48.2076 33.5264 48.2942 33.1982C48.3808 32.8656 48.4241 32.5169 48.4241 32.1523V32.002C48.4241 31.6419 48.3785 31.2979 48.2874 30.9697C48.2008 30.637 48.0686 30.3454 47.8909 30.0947C47.7177 29.8441 47.499 29.6458 47.2346 29.5C46.9749 29.3496 46.6695 29.2744 46.3186 29.2744C45.9677 29.2744 45.6624 29.3496 45.4026 29.5C45.1429 29.6458 44.9241 29.8441 44.7464 30.0947C44.5732 30.3454 44.4433 30.637 44.3567 30.9697C44.2701 31.2979 44.2268 31.6419 44.2268 32.002V32.1523ZM52.567 33.0889L52.7173 34.1484L52.9019 33.0889L54.0845 28.3721H54.898L56.0738 33.0889L56.272 34.251L56.4566 33.0889L57.2769 28.3721H58.398L56.8257 35.7686H55.8277L54.6724 31.2363L54.481 30.0879L54.2964 31.2363L53.1548 35.7686H52.1568L50.5845 28.3721H51.7056L52.567 33.0889ZM67.9005 28.3721H71.6808V34.6748H74.0939V35.7686H67.9005V34.6748H70.4161V29.4727H67.9005V28.3721ZM70.2521 26.4307C70.2521 26.221 70.3136 26.0456 70.4366 25.9043C70.5642 25.7585 70.7557 25.6855 71.0109 25.6855C71.2615 25.6855 71.4506 25.7585 71.5782 25.9043C71.7058 26.0456 71.7696 26.221 71.7696 26.4307C71.7696 26.6357 71.7058 26.8066 71.5782 26.9434C71.4506 27.0801 71.2615 27.1484 71.0109 27.1484C70.7557 27.1484 70.5642 27.0801 70.4366 26.9434C70.3136 26.8066 70.2521 26.6357 70.2521 26.4307ZM80.7455 33.8066C80.7455 33.6562 80.7159 33.5218 80.6566 33.4033C80.5974 33.2803 80.4971 33.1686 80.3559 33.0684C80.2146 32.9681 80.0277 32.877 79.7953 32.7949C79.5629 32.7083 79.2735 32.6309 78.9271 32.5625C78.5033 32.4759 78.1159 32.3711 77.765 32.248C77.4187 32.125 77.1202 31.9792 76.8695 31.8105C76.6234 31.6374 76.432 31.4368 76.2953 31.209C76.1586 30.9766 76.0902 30.7077 76.0902 30.4023C76.0902 30.1016 76.1609 29.8213 76.3021 29.5615C76.4434 29.2972 76.6417 29.0671 76.8969 28.8711C77.1521 28.6751 77.4551 28.5202 77.8061 28.4062C78.1615 28.2923 78.5512 28.2354 78.975 28.2354C79.4307 28.2354 79.8409 28.2946 80.2055 28.4131C80.5701 28.5316 80.8799 28.6956 81.1352 28.9053C81.3904 29.1149 81.5863 29.361 81.723 29.6436C81.8643 29.9215 81.935 30.2223 81.935 30.5459H80.6703C80.6703 30.3864 80.6293 30.2314 80.5473 30.0811C80.4652 29.9261 80.3513 29.7894 80.2055 29.6709C80.0596 29.5524 79.8819 29.4567 79.6723 29.3838C79.4672 29.3109 79.2348 29.2744 78.975 29.2744C78.7061 29.2744 78.4691 29.304 78.2641 29.3633C78.0635 29.4225 77.8949 29.5023 77.7582 29.6025C77.626 29.7028 77.5258 29.819 77.4574 29.9512C77.3891 30.0833 77.3549 30.2201 77.3549 30.3613C77.3549 30.5072 77.3822 30.637 77.4369 30.751C77.4916 30.8649 77.585 30.9674 77.7172 31.0586C77.8539 31.1497 78.0339 31.2318 78.2572 31.3047C78.4851 31.3776 78.7722 31.4482 79.1186 31.5166C79.5743 31.6123 79.9822 31.724 80.3422 31.8516C80.7022 31.9746 81.0053 32.125 81.2514 32.3027C81.4975 32.4759 81.6843 32.6787 81.8119 32.9111C81.9441 33.1436 82.0102 33.4124 82.0102 33.7178C82.0102 34.0459 81.935 34.3444 81.7846 34.6133C81.6387 34.8822 81.4337 35.1123 81.1693 35.3037C80.905 35.4951 80.5883 35.6432 80.2191 35.748C79.85 35.8529 79.4467 35.9053 79.0092 35.9053C78.5079 35.9053 78.0613 35.8392 77.6693 35.707C77.2774 35.5703 76.9447 35.3926 76.6713 35.1738C76.4024 34.9505 76.1951 34.693 76.0492 34.4014C75.9079 34.1097 75.8373 33.8066 75.8373 33.4922H77.102C77.1202 33.752 77.1885 33.9707 77.307 34.1484C77.4301 34.3262 77.5805 34.4697 77.7582 34.5791C77.9405 34.6885 78.141 34.766 78.3598 34.8115C78.5785 34.8571 78.795 34.8799 79.0092 34.8799C79.5424 34.8799 79.9639 34.7819 80.2738 34.5859C80.5837 34.39 80.7409 34.1302 80.7455 33.8066ZM94.8076 33.1436L95.1357 34.0391L97.3916 28.3721H98.8066L95.0537 36.9102C94.9671 37.1016 94.8554 37.3044 94.7187 37.5186C94.5866 37.7327 94.4248 37.931 94.2334 38.1133C94.042 38.2956 93.8186 38.4482 93.5634 38.5713C93.3082 38.6943 93.0143 38.7559 92.6816 38.7559C92.6224 38.7559 92.5563 38.7513 92.4834 38.7422C92.4104 38.7376 92.3375 38.7285 92.2646 38.7148C92.1917 38.7057 92.1233 38.6943 92.0595 38.6807C91.9957 38.667 91.9433 38.6556 91.9023 38.6465L92.1074 37.6143C92.1393 37.6143 92.1826 37.6165 92.2373 37.6211C92.292 37.6257 92.3489 37.6302 92.4082 37.6348C92.4674 37.6393 92.5244 37.6416 92.5791 37.6416C92.6338 37.6462 92.677 37.6484 92.7089 37.6484C92.8821 37.6484 93.0393 37.6006 93.1806 37.5049C93.3265 37.4092 93.4541 37.2952 93.5634 37.1631C93.6774 37.0309 93.7731 36.8942 93.8505 36.7529C93.9326 36.6117 93.9964 36.4954 94.042 36.4043L94.5478 35.4199L91.3623 28.3721H92.7773L94.8076 33.1436ZM99.8596 32.002C99.8596 31.4688 99.9371 30.9743 100.092 30.5186C100.247 30.0583 100.468 29.6595 100.755 29.3223C101.047 28.985 101.4 28.7207 101.815 28.5293C102.229 28.3333 102.697 28.2354 103.216 28.2354C103.74 28.2354 104.21 28.3333 104.624 28.5293C105.044 28.7207 105.397 28.985 105.684 29.3223C105.975 29.6595 106.199 30.0583 106.354 30.5186C106.509 30.9743 106.586 31.4688 106.586 32.002V32.1523C106.586 32.6855 106.509 33.18 106.354 33.6357C106.199 34.0915 105.975 34.488 105.684 34.8252C105.397 35.1624 105.046 35.4268 104.631 35.6182C104.216 35.8096 103.749 35.9053 103.23 35.9053C102.706 35.9053 102.234 35.8096 101.815 35.6182C101.4 35.4268 101.047 35.1624 100.755 34.8252C100.468 34.488 100.247 34.0915 100.092 33.6357C99.9371 33.18 99.8596 32.6855 99.8596 32.1523V32.002ZM101.124 32.1523C101.124 32.5169 101.168 32.8656 101.254 33.1982C101.341 33.5264 101.471 33.8158 101.644 34.0664C101.822 34.3171 102.043 34.5153 102.307 34.6611C102.571 34.807 102.879 34.8799 103.23 34.8799C103.576 34.8799 103.879 34.807 104.139 34.6611C104.403 34.5153 104.622 34.3171 104.795 34.0664C104.973 33.8158 105.105 33.5264 105.192 33.1982C105.278 32.8656 105.322 32.5169 105.322 32.1523V32.002C105.322 31.6419 105.276 31.2979 105.185 30.9697C105.098 30.637 104.966 30.3454 104.788 30.0947C104.615 29.8441 104.396 29.6458 104.132 29.5C103.872 29.3496 103.567 29.2744 103.216 29.2744C102.865 29.2744 102.56 29.3496 102.3 29.5C102.04 29.6458 101.822 29.8441 101.644 30.0947C101.471 30.3454 101.341 30.637 101.254 30.9697C101.168 31.2979 101.124 31.6419 101.124 32.002V32.1523ZM113.142 34.75C112.896 35.1146 112.588 35.3994 112.219 35.6045C111.85 35.805 111.424 35.9053 110.941 35.9053C110.554 35.9053 110.203 35.846 109.888 35.7275C109.574 35.6045 109.305 35.4154 109.082 35.1602C108.858 34.9049 108.685 34.5814 108.562 34.1895C108.444 33.793 108.384 33.319 108.384 32.7676V28.3721H109.649V32.7812C109.649 33.1823 109.681 33.515 109.745 33.7793C109.808 34.0436 109.904 34.2555 110.032 34.415C110.159 34.57 110.314 34.6794 110.497 34.7432C110.683 34.807 110.898 34.8389 111.139 34.8389C111.654 34.8389 112.069 34.734 112.383 34.5244C112.702 34.3148 112.939 34.0322 113.094 33.6768V28.3721H114.366V35.7686H113.217L113.142 34.75ZM121.318 28.2354C121.437 28.2354 121.56 28.2399 121.687 28.249C121.815 28.2536 121.936 28.265 122.05 28.2832C122.168 28.2969 122.275 28.3151 122.371 28.3379C122.471 28.3607 122.553 28.3857 122.617 28.4131L122.446 29.6504C122.2 29.5957 121.965 29.557 121.742 29.5342C121.523 29.5068 121.293 29.4932 121.052 29.4932C120.459 29.4932 119.978 29.6276 119.609 29.8965C119.245 30.1654 118.976 30.5413 118.803 31.0244V35.7686H117.531V28.3721H118.734L118.796 29.5479C119.096 29.1423 119.457 28.8232 119.876 28.5908C120.3 28.3538 120.78 28.2354 121.318 28.2354ZM133.849 33.0889L133.999 34.1484L134.184 33.0889L135.367 28.3721H136.18L137.356 33.0889L137.554 34.251L137.739 33.0889L138.559 28.3721H139.68L138.108 35.7686H137.11L135.954 31.2363L135.763 30.0879L135.578 31.2363L134.437 35.7686H133.439L131.867 28.3721H132.988L133.849 33.0889ZM140.501 32.002C140.501 31.4688 140.578 30.9743 140.733 30.5186C140.888 30.0583 141.109 29.6595 141.396 29.3223C141.688 28.985 142.041 28.7207 142.456 28.5293C142.87 28.3333 143.338 28.2354 143.857 28.2354C144.381 28.2354 144.851 28.3333 145.265 28.5293C145.685 28.7207 146.038 28.985 146.325 29.3223C146.617 29.6595 146.84 30.0583 146.995 30.5186C147.15 30.9743 147.227 31.4688 147.227 32.002V32.1523C147.227 32.6855 147.15 33.18 146.995 33.6357C146.84 34.0915 146.617 34.488 146.325 34.8252C146.038 35.1624 145.687 35.4268 145.272 35.6182C144.857 35.8096 144.39 35.9053 143.871 35.9053C143.347 35.9053 142.875 35.8096 142.456 35.6182C142.041 35.4268 141.688 35.1624 141.396 34.8252C141.109 34.488 140.888 34.0915 140.733 33.6357C140.578 33.18 140.501 32.6855 140.501 32.1523V32.002ZM141.765 32.1523C141.765 32.5169 141.809 32.8656 141.895 33.1982C141.982 33.5264 142.112 33.8158 142.285 34.0664C142.463 34.3171 142.684 34.5153 142.948 34.6611C143.212 34.807 143.52 34.8799 143.871 34.8799C144.217 34.8799 144.52 34.807 144.78 34.6611C145.044 34.5153 145.263 34.3171 145.436 34.0664C145.614 33.8158 145.746 33.5264 145.833 33.1982C145.919 32.8656 145.963 32.5169 145.963 32.1523V32.002C145.963 31.6419 145.917 31.2979 145.826 30.9697C145.739 30.637 145.607 30.3454 145.429 30.0947C145.256 29.8441 145.037 29.6458 144.773 29.5C144.513 29.3496 144.208 29.2744 143.857 29.2744C143.506 29.2744 143.201 29.3496 142.941 29.5C142.681 29.6458 142.463 29.8441 142.285 30.0947C142.112 30.3454 141.982 30.637 141.895 30.9697C141.809 31.2979 141.765 31.6419 141.765 32.002V32.1523ZM153.831 28.2354C153.949 28.2354 154.073 28.2399 154.2 28.249C154.328 28.2536 154.448 28.265 154.562 28.2832C154.681 28.2969 154.788 28.3151 154.884 28.3379C154.984 28.3607 155.066 28.3857 155.13 28.4131L154.959 29.6504C154.713 29.5957 154.478 29.557 154.255 29.5342C154.036 29.5068 153.806 29.4932 153.564 29.4932C152.972 29.4932 152.491 29.6276 152.122 29.8965C151.757 30.1654 151.489 30.5413 151.315 31.0244V35.7686H150.044V28.3721H151.247L151.309 29.5479C151.609 29.1423 151.969 28.8232 152.389 28.5908C152.812 28.3538 153.293 28.2354 153.831 28.2354ZM159.327 32.3164L158.398 33.2119V35.7686H157.126V25.2686H158.398V31.6943L159.225 30.8057L161.652 28.3721H163.19L160.196 31.4551L163.648 35.7686H162.041L159.327 32.3164ZM173.136 32.0088C173.136 31.4574 173.203 30.9515 173.335 30.4912C173.471 30.0264 173.667 29.6276 173.923 29.2949C174.178 28.9622 174.488 28.7025 174.852 28.5156C175.217 28.3288 175.629 28.2354 176.09 28.2354C176.545 28.2354 176.944 28.3174 177.286 28.4814C177.632 28.641 177.926 28.8734 178.168 29.1787L178.229 28.3721H179.378V35.6113C179.378 36.099 179.3 36.5319 179.145 36.9102C178.995 37.2884 178.781 37.6097 178.503 37.874C178.229 38.1383 177.901 38.3389 177.518 38.4756C177.136 38.6123 176.712 38.6807 176.247 38.6807C176.055 38.6807 175.837 38.6579 175.591 38.6123C175.344 38.5713 175.094 38.5007 174.839 38.4004C174.588 38.3047 174.344 38.1748 174.107 38.0107C173.875 37.8467 173.674 37.6439 173.506 37.4023L174.162 36.6436C174.317 36.8304 174.476 36.9876 174.64 37.1152C174.804 37.2474 174.971 37.3522 175.139 37.4297C175.308 37.5072 175.477 37.5618 175.645 37.5938C175.814 37.6302 175.983 37.6484 176.151 37.6484C176.452 37.6484 176.723 37.6051 176.965 37.5186C177.206 37.432 177.411 37.3044 177.58 37.1357C177.753 36.9717 177.885 36.7666 177.976 36.5205C178.067 36.2744 178.113 35.9919 178.113 35.6729V35.0371C177.867 35.3197 177.575 35.5361 177.238 35.6865C176.905 35.8324 176.518 35.9053 176.076 35.9053C175.625 35.9053 175.217 35.8096 174.852 35.6182C174.488 35.4268 174.178 35.1624 173.923 34.8252C173.672 34.488 173.478 34.0915 173.342 33.6357C173.205 33.1755 173.136 32.681 173.136 32.1523V32.0088ZM174.401 32.1523C174.401 32.5124 174.438 32.8542 174.511 33.1777C174.588 33.5013 174.706 33.7861 174.866 34.0322C175.03 34.2783 175.237 34.4743 175.488 34.6201C175.739 34.7614 176.039 34.832 176.39 34.832C176.609 34.832 176.805 34.807 176.978 34.7568C177.156 34.7021 177.313 34.627 177.45 34.5312C177.591 34.4355 177.717 34.3216 177.826 34.1895C177.935 34.0573 178.031 33.9115 178.113 33.752V30.3613C178.031 30.2064 177.935 30.0651 177.826 29.9375C177.717 29.8099 177.591 29.7005 177.45 29.6094C177.309 29.5137 177.151 29.4408 176.978 29.3906C176.805 29.3359 176.614 29.3086 176.404 29.3086C176.049 29.3086 175.743 29.3815 175.488 29.5273C175.237 29.6732 175.03 29.8714 174.866 30.1221C174.706 30.3682 174.588 30.6553 174.511 30.9834C174.438 31.307 174.401 31.6488 174.401 32.0088V32.1523ZM181.142 32.002C181.142 31.4688 181.219 30.9743 181.374 30.5186C181.529 30.0583 181.75 29.6595 182.037 29.3223C182.329 28.985 182.682 28.7207 183.097 28.5293C183.511 28.3333 183.979 28.2354 184.498 28.2354C185.022 28.2354 185.492 28.3333 185.906 28.5293C186.326 28.7207 186.679 28.985 186.966 29.3223C187.258 29.6595 187.481 30.0583 187.636 30.5186C187.791 30.9743 187.868 31.4688 187.868 32.002V32.1523C187.868 32.6855 187.791 33.18 187.636 33.6357C187.481 34.0915 187.258 34.488 186.966 34.8252C186.679 35.1624 186.328 35.4268 185.913 35.6182C185.498 35.8096 185.031 35.9053 184.512 35.9053C183.988 35.9053 183.516 35.8096 183.097 35.6182C182.682 35.4268 182.329 35.1624 182.037 34.8252C181.75 34.488 181.529 34.0915 181.374 33.6357C181.219 33.18 181.142 32.6855 181.142 32.1523V32.002ZM182.406 32.1523C182.406 32.5169 182.45 32.8656 182.536 33.1982C182.623 33.5264 182.753 33.8158 182.926 34.0664C183.104 34.3171 183.325 34.5153 183.589 34.6611C183.853 34.807 184.161 34.8799 184.512 34.8799C184.858 34.8799 185.161 34.807 185.421 34.6611C185.685 34.5153 185.904 34.3171 186.077 34.0664C186.255 33.8158 186.387 33.5264 186.474 33.1982C186.56 32.8656 186.604 32.5169 186.604 32.1523V32.002C186.604 31.6419 186.558 31.2979 186.467 30.9697C186.38 30.637 186.248 30.3454 186.07 30.0947C185.897 29.8441 185.678 29.6458 185.414 29.5C185.154 29.3496 184.849 29.2744 184.498 29.2744C184.147 29.2744 183.842 29.3496 183.582 29.5C183.322 29.6458 183.104 29.8441 182.926 30.0947C182.753 30.3454 182.623 30.637 182.536 30.9697C182.45 31.2979 182.406 31.6419 182.406 32.002V32.1523ZM189.824 28.3721H193.604V34.6748H196.017V35.7686H189.824V34.6748H192.339V29.4727H189.824V28.3721ZM192.175 26.4307C192.175 26.221 192.237 26.0456 192.36 25.9043C192.487 25.7585 192.679 25.6855 192.934 25.6855C193.185 25.6855 193.374 25.7585 193.501 25.9043C193.629 26.0456 193.693 26.221 193.693 26.4307C193.693 26.6357 193.629 26.8066 193.501 26.9434C193.374 27.0801 193.185 27.1484 192.934 27.1484C192.679 27.1484 192.487 27.0801 192.36 26.9434C192.237 26.8066 192.175 26.6357 192.175 26.4307ZM198.888 28.3721L198.977 29.4658C199.246 29.083 199.576 28.7845 199.968 28.5703C200.36 28.3516 200.798 28.2399 201.281 28.2354C201.668 28.2354 202.019 28.29 202.334 28.3994C202.653 28.5088 202.924 28.6797 203.147 28.9121C203.37 29.1445 203.541 29.4408 203.66 29.8008C203.783 30.1562 203.844 30.5801 203.844 31.0723V35.7686H202.58V31.0996C202.58 30.7715 202.543 30.4935 202.47 30.2656C202.397 30.0378 202.288 29.8532 202.142 29.7119C202.001 29.5706 201.825 29.4681 201.616 29.4043C201.411 29.3405 201.174 29.3086 200.905 29.3086C200.481 29.3086 200.107 29.4157 199.784 29.6299C199.465 29.8395 199.21 30.1175 199.018 30.4639V35.7686H197.754V28.3721H198.888ZM205.649 32.0088C205.649 31.4574 205.715 30.9515 205.848 30.4912C205.984 30.0264 206.18 29.6276 206.435 29.2949C206.691 28.9622 207.001 28.7025 207.365 28.5156C207.73 28.3288 208.142 28.2354 208.602 28.2354C209.058 28.2354 209.457 28.3174 209.799 28.4814C210.145 28.641 210.439 28.8734 210.681 29.1787L210.742 28.3721H211.891V35.6113C211.891 36.099 211.813 36.5319 211.658 36.9102C211.508 37.2884 211.293 37.6097 211.016 37.874C210.742 38.1383 210.414 38.3389 210.031 38.4756C209.648 38.6123 209.224 38.6807 208.76 38.6807C208.568 38.6807 208.349 38.6579 208.103 38.6123C207.857 38.5713 207.607 38.5007 207.351 38.4004C207.101 38.3047 206.857 38.1748 206.62 38.0107C206.388 37.8467 206.187 37.6439 206.018 37.4023L206.675 36.6436C206.83 36.8304 206.989 36.9876 207.153 37.1152C207.317 37.2474 207.484 37.3522 207.652 37.4297C207.821 37.5072 207.989 37.5618 208.158 37.5938C208.327 37.6302 208.495 37.6484 208.664 37.6484C208.965 37.6484 209.236 37.6051 209.477 37.5186C209.719 37.432 209.924 37.3044 210.093 37.1357C210.266 36.9717 210.398 36.7666 210.489 36.5205C210.58 36.2744 210.626 35.9919 210.626 35.6729V35.0371C210.38 35.3197 210.088 35.5361 209.751 35.6865C209.418 35.8324 209.031 35.9053 208.589 35.9053C208.138 35.9053 207.73 35.8096 207.365 35.6182C207.001 35.4268 206.691 35.1624 206.435 34.8252C206.185 34.488 205.991 34.0915 205.854 33.6357C205.718 33.1755 205.649 32.681 205.649 32.1523V32.0088ZM206.914 32.1523C206.914 32.5124 206.95 32.8542 207.023 33.1777C207.101 33.5013 207.219 33.7861 207.379 34.0322C207.543 34.2783 207.75 34.4743 208.001 34.6201C208.252 34.7614 208.552 34.832 208.903 34.832C209.122 34.832 209.318 34.807 209.491 34.7568C209.669 34.7021 209.826 34.627 209.963 34.5312C210.104 34.4355 210.229 34.3216 210.339 34.1895C210.448 34.0573 210.544 33.9115 210.626 33.752V30.3613C210.544 30.2064 210.448 30.0651 210.339 29.9375C210.229 29.8099 210.104 29.7005 209.963 29.6094C209.821 29.5137 209.664 29.4408 209.491 29.3906C209.318 29.3359 209.127 29.3086 208.917 29.3086C208.561 29.3086 208.256 29.3815 208.001 29.5273C207.75 29.6732 207.543 29.8714 207.379 30.1221C207.219 30.3682 207.101 30.6553 207.023 30.9834C206.95 31.307 206.914 31.6488 206.914 32.0088V32.1523ZM216.314 32.9658C216.318 32.6377 216.332 32.3688 216.355 32.1592C216.377 31.945 216.425 31.7559 216.498 31.5918C216.571 31.4232 216.676 31.2637 216.813 31.1133C216.949 30.9583 217.132 30.776 217.36 30.5664C217.514 30.4069 217.672 30.2428 217.831 30.0742C217.995 29.9056 218.143 29.7301 218.276 29.5479C218.412 29.361 218.524 29.165 218.611 28.96C218.697 28.7549 218.74 28.5384 218.74 28.3105C218.74 27.8138 218.597 27.4355 218.31 27.1758C218.023 26.9115 217.612 26.7793 217.079 26.7793C216.865 26.7793 216.655 26.8066 216.45 26.8613C216.25 26.9115 216.07 26.9935 215.91 27.1074C215.755 27.2168 215.63 27.3581 215.534 27.5312C215.439 27.6999 215.391 27.9027 215.391 28.1396H214.126C214.131 27.7568 214.21 27.4128 214.365 27.1074C214.52 26.8021 214.728 26.5446 214.987 26.335C215.252 26.1208 215.562 25.959 215.917 25.8496C216.277 25.7357 216.665 25.6787 217.079 25.6787C217.54 25.6787 217.95 25.738 218.31 25.8564C218.674 25.9704 218.982 26.139 219.233 26.3623C219.483 26.5856 219.675 26.8568 219.807 27.1758C219.939 27.4948 220.005 27.8594 220.005 28.2695C220.005 28.5977 219.948 28.9076 219.834 29.1992C219.72 29.4863 219.574 29.7598 219.397 30.0195C219.219 30.2747 219.018 30.514 218.795 30.7373C218.576 30.9606 218.36 31.168 218.146 31.3594C218.009 31.4915 217.902 31.6169 217.824 31.7354C217.751 31.8538 217.697 31.9746 217.66 32.0977C217.624 32.2207 217.601 32.3529 217.592 32.4941C217.583 32.6309 217.578 32.7881 217.578 32.9658H216.314ZM216.17 35.1055C216.17 34.8867 216.234 34.7044 216.361 34.5586C216.494 34.4128 216.69 34.3398 216.949 34.3398C217.209 34.3398 217.405 34.4128 217.537 34.5586C217.674 34.7044 217.742 34.8867 217.742 35.1055C217.742 35.3151 217.674 35.4906 217.537 35.6318C217.405 35.7731 217.209 35.8438 216.949 35.8438C216.69 35.8438 216.494 35.7731 216.361 35.6318C216.234 35.4906 216.17 35.3151 216.17 35.1055Z" fill="#696974"/>
</svg>
