<svg width="341" height="121" viewBox="0 0 341 121" fill="none" xmlns="http://www.w3.org/2000/svg">
<path d="M69.8175 1.74627H69.826L69.8345 1.74569L91.0021 0.310525C91.5867 0.270892 92.1736 0.28403 92.7558 0.349778L114.639 2.82116C115.367 2.90329 116.101 2.90729 116.829 2.83309L127.494 1.74627H149.902H149.906L184.773 2.94279L184.78 2.94313L260.946 7.73084L260.959 7.73165L260.972 7.73113C273.368 7.23246 292.158 6.72387 308.239 6.8186C316.28 6.86597 323.639 7.06419 329.181 7.48933C331.953 7.70196 334.264 7.97087 335.976 8.30441C336.832 8.47127 337.531 8.65295 338.06 8.84893C338.599 9.04848 338.926 9.25003 339.077 9.43511C339.243 9.63778 339.408 9.97893 339.563 10.4698C339.716 10.9559 339.854 11.5688 339.977 12.2983C340.222 13.757 340.402 15.6611 340.526 17.9063C340.774 22.3957 340.799 28.2259 340.685 34.5368C340.456 47.1562 339.674 61.6791 339.021 71.2028C339.021 71.2036 339.021 71.2044 339.021 71.2052L336.889 96.7444C336.488 101.549 332.637 105.339 327.827 105.685C316.662 106.489 302.094 107.638 297.231 108.382C295.291 108.678 291.748 108.846 287.384 108.963C284.345 109.045 280.918 109.101 277.371 109.16C275.83 109.185 274.267 109.211 272.704 109.239C267.542 109.333 262.377 109.454 258.012 109.684C253.656 109.913 250.07 110.25 248.083 110.781C244.2 111.82 236.4 112.344 228.56 112.681C225.435 112.815 222.307 112.92 219.426 113.016C215.097 113.161 211.328 113.287 208.974 113.467C207.997 113.542 206.627 113.654 204.973 113.789C199.992 114.195 192.431 114.813 185.218 115.262C180.414 115.561 175.77 115.786 172.15 115.823C170.34 115.842 168.791 115.813 167.608 115.725C167.016 115.681 166.521 115.623 166.134 115.548C165.738 115.473 165.481 115.386 165.345 115.3C164.938 115.044 164.351 114.904 163.636 114.838C162.916 114.771 162.035 114.778 161.02 114.837C158.991 114.954 156.39 115.283 153.389 115.675C153.111 115.712 152.829 115.749 152.544 115.786C146.672 116.556 139.371 117.513 131.748 117.656C125.195 117.778 117.691 118.601 110.705 119.366C109.138 119.538 107.597 119.707 106.098 119.864C102.005 120.294 98.2314 120.639 95.105 120.728C91.9665 120.817 89.5226 120.645 88.0629 120.067C87.0255 119.657 85.0456 119.355 82.4801 119.132C79.9025 118.908 76.6999 118.76 73.1932 118.669C66.1792 118.488 57.9363 118.536 51.0177 118.662C46.4963 118.744 42.4804 115.765 41.3041 111.402L39.923 106.279C38.4435 100.792 32.7864 97.7145 27.175 98.0315C19.1711 98.4838 12.2871 96.7734 7.34217 94.5435C5.14112 93.551 4.00148 91.7178 3.80355 89.6747C3.60483 87.6233 4.35617 85.349 5.97034 83.5089L25.8768 60.8168C26.3551 60.2717 26.7766 59.682 27.1169 59.0348C28.8803 55.6815 31.1731 50.4057 32.7536 44.593C34.333 38.7844 35.2083 32.4142 34.112 26.8842C32.7898 20.2146 32.6872 13.9617 33.0191 9.17701C33.3243 4.7784 37.1639 1.74627 41.6204 1.74627H69.8175Z" fill="white" stroke="#E9E9ED" stroke-width="0.5"/>
<path d="M60.165 44.0469H66.1807V45.1475H63.7949V52.9062H66.1807V54H60.165V52.9062H62.4961V45.1475H60.165V44.0469ZM77.5562 46.6035L77.6451 47.6973C77.914 47.3145 78.2444 47.016 78.6363 46.8018C79.0282 46.583 79.4657 46.4714 79.9488 46.4668C80.3362 46.4668 80.6871 46.5215 81.0015 46.6309C81.3205 46.7402 81.5917 46.9111 81.815 47.1436C82.0383 47.376 82.2092 47.6722 82.3277 48.0322C82.4507 48.3877 82.5123 48.8115 82.5123 49.3037V54H81.2476V49.3311C81.2476 49.0029 81.2112 48.7249 81.1382 48.4971C81.0653 48.2692 80.956 48.0846 80.8101 47.9434C80.6688 47.8021 80.4934 47.6995 80.2838 47.6357C80.0787 47.5719 79.8417 47.54 79.5728 47.54C79.149 47.54 78.7753 47.6471 78.4517 47.8613C78.1327 48.071 77.8775 48.349 77.6861 48.6953V54H76.4214V46.6035H77.5562ZM87.8172 54.1367C87.2977 54.1367 86.8192 54.0479 86.3817 53.8701C85.9487 53.6924 85.5773 53.444 85.2674 53.125C84.9575 52.806 84.716 52.4277 84.5428 51.9902C84.3696 51.5527 84.283 51.0765 84.283 50.5615V50.2744C84.283 49.6774 84.3787 49.1442 84.5702 48.6748C84.7616 48.2008 85.0145 47.8021 85.3289 47.4785C85.648 47.1504 86.008 46.8997 86.409 46.7266C86.8146 46.5534 87.2293 46.4668 87.6532 46.4668C88.1864 46.4668 88.6512 46.5602 89.0477 46.7471C89.4487 46.9294 89.7814 47.1846 90.0457 47.5127C90.3101 47.8363 90.506 48.2191 90.6336 48.6611C90.7658 49.1032 90.8319 49.5817 90.8319 50.0967V50.6641H85.5477C85.5614 51.0013 85.6252 51.318 85.7391 51.6143C85.8576 51.9105 86.0171 52.1702 86.2176 52.3936C86.4227 52.6123 86.6665 52.7855 86.9491 52.9131C87.2316 53.0407 87.5438 53.1045 87.8856 53.1045C88.3368 53.1045 88.7378 53.0133 89.0887 52.8311C89.4396 52.6488 89.7313 52.4072 89.9637 52.1064L90.7362 52.708C90.6131 52.8949 90.4582 53.0749 90.2713 53.248C90.089 53.4167 89.8771 53.5671 89.6356 53.6992C89.394 53.8314 89.1206 53.9362 88.8153 54.0137C88.5099 54.0957 88.1773 54.1367 87.8172 54.1367ZM87.6532 47.5059C87.398 47.5059 87.1564 47.5537 86.9286 47.6494C86.7007 47.7406 86.4956 47.8773 86.3133 48.0596C86.131 48.2373 85.9761 48.4583 85.8485 48.7227C85.7254 48.9824 85.6388 49.2832 85.5887 49.625H89.5672V49.5293C89.5536 49.2832 89.5057 49.0394 89.4237 48.7979C89.3462 48.5563 89.23 48.3398 89.075 48.1484C88.9201 47.957 88.7241 47.8021 88.4871 47.6836C88.2547 47.5651 87.9767 47.5059 87.6532 47.5059ZM95.9454 54.1367C95.4259 54.1367 94.9474 54.0479 94.5099 53.8701C94.0769 53.6924 93.7055 53.444 93.3956 53.125C93.0857 52.806 92.8442 52.4277 92.671 51.9902C92.4978 51.5527 92.4113 51.0765 92.4113 50.5615V50.2744C92.4113 49.6774 92.507 49.1442 92.6984 48.6748C92.8898 48.2008 93.1427 47.8021 93.4571 47.4785C93.7762 47.1504 94.1362 46.8997 94.5372 46.7266C94.9428 46.5534 95.3575 46.4668 95.7814 46.4668C96.3146 46.4668 96.7794 46.5602 97.1759 46.7471C97.5769 46.9294 97.9096 47.1846 98.1739 47.5127C98.4383 47.8363 98.6342 48.2191 98.7618 48.6611C98.894 49.1032 98.9601 49.5817 98.9601 50.0967V50.6641H93.6759C93.6896 51.0013 93.7534 51.318 93.8673 51.6143C93.9858 51.9105 94.1453 52.1702 94.3458 52.3936C94.5509 52.6123 94.7947 52.7855 95.0773 52.9131C95.3598 53.0407 95.672 53.1045 96.0138 53.1045C96.465 53.1045 96.866 53.0133 97.2169 52.8311C97.5678 52.6488 97.8595 52.4072 98.0919 52.1064L98.8644 52.708C98.7413 52.8949 98.5864 53.0749 98.3995 53.248C98.2172 53.4167 98.0053 53.5671 97.7638 53.6992C97.5223 53.8314 97.2488 53.9362 96.9435 54.0137C96.6381 54.0957 96.3055 54.1367 95.9454 54.1367ZM95.7814 47.5059C95.5262 47.5059 95.2846 47.5537 95.0568 47.6494C94.8289 47.7406 94.6238 47.8773 94.4415 48.0596C94.2592 48.2373 94.1043 48.4583 93.9767 48.7227C93.8536 48.9824 93.767 49.2832 93.7169 49.625H97.6954V49.5293C97.6818 49.2832 97.6339 49.0394 97.5519 48.7979C97.4744 48.5563 97.3582 48.3398 97.2032 48.1484C97.0483 47.957 96.8523 47.8021 96.6154 47.6836C96.3829 47.5651 96.1049 47.5059 95.7814 47.5059ZM100.567 50.2402C100.567 49.6888 100.635 49.1829 100.772 48.7227C100.913 48.2578 101.111 47.859 101.367 47.5264C101.626 47.1937 101.939 46.9339 102.303 46.7471C102.668 46.5602 103.076 46.4668 103.527 46.4668C103.969 46.4668 104.354 46.542 104.682 46.6924C105.015 46.8382 105.302 47.0524 105.543 47.335V43.5H106.808V54H105.646L105.591 53.2207C105.345 53.5215 105.051 53.7493 104.709 53.9043C104.368 54.0592 103.969 54.1367 103.513 54.1367C103.066 54.1367 102.661 54.041 102.296 53.8496C101.936 53.6582 101.629 53.3939 101.373 53.0566C101.118 52.7194 100.92 52.3229 100.779 51.8672C100.637 51.4069 100.567 50.9124 100.567 50.3838V50.2402ZM101.831 50.3838C101.831 50.7438 101.87 51.0856 101.948 51.4092C102.025 51.7327 102.144 52.0176 102.303 52.2637C102.467 52.5098 102.675 52.7057 102.925 52.8516C103.176 52.9928 103.477 53.0635 103.828 53.0635C104.042 53.0635 104.235 53.0384 104.409 52.9883C104.582 52.9382 104.739 52.8675 104.88 52.7764C105.022 52.6807 105.147 52.569 105.256 52.4414C105.366 52.3092 105.461 52.1634 105.543 52.0039V48.5723C105.379 48.2715 105.158 48.0254 104.88 47.834C104.602 47.638 104.256 47.54 103.841 47.54C103.486 47.54 103.18 47.613 102.925 47.7588C102.675 47.9046 102.467 48.1029 102.303 48.3535C102.144 48.5996 102.025 48.8867 101.948 49.2148C101.87 49.5384 101.831 49.8802 101.831 50.2402V50.3838ZM120.057 44.8125V46.6035H122.873V47.5811H120.057V51.6006C120.057 51.8877 120.093 52.1247 120.166 52.3115C120.239 52.4984 120.339 52.6488 120.467 52.7627C120.594 52.8721 120.74 52.9495 120.904 52.9951C121.073 53.0407 121.251 53.0635 121.437 53.0635C121.574 53.0635 121.715 53.0566 121.861 53.043C122.007 53.0247 122.148 53.0042 122.285 52.9814C122.426 52.9587 122.556 52.9359 122.675 52.9131C122.798 52.8857 122.898 52.863 122.976 52.8447L123.153 53.7402C123.048 53.804 122.921 53.861 122.77 53.9111C122.62 53.9567 122.456 53.9954 122.278 54.0273C122.101 54.0638 121.911 54.0911 121.711 54.1094C121.515 54.1276 121.319 54.1367 121.123 54.1367C120.795 54.1367 120.487 54.0911 120.2 54C119.918 53.9043 119.672 53.7562 119.462 53.5557C119.252 53.3506 119.086 53.0885 118.963 52.7695C118.844 52.446 118.785 52.0563 118.785 51.6006V47.5811H116.844V46.6035H118.785V44.8125H120.057ZM124.835 50.2334C124.835 49.7002 124.913 49.2057 125.068 48.75C125.223 48.2897 125.444 47.891 125.731 47.5537C126.022 47.2165 126.376 46.9521 126.79 46.7607C127.205 46.5648 127.672 46.4668 128.192 46.4668C128.716 46.4668 129.185 46.5648 129.6 46.7607C130.019 46.9521 130.372 47.2165 130.659 47.5537C130.951 47.891 131.174 48.2897 131.329 48.75C131.484 49.2057 131.562 49.7002 131.562 50.2334V50.3838C131.562 50.917 131.484 51.4115 131.329 51.8672C131.174 52.3229 130.951 52.7194 130.659 53.0566C130.372 53.3939 130.021 53.6582 129.607 53.8496C129.192 54.041 128.725 54.1367 128.205 54.1367C127.681 54.1367 127.21 54.041 126.79 53.8496C126.376 53.6582 126.022 53.3939 125.731 53.0566C125.444 52.7194 125.223 52.3229 125.068 51.8672C124.913 51.4115 124.835 50.917 124.835 50.3838V50.2334ZM126.1 50.3838C126.1 50.7484 126.143 51.097 126.23 51.4297C126.316 51.7578 126.446 52.0472 126.619 52.2979C126.797 52.5485 127.018 52.7467 127.282 52.8926C127.547 53.0384 127.854 53.1113 128.205 53.1113C128.552 53.1113 128.855 53.0384 129.114 52.8926C129.379 52.7467 129.598 52.5485 129.771 52.2979C129.948 52.0472 130.081 51.7578 130.167 51.4297C130.254 51.097 130.297 50.7484 130.297 50.3838V50.2334C130.297 49.8734 130.252 49.5293 130.16 49.2012C130.074 48.8685 129.942 48.5768 129.764 48.3262C129.591 48.0755 129.372 47.8773 129.108 47.7314C128.848 47.5811 128.543 47.5059 128.192 47.5059C127.841 47.5059 127.535 47.5811 127.276 47.7314C127.016 47.8773 126.797 48.0755 126.619 48.3262C126.446 48.5768 126.316 48.8685 126.23 49.2012C126.143 49.5293 126.1 49.8734 126.1 50.2334V50.3838ZM147.716 50.3838C147.716 50.9124 147.652 51.4069 147.524 51.8672C147.397 52.3229 147.21 52.7194 146.964 53.0566C146.718 53.3939 146.412 53.6582 146.048 53.8496C145.688 54.041 145.273 54.1367 144.804 54.1367C144.33 54.1367 143.917 54.0524 143.566 53.8838C143.22 53.7152 142.924 53.4736 142.678 53.1592L142.616 54H141.454V43.5H142.719V47.3965C142.96 47.0957 143.252 46.8656 143.594 46.7061C143.935 46.5465 144.334 46.4668 144.79 46.4668C145.264 46.4668 145.683 46.5602 146.048 46.7471C146.412 46.9339 146.718 47.1937 146.964 47.5264C147.21 47.859 147.397 48.2578 147.524 48.7227C147.652 49.1829 147.716 49.6888 147.716 50.2402V50.3838ZM146.451 50.2402C146.451 49.8802 146.415 49.5384 146.342 49.2148C146.273 48.8867 146.162 48.5996 146.007 48.3535C145.852 48.1029 145.649 47.9046 145.398 47.7588C145.148 47.613 144.84 47.54 144.475 47.54C144.257 47.54 144.056 47.5697 143.874 47.6289C143.692 47.6836 143.527 47.7633 143.382 47.8682C143.24 47.9684 143.113 48.0892 142.999 48.2305C142.889 48.3672 142.796 48.5176 142.719 48.6816V51.915C142.801 52.0791 142.896 52.2318 143.006 52.373C143.12 52.5098 143.249 52.6305 143.395 52.7354C143.541 52.8402 143.705 52.9222 143.887 52.9814C144.07 53.0361 144.27 53.0635 144.489 53.0635C144.835 53.0635 145.132 52.9928 145.378 52.8516C145.628 52.7057 145.831 52.5098 145.986 52.2637C146.146 52.0176 146.262 51.7327 146.335 51.4092C146.412 51.0856 146.451 50.7438 146.451 50.3838V50.2402ZM154.374 52.9814C154.128 53.346 153.82 53.6309 153.451 53.8359C153.082 54.0365 152.656 54.1367 152.173 54.1367C151.786 54.1367 151.435 54.0775 151.12 53.959C150.806 53.8359 150.537 53.6468 150.314 53.3916C150.09 53.1364 149.917 52.8128 149.794 52.4209C149.676 52.0244 149.616 51.5505 149.616 50.999V46.6035H150.881V51.0127C150.881 51.4137 150.913 51.7464 150.977 52.0107C151.04 52.2751 151.136 52.487 151.264 52.6465C151.391 52.8014 151.546 52.9108 151.729 52.9746C151.915 53.0384 152.13 53.0703 152.371 53.0703C152.886 53.0703 153.301 52.9655 153.615 52.7559C153.934 52.5462 154.171 52.2637 154.326 51.9082V46.6035H155.598V54H154.449L154.374 52.9814ZM157.902 46.6035H161.682V52.9062H164.095V54H157.902V52.9062H160.417V47.7041H157.902V46.6035ZM160.253 44.6621C160.253 44.4525 160.315 44.277 160.438 44.1357C160.565 43.9899 160.757 43.917 161.012 43.917C161.263 43.917 161.452 43.9899 161.579 44.1357C161.707 44.277 161.771 44.4525 161.771 44.6621C161.771 44.8672 161.707 45.0381 161.579 45.1748C161.452 45.3115 161.263 45.3799 161.012 45.3799C160.757 45.3799 160.565 45.3115 160.438 45.1748C160.315 45.0381 160.253 44.8672 160.253 44.6621ZM166.03 43.5H169.81V52.9062H172.223V54H166.03V52.9062H168.546V44.6006H166.03V43.5ZM173.721 50.2402C173.721 49.6888 173.789 49.1829 173.926 48.7227C174.067 48.2578 174.265 47.859 174.52 47.5264C174.78 47.1937 175.092 46.9339 175.457 46.7471C175.822 46.5602 176.229 46.4668 176.681 46.4668C177.123 46.4668 177.508 46.542 177.836 46.6924C178.169 46.8382 178.456 47.0524 178.697 47.335V43.5H179.962V54H178.8L178.745 53.2207C178.499 53.5215 178.205 53.7493 177.863 53.9043C177.521 54.0592 177.123 54.1367 176.667 54.1367C176.22 54.1367 175.815 54.041 175.45 53.8496C175.09 53.6582 174.782 53.3939 174.527 53.0566C174.272 52.7194 174.074 52.3229 173.933 51.8672C173.791 51.4069 173.721 50.9124 173.721 50.3838V50.2402ZM174.985 50.3838C174.985 50.7438 175.024 51.0856 175.101 51.4092C175.179 51.7327 175.297 52.0176 175.457 52.2637C175.621 52.5098 175.828 52.7057 176.079 52.8516C176.33 52.9928 176.63 53.0635 176.981 53.0635C177.196 53.0635 177.389 53.0384 177.562 52.9883C177.736 52.9382 177.893 52.8675 178.034 52.7764C178.175 52.6807 178.301 52.569 178.41 52.4414C178.519 52.3092 178.615 52.1634 178.697 52.0039V48.5723C178.533 48.2715 178.312 48.0254 178.034 47.834C177.756 47.638 177.41 47.54 176.995 47.54C176.64 47.54 176.334 47.613 176.079 47.7588C175.828 47.9046 175.621 48.1029 175.457 48.3535C175.297 48.5996 175.179 48.8867 175.101 49.2148C175.024 49.5384 174.985 49.8802 174.985 50.2402V50.3838ZM196.663 51.0059C196.603 51.4661 196.485 51.89 196.307 52.2773C196.129 52.6602 195.897 52.9906 195.61 53.2686C195.327 53.542 194.99 53.7562 194.598 53.9111C194.211 54.0615 193.778 54.1367 193.299 54.1367C192.889 54.1367 192.515 54.0798 192.178 53.9658C191.846 53.8473 191.547 53.6855 191.283 53.4805C191.023 53.2754 190.797 53.0339 190.606 52.7559C190.419 52.4779 190.262 52.1748 190.134 51.8467C190.011 51.5186 189.918 51.1745 189.854 50.8145C189.795 50.4544 189.763 50.0898 189.758 49.7207V48.333C189.763 47.9639 189.795 47.5993 189.854 47.2393C189.918 46.8792 190.011 46.5352 190.134 46.207C190.262 45.8789 190.419 45.5758 190.606 45.2979C190.797 45.0153 191.023 44.7715 191.283 44.5664C191.547 44.3613 191.846 44.2018 192.178 44.0879C192.511 43.9694 192.885 43.9102 193.299 43.9102C193.796 43.9102 194.24 43.9876 194.632 44.1426C195.024 44.293 195.361 44.5094 195.644 44.792C195.927 45.07 196.152 45.4049 196.321 45.7969C196.494 46.1888 196.608 46.6217 196.663 47.0957H195.398C195.357 46.7949 195.286 46.5146 195.186 46.2549C195.086 45.9951 194.951 45.7673 194.783 45.5713C194.614 45.3753 194.407 45.2227 194.161 45.1133C193.919 44.9993 193.632 44.9424 193.299 44.9424C192.999 44.9424 192.732 44.9925 192.499 45.0928C192.272 45.1885 192.073 45.3206 191.905 45.4893C191.741 45.6579 191.602 45.8538 191.488 46.0771C191.378 46.3005 191.29 46.5374 191.221 46.7881C191.153 47.0387 191.103 47.2962 191.071 47.5605C191.043 47.8203 191.03 48.0732 191.03 48.3193V49.7207C191.03 49.9668 191.043 50.222 191.071 50.4863C191.103 50.7461 191.153 51.0036 191.221 51.2588C191.29 51.5094 191.378 51.7464 191.488 51.9697C191.597 52.193 191.736 52.3913 191.905 52.5645C192.073 52.7331 192.272 52.8675 192.499 52.9678C192.727 53.0635 192.994 53.1113 193.299 53.1113C193.632 53.1113 193.919 53.0589 194.161 52.9541C194.407 52.8493 194.614 52.7035 194.783 52.5166C194.951 52.3252 195.086 52.1019 195.186 51.8467C195.286 51.5869 195.357 51.3066 195.398 51.0059H196.663ZM201.639 49.9395H199.65V54H198.392V44.0469H201.311C201.776 44.056 202.214 44.1221 202.624 44.2451C203.034 44.3682 203.392 44.5527 203.697 44.7988C204.007 45.0449 204.248 45.3548 204.422 45.7285C204.599 46.0977 204.688 46.5329 204.688 47.0342C204.688 47.3577 204.64 47.654 204.545 47.9229C204.454 48.1917 204.326 48.4355 204.162 48.6543C203.998 48.873 203.802 49.0667 203.574 49.2354C203.346 49.404 203.095 49.5475 202.822 49.666L204.934 53.918L204.928 54H203.594L201.639 49.9395ZM199.65 48.9004H201.345C201.628 48.8958 201.895 48.8525 202.145 48.7705C202.396 48.6839 202.615 48.5609 202.802 48.4014C202.993 48.2419 203.143 48.0482 203.253 47.8203C203.362 47.5879 203.417 47.3213 203.417 47.0205C203.417 46.7015 203.364 46.4235 203.26 46.1865C203.155 45.945 203.009 45.7445 202.822 45.585C202.635 45.4209 202.412 45.2979 202.152 45.2158C201.897 45.1338 201.617 45.0905 201.311 45.0859H199.65V48.9004ZM207.86 44.0469L209.481 49.0234L211.231 44.0469H212.803V54H211.572V50.0283L211.675 45.8721L209.836 51.2314H209.111L207.423 46.0156L207.525 50.0283V54H206.295V44.0469H207.86ZM227.644 52.0381C227.644 51.8877 227.615 51.7533 227.555 51.6348C227.496 51.5117 227.396 51.4001 227.254 51.2998C227.113 51.1995 226.926 51.1084 226.694 51.0264C226.462 50.9398 226.172 50.8623 225.826 50.7939C225.402 50.7074 225.015 50.6025 224.664 50.4795C224.317 50.3564 224.019 50.2106 223.768 50.042C223.522 49.8688 223.331 49.6683 223.194 49.4404C223.057 49.208 222.989 48.9391 222.989 48.6338C222.989 48.333 223.059 48.0527 223.201 47.793C223.342 47.5286 223.54 47.2985 223.796 47.1025C224.051 46.9066 224.354 46.7516 224.705 46.6377C225.06 46.5238 225.45 46.4668 225.874 46.4668C226.329 46.4668 226.74 46.526 227.104 46.6445C227.469 46.763 227.779 46.9271 228.034 47.1367C228.289 47.3464 228.485 47.5924 228.622 47.875C228.763 48.153 228.834 48.4538 228.834 48.7773H227.569C227.569 48.6178 227.528 48.4629 227.446 48.3125C227.364 48.1576 227.25 48.0208 227.104 47.9023C226.958 47.7839 226.781 47.6882 226.571 47.6152C226.366 47.5423 226.133 47.5059 225.874 47.5059C225.605 47.5059 225.368 47.5355 225.163 47.5947C224.962 47.654 224.794 47.7337 224.657 47.834C224.525 47.9342 224.424 48.0505 224.356 48.1826C224.288 48.3148 224.254 48.4515 224.254 48.5928C224.254 48.7386 224.281 48.8685 224.336 48.9824C224.39 49.0964 224.484 49.1989 224.616 49.29C224.753 49.3812 224.933 49.4632 225.156 49.5361C225.384 49.609 225.671 49.6797 226.017 49.748C226.473 49.8438 226.881 49.9554 227.241 50.083C227.601 50.2061 227.904 50.3564 228.15 50.5342C228.396 50.7074 228.583 50.9102 228.711 51.1426C228.843 51.375 228.909 51.6439 228.909 51.9492C228.909 52.2773 228.834 52.5758 228.683 52.8447C228.537 53.1136 228.332 53.3438 228.068 53.5352C227.804 53.7266 227.487 53.8747 227.118 53.9795C226.749 54.0843 226.345 54.1367 225.908 54.1367C225.407 54.1367 224.96 54.0706 224.568 53.9385C224.176 53.8018 223.843 53.624 223.57 53.4053C223.301 53.182 223.094 52.9245 222.948 52.6328C222.807 52.3411 222.736 52.0381 222.736 51.7236H224.001C224.019 51.9834 224.087 52.2021 224.206 52.3799C224.329 52.5576 224.479 52.7012 224.657 52.8105C224.839 52.9199 225.04 52.9974 225.258 53.043C225.477 53.0885 225.694 53.1113 225.908 53.1113C226.441 53.1113 226.863 53.0133 227.172 52.8174C227.482 52.6214 227.64 52.3617 227.644 52.0381ZM233.578 51.375L233.906 52.2705L236.162 46.6035H237.577L233.824 55.1416C233.738 55.333 233.626 55.5358 233.489 55.75C233.357 55.9642 233.195 56.1624 233.004 56.3447C232.812 56.527 232.589 56.6797 232.334 56.8027C232.079 56.9258 231.785 56.9873 231.452 56.9873C231.393 56.9873 231.327 56.9827 231.254 56.9736C231.181 56.9691 231.108 56.96 231.035 56.9463C230.962 56.9372 230.894 56.9258 230.83 56.9121C230.766 56.8984 230.714 56.887 230.673 56.8779L230.878 55.8457C230.91 55.8457 230.953 55.848 231.008 55.8525C231.062 55.8571 231.119 55.8617 231.179 55.8662C231.238 55.8708 231.295 55.873 231.349 55.873C231.404 55.8776 231.447 55.8799 231.479 55.8799C231.653 55.8799 231.81 55.832 231.951 55.7363C232.097 55.6406 232.224 55.5267 232.334 55.3945C232.448 55.2624 232.543 55.1257 232.621 54.9844C232.703 54.8431 232.767 54.7269 232.812 54.6357L233.318 53.6514L230.133 46.6035H231.548L233.578 51.375ZM243.901 52.0381C243.901 51.8877 243.871 51.7533 243.812 51.6348C243.752 51.5117 243.652 51.4001 243.511 51.2998C243.37 51.1995 243.183 51.1084 242.95 51.0264C242.718 50.9398 242.429 50.8623 242.082 50.7939C241.658 50.7074 241.271 50.6025 240.92 50.4795C240.574 50.3564 240.275 50.2106 240.025 50.042C239.778 49.8688 239.587 49.6683 239.45 49.4404C239.314 49.208 239.245 48.9391 239.245 48.6338C239.245 48.333 239.316 48.0527 239.457 47.793C239.598 47.5286 239.797 47.2985 240.052 47.1025C240.307 46.9066 240.61 46.7516 240.961 46.6377C241.317 46.5238 241.706 46.4668 242.13 46.4668C242.586 46.4668 242.996 46.526 243.361 46.6445C243.725 46.763 244.035 46.9271 244.29 47.1367C244.545 47.3464 244.741 47.5924 244.878 47.875C245.019 48.153 245.09 48.4538 245.09 48.7773H243.825C243.825 48.6178 243.784 48.4629 243.702 48.3125C243.62 48.1576 243.506 48.0208 243.361 47.9023C243.215 47.7839 243.037 47.6882 242.827 47.6152C242.622 47.5423 242.39 47.5059 242.13 47.5059C241.861 47.5059 241.624 47.5355 241.419 47.5947C241.219 47.654 241.05 47.7337 240.913 47.834C240.781 47.9342 240.681 48.0505 240.612 48.1826C240.544 48.3148 240.51 48.4515 240.51 48.5928C240.51 48.7386 240.537 48.8685 240.592 48.9824C240.647 49.0964 240.74 49.1989 240.872 49.29C241.009 49.3812 241.189 49.4632 241.412 49.5361C241.64 49.609 241.927 49.6797 242.274 49.748C242.729 49.8438 243.137 49.9554 243.497 50.083C243.857 50.2061 244.16 50.3564 244.406 50.5342C244.652 50.7074 244.839 50.9102 244.967 51.1426C245.099 51.375 245.165 51.6439 245.165 51.9492C245.165 52.2773 245.09 52.5758 244.94 52.8447C244.794 53.1136 244.589 53.3438 244.324 53.5352C244.06 53.7266 243.743 53.8747 243.374 53.9795C243.005 54.0843 242.602 54.1367 242.164 54.1367C241.663 54.1367 241.216 54.0706 240.824 53.9385C240.432 53.8018 240.1 53.624 239.826 53.4053C239.557 53.182 239.35 52.9245 239.204 52.6328C239.063 52.3411 238.992 52.0381 238.992 51.7236H240.257C240.275 51.9834 240.344 52.2021 240.462 52.3799C240.585 52.5576 240.736 52.7012 240.913 52.8105C241.096 52.9199 241.296 52.9974 241.515 53.043C241.734 53.0885 241.95 53.1113 242.164 53.1113C242.697 53.1113 243.119 53.0133 243.429 52.8174C243.739 52.6214 243.896 52.3617 243.901 52.0381ZM250.108 44.8125V46.6035H252.924V47.5811H250.108V51.6006C250.108 51.8877 250.144 52.1247 250.217 52.3115C250.29 52.4984 250.39 52.6488 250.518 52.7627C250.646 52.8721 250.791 52.9495 250.956 52.9951C251.124 53.0407 251.302 53.0635 251.489 53.0635C251.625 53.0635 251.767 53.0566 251.913 53.043C252.058 53.0247 252.2 53.0042 252.336 52.9814C252.478 52.9587 252.608 52.9359 252.726 52.9131C252.849 52.8857 252.949 52.863 253.027 52.8447L253.205 53.7402C253.1 53.804 252.972 53.861 252.822 53.9111C252.671 53.9567 252.507 53.9954 252.33 54.0273C252.152 54.0638 251.963 54.0911 251.762 54.1094C251.566 54.1276 251.37 54.1367 251.174 54.1367C250.846 54.1367 250.539 54.0911 250.251 54C249.969 53.9043 249.723 53.7562 249.513 53.5557C249.303 53.3506 249.137 53.0885 249.014 52.7695C248.896 52.446 248.836 52.0563 248.836 51.6006V47.5811H246.895V46.6035H248.836V44.8125H250.108ZM258.509 54.1367C257.99 54.1367 257.511 54.0479 257.074 53.8701C256.641 53.6924 256.27 53.444 255.96 53.125C255.65 52.806 255.408 52.4277 255.235 51.9902C255.062 51.5527 254.975 51.0765 254.975 50.5615V50.2744C254.975 49.6774 255.071 49.1442 255.262 48.6748C255.454 48.2008 255.707 47.8021 256.021 47.4785C256.34 47.1504 256.7 46.8997 257.101 46.7266C257.507 46.5534 257.922 46.4668 258.345 46.4668C258.879 46.4668 259.343 46.5602 259.74 46.7471C260.141 46.9294 260.474 47.1846 260.738 47.5127C261.002 47.8363 261.198 48.2191 261.326 48.6611C261.458 49.1032 261.524 49.5817 261.524 50.0967V50.6641H256.24C256.254 51.0013 256.317 51.318 256.431 51.6143C256.55 51.9105 256.709 52.1702 256.91 52.3936C257.115 52.6123 257.359 52.7855 257.641 52.9131C257.924 53.0407 258.236 53.1045 258.578 53.1045C259.029 53.1045 259.43 53.0133 259.781 52.8311C260.132 52.6488 260.424 52.4072 260.656 52.1064L261.428 52.708C261.305 52.8949 261.15 53.0749 260.964 53.248C260.781 53.4167 260.569 53.5671 260.328 53.6992C260.086 53.8314 259.813 53.9362 259.508 54.0137C259.202 54.0957 258.87 54.1367 258.509 54.1367ZM258.345 47.5059C258.09 47.5059 257.849 47.5537 257.621 47.6494C257.393 47.7406 257.188 47.8773 257.006 48.0596C256.823 48.2373 256.668 48.4583 256.541 48.7227C256.418 48.9824 256.331 49.2832 256.281 49.625H260.259V49.5293C260.246 49.2832 260.198 49.0394 260.116 48.7979C260.038 48.5563 259.922 48.3398 259.767 48.1484C259.612 47.957 259.416 47.8021 259.179 47.6836C258.947 47.5651 258.669 47.5059 258.345 47.5059ZM263.951 46.6035L263.985 47.3008C264.136 47.041 264.332 46.8382 264.573 46.6924C264.819 46.5465 265.116 46.4714 265.462 46.4668C266.141 46.4668 266.594 46.7311 266.822 47.2598C266.968 47.0228 267.16 46.8337 267.396 46.6924C267.638 46.5465 267.93 46.4714 268.271 46.4668C268.814 46.4668 269.231 46.6331 269.522 46.9658C269.814 47.2985 269.96 47.8021 269.96 48.4766V54H268.757V48.4629C268.757 47.8431 268.472 47.5355 267.902 47.54C267.752 47.54 267.622 47.5605 267.513 47.6016C267.403 47.6426 267.312 47.6995 267.239 47.7725C267.166 47.8408 267.109 47.9229 267.068 48.0186C267.027 48.1097 267 48.2054 266.986 48.3057V54H265.783V48.4561C265.783 48.1598 265.717 47.932 265.585 47.7725C265.453 47.613 265.243 47.5355 264.956 47.54C264.692 47.54 264.487 47.5924 264.341 47.6973C264.195 47.8021 264.088 47.9411 264.02 48.1143V54H262.816V46.6035H263.951ZM281.513 54V47.5811H279.476V46.6035H281.513V46.084C281.513 45.61 281.582 45.1953 281.718 44.8398C281.86 44.4798 282.056 44.179 282.306 43.9375C282.561 43.696 282.867 43.5137 283.222 43.3906C283.578 43.2676 283.974 43.2061 284.412 43.2061C284.712 43.2061 285.004 43.2311 285.287 43.2812C285.574 43.3314 285.868 43.3952 286.169 43.4727L286.018 44.5186C285.831 44.4548 285.613 44.4001 285.362 44.3545C285.116 44.3044 284.851 44.2793 284.569 44.2793C283.976 44.2839 283.53 44.4342 283.229 44.7305C282.933 45.0267 282.785 45.4779 282.785 46.084V46.6035H285.635V47.5811H282.785V54H281.513ZM287.399 50.2334C287.399 49.7002 287.477 49.2057 287.632 48.75C287.787 48.2897 288.008 47.891 288.295 47.5537C288.586 47.2165 288.94 46.9521 289.354 46.7607C289.769 46.5648 290.236 46.4668 290.756 46.4668C291.28 46.4668 291.749 46.5648 292.164 46.7607C292.583 46.9521 292.936 47.2165 293.223 47.5537C293.515 47.891 293.738 48.2897 293.893 48.75C294.048 49.2057 294.126 49.7002 294.126 50.2334V50.3838C294.126 50.917 294.048 51.4115 293.893 51.8672C293.738 52.3229 293.515 52.7194 293.223 53.0566C292.936 53.3939 292.585 53.6582 292.171 53.8496C291.756 54.041 291.289 54.1367 290.769 54.1367C290.245 54.1367 289.774 54.041 289.354 53.8496C288.94 53.6582 288.586 53.3939 288.295 53.0566C288.008 52.7194 287.787 52.3229 287.632 51.8672C287.477 51.4115 287.399 50.917 287.399 50.3838V50.2334ZM288.664 50.3838C288.664 50.7484 288.707 51.097 288.794 51.4297C288.88 51.7578 289.01 52.0472 289.183 52.2979C289.361 52.5485 289.582 52.7467 289.847 52.8926C290.111 53.0384 290.418 53.1113 290.769 53.1113C291.116 53.1113 291.419 53.0384 291.679 52.8926C291.943 52.7467 292.162 52.5485 292.335 52.2979C292.513 52.0472 292.645 51.7578 292.731 51.4297C292.818 51.097 292.861 50.7484 292.861 50.3838V50.2334C292.861 49.8734 292.816 49.5293 292.724 49.2012C292.638 48.8685 292.506 48.5768 292.328 48.3262C292.155 48.0755 291.936 47.8773 291.672 47.7314C291.412 47.5811 291.107 47.5059 290.756 47.5059C290.405 47.5059 290.099 47.5811 289.84 47.7314C289.58 47.8773 289.361 48.0755 289.183 48.3262C289.01 48.5768 288.88 48.8685 288.794 49.2012C288.707 49.5293 288.664 49.8734 288.664 50.2334V50.3838ZM300.73 46.4668C300.848 46.4668 300.971 46.4714 301.099 46.4805C301.226 46.485 301.347 46.4964 301.461 46.5146C301.58 46.5283 301.687 46.5465 301.782 46.5693C301.883 46.5921 301.965 46.6172 302.028 46.6445L301.858 47.8818C301.611 47.8271 301.377 47.7884 301.153 47.7656C300.935 47.7383 300.705 47.7246 300.463 47.7246C299.871 47.7246 299.39 47.859 299.021 48.1279C298.656 48.3968 298.387 48.7728 298.214 49.2559V54H296.943V46.6035H298.146L298.207 47.7793C298.508 47.3737 298.868 47.0547 299.287 46.8223C299.711 46.5853 300.192 46.4668 300.73 46.4668ZM60.7461 69.6035L60.7803 70.3008C60.9307 70.041 61.1266 69.8382 61.3682 69.6924C61.6143 69.5465 61.9105 69.4714 62.2568 69.4668C62.9359 69.4668 63.3893 69.7311 63.6172 70.2598C63.763 70.0228 63.9544 69.8337 64.1914 69.6924C64.4329 69.5465 64.7246 69.4714 65.0664 69.4668C65.6087 69.4668 66.0257 69.6331 66.3174 69.9658C66.609 70.2985 66.7549 70.8021 66.7549 71.4766V77H65.5518V71.4629C65.5518 70.8431 65.2669 70.5355 64.6973 70.54C64.5469 70.54 64.417 70.5605 64.3076 70.6016C64.1982 70.6426 64.1071 70.6995 64.0342 70.7725C63.9613 70.8408 63.9043 70.9229 63.8633 71.0186C63.8223 71.1097 63.7949 71.2054 63.7812 71.3057V77H62.5781V71.4561C62.5781 71.1598 62.512 70.932 62.3799 70.7725C62.2477 70.613 62.0381 70.5355 61.751 70.54C61.4867 70.54 61.2816 70.5924 61.1357 70.6973C60.9899 70.8021 60.8828 70.9411 60.8145 71.1143V77H59.6113V69.6035H60.7461ZM71.0139 74.375L71.3421 75.2705L73.5979 69.6035H75.013L71.26 78.1416C71.1735 78.333 71.0618 78.5358 70.9251 78.75C70.7929 78.9642 70.6311 79.1624 70.4397 79.3447C70.2483 79.527 70.025 79.6797 69.7698 79.8027C69.5146 79.9258 69.2207 79.9873 68.888 79.9873C68.8287 79.9873 68.7626 79.9827 68.6897 79.9736C68.6168 79.9691 68.5439 79.96 68.471 79.9463C68.3981 79.9372 68.3297 79.9258 68.2659 79.9121C68.2021 79.8984 68.1497 79.887 68.1087 79.8779L68.3138 78.8457C68.3457 78.8457 68.3889 78.848 68.4436 78.8525C68.4983 78.8571 68.5553 78.8617 68.6145 78.8662C68.6738 78.8708 68.7307 78.873 68.7854 78.873C68.8401 78.8776 68.8834 78.8799 68.9153 78.8799C69.0885 78.8799 69.2457 78.832 69.387 78.7363C69.5328 78.6406 69.6604 78.5267 69.7698 78.3945C69.8837 78.2624 69.9794 78.1257 70.0569 77.9844C70.1389 77.8431 70.2027 77.7269 70.2483 77.6357L70.7542 76.6514L67.5686 69.6035H68.9837L71.0139 74.375ZM84.1942 73.2334C84.1942 72.7002 84.2717 72.2057 84.4266 71.75C84.5815 71.2897 84.8026 70.891 85.0897 70.5537C85.3814 70.2165 85.7345 69.9521 86.1493 69.7607C86.564 69.5648 87.0311 69.4668 87.5506 69.4668C88.0747 69.4668 88.5441 69.5648 88.9588 69.7607C89.3781 69.9521 89.7313 70.2165 90.0184 70.5537C90.3101 70.891 90.5334 71.2897 90.6883 71.75C90.8433 72.2057 90.9207 72.7002 90.9207 73.2334V73.3838C90.9207 73.917 90.8433 74.4115 90.6883 74.8672C90.5334 75.3229 90.3101 75.7194 90.0184 76.0566C89.7313 76.3939 89.3804 76.6582 88.9657 76.8496C88.551 77.041 88.0838 77.1367 87.5643 77.1367C87.0402 77.1367 86.5685 77.041 86.1493 76.8496C85.7345 76.6582 85.3814 76.3939 85.0897 76.0566C84.8026 75.7194 84.5815 75.3229 84.4266 74.8672C84.2717 74.4115 84.1942 73.917 84.1942 73.3838V73.2334ZM85.4588 73.3838C85.4588 73.7484 85.5021 74.097 85.5887 74.4297C85.6753 74.7578 85.8052 75.0472 85.9784 75.2979C86.1561 75.5485 86.3771 75.7467 86.6414 75.8926C86.9058 76.0384 87.2134 76.1113 87.5643 76.1113C87.9107 76.1113 88.2137 76.0384 88.4735 75.8926C88.7378 75.7467 88.9565 75.5485 89.1297 75.2979C89.3075 75.0472 89.4396 74.7578 89.5262 74.4297C89.6128 74.097 89.6561 73.7484 89.6561 73.3838V73.2334C89.6561 72.8734 89.6105 72.5293 89.5194 72.2012C89.4328 71.8685 89.3006 71.5768 89.1229 71.3262C88.9497 71.0755 88.731 70.8773 88.4666 70.7314C88.2069 70.5811 87.9015 70.5059 87.5506 70.5059C87.1997 70.5059 86.8944 70.5811 86.6346 70.7314C86.3748 70.8773 86.1561 71.0755 85.9784 71.3262C85.8052 71.5768 85.6753 71.8685 85.5887 72.2012C85.5021 72.5293 85.4588 72.8734 85.4588 73.2334V73.3838ZM93.8126 69.6035L93.9015 70.6973C94.1704 70.3145 94.5008 70.016 94.8927 69.8018C95.2846 69.583 95.7221 69.4714 96.2052 69.4668C96.5926 69.4668 96.9435 69.5215 97.2579 69.6309C97.5769 69.7402 97.8481 69.9111 98.0714 70.1436C98.2947 70.376 98.4656 70.6722 98.5841 71.0322C98.7071 71.3877 98.7687 71.8115 98.7687 72.3037V77H97.504V72.3311C97.504 72.0029 97.4676 71.7249 97.3946 71.4971C97.3217 71.2692 97.2124 71.0846 97.0665 70.9434C96.9252 70.8021 96.7498 70.6995 96.5402 70.6357C96.3351 70.5719 96.0981 70.54 95.8292 70.54C95.4054 70.54 95.0317 70.6471 94.7081 70.8613C94.3891 71.071 94.1339 71.349 93.9425 71.6953V77H92.6779V69.6035H93.8126ZM101.004 66.5H104.785V75.9062H107.198V77H101.004V75.9062H103.52V67.6006H101.004V66.5ZM109.132 69.6035H112.913V75.9062H115.326V77H109.132V75.9062H111.648V70.7041H109.132V69.6035ZM111.484 67.6621C111.484 67.4525 111.546 67.277 111.669 67.1357C111.796 66.9899 111.988 66.917 112.243 66.917C112.494 66.917 112.683 66.9899 112.81 67.1357C112.938 67.277 113.002 67.4525 113.002 67.6621C113.002 67.8672 112.938 68.0381 112.81 68.1748C112.683 68.3115 112.494 68.3799 112.243 68.3799C111.988 68.3799 111.796 68.3115 111.669 68.1748C111.546 68.0381 111.484 67.8672 111.484 67.6621ZM118.197 69.6035L118.286 70.6973C118.555 70.3145 118.885 70.016 119.277 69.8018C119.669 69.583 120.107 69.4714 120.59 69.4668C120.977 69.4668 121.328 69.5215 121.643 69.6309C121.962 69.7402 122.233 69.9111 122.456 70.1436C122.679 70.376 122.85 70.6722 122.969 71.0322C123.092 71.3877 123.153 71.8115 123.153 72.3037V77H121.889V72.3311C121.889 72.0029 121.852 71.7249 121.779 71.4971C121.706 71.2692 121.597 71.0846 121.451 70.9434C121.31 70.8021 121.134 70.6995 120.925 70.6357C120.72 70.5719 120.483 70.54 120.214 70.54C119.79 70.54 119.416 70.6471 119.093 70.8613C118.774 71.071 118.519 71.349 118.327 71.6953V77H117.062V69.6035H118.197ZM128.458 77.1367C127.939 77.1367 127.46 77.0479 127.023 76.8701C126.59 76.6924 126.218 76.444 125.908 76.125C125.599 75.806 125.357 75.4277 125.184 74.9902C125.011 74.5527 124.924 74.0765 124.924 73.5615V73.2744C124.924 72.6774 125.02 72.1442 125.211 71.6748C125.403 71.2008 125.656 70.8021 125.97 70.4785C126.289 70.1504 126.649 69.8997 127.05 69.7266C127.456 69.5534 127.87 69.4668 128.294 69.4668C128.827 69.4668 129.292 69.5602 129.689 69.7471C130.09 69.9294 130.422 70.1846 130.687 70.5127C130.951 70.8363 131.147 71.2191 131.275 71.6611C131.407 72.1032 131.473 72.5817 131.473 73.0967V73.6641H126.189C126.202 74.0013 126.266 74.318 126.38 74.6143C126.499 74.9105 126.658 75.1702 126.859 75.3936C127.064 75.6123 127.308 75.7855 127.59 75.9131C127.873 76.0407 128.185 76.1045 128.527 76.1045C128.978 76.1045 129.379 76.0133 129.73 75.8311C130.081 75.6488 130.372 75.4072 130.605 75.1064L131.377 75.708C131.254 75.8949 131.099 76.0749 130.912 76.248C130.73 76.4167 130.518 76.5671 130.277 76.6992C130.035 76.8314 129.762 76.9362 129.456 77.0137C129.151 77.0957 128.818 77.1367 128.458 77.1367ZM128.294 70.5059C128.039 70.5059 127.797 70.5537 127.57 70.6494C127.342 70.7406 127.137 70.8773 126.954 71.0596C126.772 71.2373 126.617 71.4583 126.489 71.7227C126.366 71.9824 126.28 72.2832 126.23 72.625H130.208V72.5293C130.195 72.2832 130.147 72.0394 130.065 71.7979C129.987 71.5563 129.871 71.3398 129.716 71.1484C129.561 70.957 129.365 70.8021 129.128 70.6836C128.896 70.5651 128.618 70.5059 128.294 70.5059ZM142.028 69.6035L142.062 70.3008C142.213 70.041 142.409 69.8382 142.65 69.6924C142.896 69.5465 143.193 69.4714 143.539 69.4668C144.218 69.4668 144.671 69.7311 144.899 70.2598C145.045 70.0228 145.236 69.8337 145.473 69.6924C145.715 69.5465 146.007 69.4714 146.348 69.4668C146.891 69.4668 147.308 69.6331 147.599 69.9658C147.891 70.2985 148.037 70.8021 148.037 71.4766V77H146.834V71.4629C146.834 70.8431 146.549 70.5355 145.979 70.54C145.829 70.54 145.699 70.5605 145.59 70.6016C145.48 70.6426 145.389 70.6995 145.316 70.7725C145.243 70.8408 145.186 70.9229 145.145 71.0186C145.104 71.1097 145.077 71.2054 145.063 71.3057V77H143.86V71.4561C143.86 71.1598 143.794 70.932 143.662 70.7725C143.53 70.613 143.32 70.5355 143.033 70.54C142.769 70.54 142.564 70.5924 142.418 70.6973C142.272 70.8021 142.165 70.9411 142.096 71.1143V77H140.893V69.6035H142.028ZM154.436 77C154.385 76.9043 154.344 76.7858 154.313 76.6445C154.285 76.4987 154.265 76.3483 154.251 76.1934C154.123 76.321 153.98 76.4417 153.82 76.5557C153.665 76.6696 153.492 76.7699 153.301 76.8564C153.114 76.943 152.913 77.0114 152.699 77.0615C152.485 77.1117 152.257 77.1367 152.016 77.1367C151.624 77.1367 151.268 77.0798 150.949 76.9658C150.635 76.8519 150.366 76.6992 150.143 76.5078C149.924 76.3118 149.753 76.0817 149.63 75.8174C149.511 75.5485 149.452 75.2591 149.452 74.9492C149.452 74.5436 149.532 74.1882 149.691 73.8828C149.856 73.5775 150.086 73.3245 150.382 73.124C150.678 72.9189 151.034 72.7663 151.448 72.666C151.868 72.5658 152.335 72.5156 152.85 72.5156H154.231V71.9346C154.231 71.7113 154.19 71.5107 154.107 71.333C154.025 71.1553 153.909 71.0049 153.759 70.8818C153.608 70.7542 153.424 70.6562 153.205 70.5879C152.991 70.5195 152.749 70.4854 152.481 70.4854C152.23 70.4854 152.004 70.5173 151.804 70.5811C151.608 70.6449 151.441 70.7292 151.305 70.834C151.168 70.9388 151.061 71.0641 150.983 71.21C150.911 71.3512 150.874 71.4993 150.874 71.6543H149.603C149.607 71.3854 149.676 71.1211 149.808 70.8613C149.944 70.6016 150.138 70.3691 150.389 70.1641C150.644 69.9544 150.952 69.7858 151.312 69.6582C151.676 69.5306 152.089 69.4668 152.549 69.4668C152.968 69.4668 153.358 69.5192 153.718 69.624C154.078 69.7243 154.388 69.8792 154.648 70.0889C154.912 70.2939 155.119 70.5514 155.27 70.8613C155.42 71.1712 155.495 71.5335 155.495 71.9482V75.3867C155.495 75.6328 155.518 75.8949 155.564 76.1729C155.609 76.4463 155.673 76.6855 155.755 76.8906V77H154.436ZM152.2 76.0361C152.446 76.0361 152.677 76.0042 152.891 75.9404C153.105 75.8766 153.299 75.7923 153.472 75.6875C153.649 75.5827 153.802 75.4642 153.93 75.332C154.057 75.1953 154.158 75.054 154.231 74.9082V73.4111H153.055C152.316 73.4111 151.742 73.5205 151.332 73.7393C150.922 73.958 150.717 74.3021 150.717 74.7715C150.717 74.9538 150.746 75.1224 150.806 75.2773C150.87 75.4323 150.963 75.5667 151.086 75.6807C151.209 75.79 151.364 75.8766 151.551 75.9404C151.738 76.0042 151.954 76.0361 152.2 76.0361ZM162.55 69.4668C162.669 69.4668 162.792 69.4714 162.919 69.4805C163.047 69.485 163.168 69.4964 163.282 69.5146C163.4 69.5283 163.507 69.5465 163.603 69.5693C163.703 69.5921 163.785 69.6172 163.849 69.6445L163.678 70.8818C163.432 70.8271 163.197 70.7884 162.974 70.7656C162.755 70.7383 162.525 70.7246 162.284 70.7246C161.691 70.7246 161.21 70.859 160.841 71.1279C160.477 71.3968 160.208 71.7728 160.035 72.2559V77H158.763V69.6035H159.966L160.028 70.7793C160.328 70.3737 160.689 70.0547 161.108 69.8223C161.532 69.5853 162.012 69.4668 162.55 69.4668ZM168.047 73.5479L167.117 74.4434V77H165.845V66.5H167.117V72.9258L167.944 72.0371L170.371 69.6035H171.909L168.915 72.6865L172.367 77H170.76L168.047 73.5479ZM177.227 77.1367C176.708 77.1367 176.229 77.0479 175.792 76.8701C175.359 76.6924 174.988 76.444 174.678 76.125C174.368 75.806 174.126 75.4277 173.953 74.9902C173.78 74.5527 173.693 74.0765 173.693 73.5615V73.2744C173.693 72.6774 173.789 72.1442 173.98 71.6748C174.172 71.2008 174.425 70.8021 174.739 70.4785C175.058 70.1504 175.418 69.8997 175.819 69.7266C176.225 69.5534 176.64 69.4668 177.063 69.4668C177.597 69.4668 178.061 69.5602 178.458 69.7471C178.859 69.9294 179.192 70.1846 179.456 70.5127C179.72 70.8363 179.916 71.2191 180.044 71.6611C180.176 72.1032 180.242 72.5817 180.242 73.0967V73.6641H174.958C174.972 74.0013 175.035 74.318 175.149 74.6143C175.268 74.9105 175.427 75.1702 175.628 75.3936C175.833 75.6123 176.077 75.7855 176.359 75.9131C176.642 76.0407 176.954 76.1045 177.296 76.1045C177.747 76.1045 178.148 76.0133 178.499 75.8311C178.85 75.6488 179.142 75.4072 179.374 75.1064L180.146 75.708C180.023 75.8949 179.868 76.0749 179.682 76.248C179.499 76.4167 179.287 76.5671 179.046 76.6992C178.804 76.8314 178.531 76.9362 178.226 77.0137C177.92 77.0957 177.587 77.1367 177.227 77.1367ZM177.063 70.5059C176.808 70.5059 176.567 70.5537 176.339 70.6494C176.111 70.7406 175.906 70.8773 175.724 71.0596C175.541 71.2373 175.386 71.4583 175.259 71.7227C175.136 71.9824 175.049 72.2832 174.999 72.625H178.977V72.5293C178.964 72.2832 178.916 72.0394 178.834 71.7979C178.756 71.5563 178.64 71.3398 178.485 71.1484C178.33 70.957 178.134 70.8021 177.897 70.6836C177.665 70.5651 177.387 70.5059 177.063 70.5059ZM185.082 67.8125V69.6035H187.899V70.5811H185.082V74.6006C185.082 74.8877 185.119 75.1247 185.192 75.3115C185.265 75.4984 185.365 75.6488 185.492 75.7627C185.62 75.8721 185.766 75.9495 185.93 75.9951C186.099 76.0407 186.276 76.0635 186.463 76.0635C186.6 76.0635 186.741 76.0566 186.887 76.043C187.033 76.0247 187.174 76.0042 187.311 75.9814C187.452 75.9587 187.582 75.9359 187.7 75.9131C187.823 75.8857 187.924 75.863 188.001 75.8447L188.179 76.7402C188.074 76.804 187.946 76.861 187.796 76.9111C187.646 76.9567 187.482 76.9954 187.304 77.0273C187.126 77.0638 186.937 77.0911 186.737 77.1094C186.541 77.1276 186.345 77.1367 186.149 77.1367C185.821 77.1367 185.513 77.0911 185.226 77C184.943 76.9043 184.697 76.7562 184.488 76.5557C184.278 76.3506 184.112 76.0885 183.988 75.7695C183.87 75.446 183.811 75.0563 183.811 74.6006V70.5811H181.869V69.6035H183.811V67.8125H185.082Z" fill="#696974"/>
</svg>
