<svg width="350" height="199" viewBox="0 0 350 199" fill="none" xmlns="http://www.w3.org/2000/svg">
<path d="M10 21.4355H319C324.385 21.4355 328.75 25.8008 328.75 31.1855V119.031L323.364 160.647C323.288 161.239 323.263 161.837 323.29 162.433L324.325 184.942C324.559 190.033 320.833 194.446 315.774 195.067L289.485 198.297H251.509L146.363 190.995C145.786 190.955 145.207 190.964 144.631 191.021L72.982 198.198C72.3291 198.263 71.6713 198.262 71.0185 198.196L9.99049 191.956C4.62721 191.407 0.727001 186.61 1.2845 181.248L7.61561 120.352C7.70607 119.482 7.68478 118.604 7.55224 117.739L0.36255 70.8317C0.287625 70.3429 0.25 69.8491 0.25 69.3545V31.1855C0.25 25.8008 4.61522 21.4355 10 21.4355Z" fill="white" stroke="#E9E9ED" stroke-width="0.5"/>
<g opacity="0.7">
<path d="M47.3232 114.977L46.9868 115.085L47.3232 115.199L51.208 116.697V117.941L45.8252 115.536V114.609L51.208 112.209V113.454L47.3232 114.977ZM100.529 113.416V112.203L106.134 114.603V115.529L100.529 117.935V116.716L104.636 115.167L105.017 115.06L104.636 114.939L100.529 113.416ZM195.668 114.977L195.332 115.085L195.668 115.199L199.553 116.697V117.941L194.17 115.536V114.609L199.553 112.209V113.454L195.668 114.977ZM248.874 113.416V112.203L254.479 114.603V115.529L248.874 117.935V116.716L252.981 115.167L253.362 115.06L252.981 114.939L248.874 113.416Z" fill="#D81159"/>
<path d="M23.0923 60.9771L22.7559 61.085L23.0923 61.1992L26.9771 62.6973V63.9414L21.5942 61.5356V60.6089L26.9771 58.2095V59.4536L23.0923 60.9771ZM76.2983 59.4155V58.2031L81.9033 60.6025V61.5293L76.2983 63.9351V62.7163L80.4053 61.1675L80.7861 61.0596L80.4053 60.939L76.2983 59.4155Z" fill="#D81159"/>
<path d="M23.0923 87.9771L22.7559 88.085L23.0923 88.1992L26.9771 89.6973V90.9414L21.5942 88.5356V87.6089L26.9771 85.2095V86.4536L23.0923 87.9771ZM76.2983 86.4155V85.2031L81.9033 87.6025V88.5293L76.2983 90.9351V89.7163L80.4053 88.1675L80.7861 88.0596L80.4053 87.939L76.2983 86.4155Z" fill="#D81159"/>
<path d="M47.5771 142.339L47.2407 142.447L47.5771 142.561L51.4619 144.059V145.303L46.0791 142.897V141.971L51.4619 139.571V140.815L47.5771 142.339ZM85.168 140.777V139.565L90.7729 141.964V142.891L85.168 145.297V144.078L89.2749 142.529L89.6558 142.421L89.2749 142.301L85.168 140.777Z" fill="#D81159"/>
<path d="M203.577 142.339L203.241 142.447L203.577 142.561L207.462 144.059V145.303L202.079 142.897V141.971L207.462 139.571V140.815L203.577 142.339ZM241.168 140.777V139.565L246.773 141.964V142.891L241.168 145.297V144.078L245.275 142.529L245.656 142.421L245.275 142.301L241.168 140.777Z" fill="#D81159"/>
<path d="M23.0923 169.339L22.7559 169.447L23.0923 169.561L26.9771 171.059V172.303L21.5942 169.897V168.971L26.9771 166.571V167.815L23.0923 169.339ZM76.2983 167.777V166.565L81.9033 168.964V169.891L76.2983 172.297V171.078L80.4053 169.529L80.7861 169.421L80.4053 169.301L76.2983 167.777Z" fill="#D81159"/>
</g>
<path d="M0 21.1855H329V41.1855H0V21.1855Z" fill="#191919"/>
<circle cx="10" cy="31.1855" r="3" fill="#EB5757"/>
<circle cx="22" cy="31.1855" r="3" fill="#F2C94C"/>
<circle cx="34" cy="31.1855" r="3" fill="#219653"/>
<rect x="32" y="60.5474" width="38" height="3" fill="#D81159"/>
<rect x="32" y="87.5474" width="38" height="3" fill="#D81159"/>
<rect x="56.4849" y="141.909" width="22" height="3" fill="#D81159"/>
<rect x="212.485" y="141.909" width="22" height="3" fill="#D81159"/>
<rect x="32" y="168.909" width="38" height="3" fill="#D81159"/>
<rect x="57" y="114.547" width="38" height="3" fill="#D81159"/>
<rect x="205" y="114.547" width="38" height="3" fill="#D81159"/>
<rect opacity="0.4" x="117" y="114.547" width="70" height="3" fill="#B1B1B8"/>
<rect opacity="0.4" x="98" y="141.547" width="97" height="3" fill="#B1B1B8"/>
<circle cx="329" cy="21.5474" r="20" fill="#1371FD" stroke="#FBFBFB" stroke-width="2"/>
<path d="M334.333 17.5474L327 24.8807L323.667 21.5474" stroke="white" stroke-width="2" stroke-linejoin="round"/>
</svg>
