<svg width="116" height="32" viewBox="0 0 116 32" fill="none" xmlns="http://www.w3.org/2000/svg">
<path d="M5.03119 13.2282L4.94416 13.379C4.91395 13.4396 4.88768 13.5027 4.866 13.5678C4.88768 13.5025 4.91395 13.4395 4.94432 13.3786L0.351383 21.3314L0.0793078 21.8029C0.0279139 21.9509 0 22.1105 0 22.2759C0 22.4412 0.0277499 22.6003 0.0789796 22.7484L0.352205 23.2214C0.61722 23.5278 1.00883 23.7214 1.44576 23.7214C2.24409 23.7214 2.89136 23.0742 2.89136 22.2759C2.89136 23.0742 2.24409 23.7214 1.44576 23.7214C1.00883 23.7214 0.61722 23.5278 0.352205 23.2214L4.89178 31.0821C4.82758 30.9186 4.79261 30.7408 4.79261 30.5548C4.79261 30.7408 4.82758 30.9184 4.89178 31.0817L5.10754 31.4555C5.37239 31.7873 5.78042 32 6.23837 32C6.69665 32 7.10533 31.7869 7.37035 31.454L7.58446 31.0836C7.64866 30.9197 7.68397 30.7413 7.68397 30.5548C7.68397 30.7413 7.64866 30.9197 7.58446 31.0836L12.6707 22.2758L7.53455 13.383C7.63027 13.576 7.68397 13.7937 7.68397 14.0238C7.68397 13.7937 7.63027 13.576 7.53455 13.383L7.44276 13.2243C7.18382 12.8352 6.74081 12.5785 6.23837 12.5785C5.73395 12.5785 5.2898 12.8367 5.03119 13.2282ZM4.79261 14.0238C4.79261 14.0189 4.79261 14.014 4.79261 14.0089C4.79261 14.014 4.79261 14.0189 4.79261 14.0238Z" fill="url(#paint0_linear)"/>
<path d="M24.6136 -3.8147e-06H15.258H15.0675C14.3135 0.0490761 13.7172 0.67613 13.7172 1.44222C13.7172 1.6474 13.7599 1.84241 13.8369 2.01904L13.9986 2.2994L19.1032 11.138L12.6709 22.2758H24.7816C25.2299 22.2539 25.6246 22.0279 25.8747 21.6888L26.0356 21.4102L31.4735 11.9941L31.4613 12.0105L31.4735 11.9941L31.6339 11.7163C31.7114 11.5392 31.7544 11.3434 31.7544 11.138C31.7544 10.9324 31.7114 10.7365 31.6339 10.5594L31.4736 10.282L26.0338 0.862934L26.0339 0.863255L25.8745 0.586994C25.6289 0.252949 25.2433 0.0285587 24.8041 -3.8147e-06H24.6136Z" fill="url(#paint1_linear)"/>
<path d="M12.6709 22.2758H24.7816C25.0156 22.2644 25.235 22.1975 25.4268 22.0876L19.1032 11.138L12.6709 22.2758Z" fill="url(#paint2_linear)"/>
<path d="M41.1379 14.4736H45.7087C47.4776 14.4736 48.8431 14.0166 49.814 13.0984C50.7849 12.1194 51.2681 10.8092 51.2681 9.16275C51.2681 7.42769 50.7671 6.10103 49.7606 5.18278C48.7943 4.2972 47.3535 3.85629 45.4516 3.85629H39.3201C38.8016 3.85629 38.3582 4.03012 37.9945 4.37796C37.631 4.72579 37.4492 5.13436 37.4492 5.6076V20.3505H41.1379V14.4736ZM41.1911 11.4886V6.69952H44.9816C46.7152 6.69952 47.5796 7.50451 47.5796 9.11843C47.5796 10.7282 46.644 11.5168 44.7733 11.4886H41.1911ZM52.9306 20.3505H56.5175V13.6686C56.5175 11.8041 57.5019 10.8696 59.479 10.8696H60.6714V7.50451H60.153C55.4402 7.50451 53.0326 9.57542 52.9306 13.7131V20.3505ZM70.4383 13.9032V15.0884C70.4383 16.0065 70.1633 16.7184 69.6091 17.2238C69.0197 17.7294 68.2394 17.9805 67.2685 17.9805C66.16 17.9805 65.5705 17.4746 65.5039 16.4638C65.5039 15.517 66.2135 14.9144 67.6319 14.6637C68.6737 14.4736 69.6091 14.2189 70.4383 13.9032ZM71.2716 19.7803C73.0008 18.9267 73.8699 17.4101 73.8699 15.2299V10.8696C73.7986 8.49942 71.8258 7.31442 67.9466 7.31442C64.6881 7.31442 62.8527 8.49942 62.4358 10.8696H65.9694C66.1421 10.2711 66.8516 9.97184 68.1021 9.97184C69.5561 9.97184 70.3186 10.3318 70.385 11.0598C70.385 11.7555 69.6226 12.1801 68.1021 12.342C65.9516 12.5281 64.4133 12.9567 63.478 13.6201C62.5422 14.2836 62.0547 15.2622 62.0239 16.5564C62.0239 18.2353 62.7508 19.404 64.2047 20.0674C65.1758 20.5081 66.3506 20.6821 67.7384 20.5889C69.1571 20.492 70.3364 20.2251 71.2716 19.7803ZM85.3476 16.415C84.9 16.415 84.5007 16.5728 84.1551 16.8922C83.5656 17.4909 82.8561 17.7903 82.0226 17.7903C80.0498 17.8225 79.0612 16.5564 79.0612 14.0002C79.0612 11.44 79.9966 10.1578 81.8675 10.1578C82.9758 10.1578 83.7382 10.6027 84.1551 11.4886H87.9989C87.3738 8.70576 85.3652 7.31442 81.9693 7.31442C77.6423 7.3791 75.4792 9.60759 75.4792 14.0002C75.5808 18.4211 77.762 20.6337 82.0226 20.6337C83.5477 20.6657 84.8646 20.3018 85.9729 19.5457C86.9745 18.8824 87.653 17.8387 87.9989 16.415H85.3476ZM95.531 20.2089V17.7417H94.4406C93.7488 17.7417 93.4032 17.4746 93.4032 16.9367V9.82624H93.7667C94.2501 9.82624 94.6665 9.67654 95.0125 9.37713C95.3583 9.07805 95.531 8.68967 95.531 8.21643V7.50451H93.4032V5.4661C93.4032 5.02503 93.2301 4.64503 92.8845 4.32969C92.5387 4.01404 92.1395 3.85629 91.6873 3.85629H89.8696V17.8873C89.8343 19.307 90.486 20.0754 91.816 20.1846C93.1505 20.294 94.3872 20.3018 95.531 20.2089ZM97.5569 3.85629V6.3681H101.091V5.42145C101.126 4.37795 100.554 3.85629 99.3749 3.85629H97.5569ZM97.5569 7.50451V20.3505H101.091V9.06968C101.091 8.02634 100.519 7.50451 99.3749 7.50451H97.5569ZM112.467 23.7642C112.467 24.8361 113.056 25.3741 114.236 25.3741H116V13.0984C115.827 9.27617 113.628 7.36318 109.403 7.36318C105.041 7.36318 102.855 9.52667 102.855 13.8589C102.855 18.2189 104.726 20.4597 108.468 20.5889C110.232 20.5889 111.567 19.9259 112.467 18.5953V23.7642ZM106.495 14.0002C106.495 11.4077 107.497 10.1135 109.505 10.1135C111.513 10.1135 112.502 11.4077 112.467 14.0002C112.365 16.4638 111.358 17.697 109.456 17.697C107.55 17.697 106.561 16.4638 106.495 14.0002Z" fill="#293743"/>
<defs>
<linearGradient id="paint0_linear" x1="2.53775" y1="26.874" x2="10.0562" y2="17.7917" gradientUnits="userSpaceOnUse">
<stop stop-color="#1296FC"/>
<stop offset="0.998991" stop-color="#4158FF"/>
<stop offset="1" stop-color="#4158FF"/>
</linearGradient>
<linearGradient id="paint1_linear" x1="14.2245" y1="0.969376" x2="27.4066" y2="17.7594" gradientUnits="userSpaceOnUse">
<stop stop-color="#1296FC"/>
<stop offset="0.998991" stop-color="#4158FF"/>
<stop offset="1" stop-color="#4158FF"/>
</linearGradient>
<linearGradient id="paint2_linear" x1="12.876" y1="22.4945" x2="29.5627" y2="6.83993" gradientUnits="userSpaceOnUse">
<stop stop-color="#004080"/>
<stop offset="0.998472" stop-color="#4158FF"/>
<stop offset="1" stop-color="#4158FF"/>
</linearGradient>
</defs>
</svg>
