<svg width="96" height="27" viewBox="0 0 96 27" fill="none" xmlns="http://www.w3.org/2000/svg">
<path d="M4.16374 10.9475L4.09172 11.0724C4.06672 11.1225 4.04497 11.1746 4.02704 11.2286C4.04497 11.1745 4.06671 11.1223 4.09185 11.0719L0.2908 17.6536L0.065634 18.0438C0.0231012 18.1663 0 18.2984 0 18.4353C0 18.5721 0.0229654 18.7037 0.0653624 18.8263L0.29148 19.2178C0.510803 19.4713 0.834896 19.6316 1.19649 19.6316C1.85718 19.6316 2.39285 19.0959 2.39285 18.4353C2.39285 19.0959 1.85718 19.6316 1.19649 19.6316C0.834896 19.6316 0.510803 19.4713 0.29148 19.2178L4.04837 25.7231C3.99524 25.5878 3.96629 25.4407 3.96629 25.2868C3.96629 25.4407 3.99524 25.5877 4.04837 25.7229L4.22693 26.0322C4.44611 26.3067 4.7838 26.4828 5.16279 26.4828C5.54205 26.4828 5.88027 26.3065 6.0996 26.031L6.2768 25.7243C6.32993 25.5888 6.35914 25.4411 6.35914 25.2868C6.35914 25.4411 6.32993 25.5888 6.2768 25.7243L10.4861 18.4352L6.23549 11.0756C6.31471 11.2354 6.35914 11.4155 6.35914 11.606C6.35914 11.4155 6.31471 11.2354 6.23549 11.0756L6.15952 10.9442C5.94523 10.6223 5.5786 10.4098 5.16279 10.4098C4.74534 10.4098 4.37776 10.6235 4.16374 10.9475ZM3.96629 11.606C3.96629 11.6019 3.96629 11.5978 3.96629 11.5936C3.96629 11.5978 3.96629 11.6019 3.96629 11.606Z" fill="#FEFFFF"/>
<path d="M20.37 1.14441e-05H12.6274H12.4697C11.8457 0.0406303 11.3522 0.55957 11.3522 1.19357C11.3522 1.36338 11.3875 1.52477 11.4513 1.67094L11.5851 1.90297L15.8096 9.2177L10.4863 18.4351H20.509C20.88 18.4171 21.2066 18.23 21.4136 17.9493L21.5468 17.7188L26.0471 9.92615L26.037 9.93974L26.0471 9.92615L26.1798 9.69629C26.244 9.54971 26.2796 9.38765 26.2796 9.2177C26.2796 9.04749 26.244 8.88542 26.1798 8.73884L26.0472 8.50925L21.5453 0.714167L21.5454 0.714432L21.4135 0.485802C21.2102 0.209351 20.8911 0.0236492 20.5276 1.14441e-05H20.37Z" fill="#FEFFFF"/>
<path d="M10.4863 18.4351H20.509C20.7026 18.4257 20.8842 18.3703 21.0429 18.2794L15.8096 9.2177L10.4863 18.4351Z" fill="#DFE0E1"/>
<path d="M34.0449 11.9782H37.8276C39.2915 11.9782 40.4216 11.6 41.2251 10.8401C42.0286 10.0299 42.4285 8.94556 42.4285 7.583C42.4285 6.14709 42.0139 5.04917 41.1809 4.28924C40.3812 3.55634 39.1888 3.19145 37.6148 3.19145H32.5405C32.1114 3.19145 31.7445 3.33531 31.4435 3.62318C31.1426 3.91104 30.9922 4.24916 30.9922 4.64081V16.8418H34.0449V11.9782ZM34.0889 9.50783V5.54447H37.2259C38.6606 5.54447 39.3759 6.21067 39.3759 7.54632C39.3759 8.87858 38.6016 9.5312 37.0535 9.50783H34.0889ZM43.8044 16.8418H46.7728V11.312C46.7728 9.76893 47.5875 8.99555 49.2237 8.99555H50.2105V6.21067H49.7815C45.8813 6.21067 43.8887 7.92452 43.8044 11.3488V16.8418ZM58.2935 11.5062V12.487C58.2935 13.2468 58.0659 13.8359 57.6073 14.2542C57.1194 14.6726 56.4737 14.8805 55.6702 14.8805C54.7528 14.8805 54.265 14.4618 54.2098 13.6252C54.2098 12.8417 54.7971 12.343 55.9709 12.1355C56.8331 11.9782 57.6073 11.7674 58.2935 11.5062ZM58.9831 16.3699C60.4142 15.6635 61.1334 14.4084 61.1334 12.6041V8.99555C61.0744 7.03404 59.4418 6.05336 56.2314 6.05336C53.5347 6.05336 52.0158 7.03404 51.6707 8.99555H54.5951C54.738 8.50025 55.3252 8.2526 56.3601 8.2526C57.5634 8.2526 58.1944 8.55051 58.2493 9.15299C58.2493 9.72872 57.6184 10.0802 56.3601 10.2141C54.5804 10.3682 53.3072 10.7229 52.5332 11.2718C51.7588 11.8209 51.3554 12.6308 51.3298 13.7019C51.3298 15.0913 51.9314 16.0585 53.1347 16.6075C53.9383 16.9723 54.9106 17.1163 56.0591 17.0391C57.2332 16.9589 58.2091 16.7381 58.9831 16.3699ZM70.6322 13.5849C70.2618 13.5849 69.9313 13.7154 69.6453 13.9798C69.1575 14.4752 68.5703 14.723 67.8805 14.723C66.2478 14.7497 65.4296 13.7019 65.4296 11.5864C65.4296 9.46762 66.2038 8.40651 67.7521 8.40651C68.6693 8.40651 69.3003 8.77466 69.6453 9.50783H72.8264C72.3091 7.2048 70.6468 6.05336 67.8363 6.05336C64.2554 6.10688 62.4653 7.95115 62.4653 11.5864C62.5494 15.2451 64.3545 17.0762 67.8805 17.0762C69.1426 17.1027 70.2325 16.8015 71.1497 16.1758C71.9786 15.6268 72.5401 14.7631 72.8264 13.5849H70.6322ZM79.0598 16.7246V14.6828H78.1574C77.5849 14.6828 77.2989 14.4618 77.2989 14.0166V8.1321H77.5997C77.9998 8.1321 78.3444 8.00821 78.6307 7.76042C78.9169 7.51291 79.0598 7.19149 79.0598 6.79984V6.21067H77.2989V4.52371C77.2989 4.15869 77.1557 3.8442 76.8696 3.58323C76.5834 3.322 76.2531 3.19145 75.8789 3.19145H74.3746V14.8033C74.3454 15.9783 74.8847 16.6142 75.9854 16.7045C77.0898 16.7951 78.1133 16.8015 79.0598 16.7246ZM80.7364 3.19145V5.27019H83.6609V4.48676C83.6902 3.62317 83.2169 3.19145 82.241 3.19145H80.7364ZM80.7364 6.21067V16.8418H83.6609V7.50598C83.6609 6.64253 83.1876 6.21067 82.241 6.21067H80.7364ZM93.0754 19.6669C93.0754 20.554 93.5635 20.9993 94.5395 20.9993H95.9997V10.8401C95.8565 7.67687 94.0367 6.0937 90.5402 6.0937C86.9299 6.0937 85.1211 7.88418 85.1211 11.4695C85.1211 15.0777 86.6694 16.9322 89.7662 17.0391C91.2264 17.0391 92.3306 16.4904 93.0754 15.3892V19.6669ZM88.1333 11.5864C88.1333 9.44086 88.9627 8.36983 90.6246 8.36983C92.2866 8.36983 93.1048 9.44086 93.0754 11.5864C92.9911 13.6252 92.1582 14.6459 90.5842 14.6459C89.0066 14.6459 88.1882 13.6252 88.1333 11.5864Z" fill="#FEFFFF"/>
</svg>
