<svg width="329" height="309" viewBox="0 0 329 309" fill="none" xmlns="http://www.w3.org/2000/svg">
<path d="M203.353 286.564V274.968H217.849V296.918H213.293V295.261L188.03 299.817C187.367 294.847 197.969 288.911 203.353 286.564Z" fill="#EDF1F5"/>
<path d="M252.224 266.27L244.769 257.573L256.78 249.454L270.033 264.614L266.719 267.099L265.477 265.856L248.911 286.564C245.597 282.836 249.739 271.516 252.224 266.27Z" fill="#EDF1F5"/>
<path d="M36.3477 166.598C35.6902 168.073 34.769 173.388 32.8552 173.388C15.418 170.529 8.91493 155.155 7.84352 143.104C6.80908 131.468 7.75038 119.333 12.3883 108.469C18.1699 110.127 28.6491 110.732 33.1313 115.213C33.3794 115.461 33.5695 115.747 33.8132 115.997C34.077 116.267 34.3773 116.481 34.6021 116.785C34.8822 117.164 34.6167 118.166 34.5964 118.611C34.4872 121.014 34.6567 123.449 34.2189 125.823C33.863 127.753 33.5679 129.68 33.4807 131.643C33.1834 138.332 29.5965 142.037 32.8552 148.428C33.064 148.838 33.2858 149.233 33.4919 149.645C35.2017 153.064 36.6566 156.688 38.7327 159.905C39.0511 160.399 38.7608 160.992 38.7608 161.511C38.7608 161.93 38.3406 163.396 38.1345 163.739C37.3848 164.988 36.941 165.267 36.3477 166.598Z" fill="#F5F7FA"/>
<path d="M294.282 132.416C302.673 123.949 291.536 106.965 286.417 98.0188C291.511 95.5996 308.266 103.563 310.014 106.713C314.509 118.506 313.385 143.504 311.887 153.583L292.035 145.267L294.282 132.416Z" fill="#F5F7FA"/>
<path d="M40.7017 296.463L44.4473 221.621L56.4334 222.755L46.3201 297.219L40.7017 296.463Z" fill="#F5F7FA"/>
<path d="M107 299.109L102.88 236.741L114.491 234.095L112.619 299.109H107Z" fill="#F5F7FA"/>
<path d="M290.537 294.951L280.798 212.928L292.035 208.392L297.279 295.707L293.159 296.463L290.537 294.951Z" fill="#F5F7FA"/>
<path d="M225.362 297.975L223.115 296.841L223.115 271.893L227.235 249.215L233.603 234.473L229.108 297.219L225.362 297.975Z" fill="#F5F7FA"/>
<path d="M215.383 75.0129C216.051 74.3541 216.508 73.8444 217.497 73.6224L244.878 76.9678C245.133 76.4524 245.709 76.2695 246.174 75.9697C247.384 75.1881 248.381 74.1767 249.666 73.4985C252.109 72.2093 254.32 70.5459 256.903 69.5061C259.926 68.2891 263.575 68.3353 266.801 68.5699C268.664 68.7054 270.028 69.9002 271.739 70.5248C272.521 70.8103 273.304 70.996 274.093 71.2614C275.01 71.5699 275.836 72.0544 276.732 72.3834C278.745 73.122 280.827 73.6288 282.79 74.4897C283.387 74.7517 284.008 75.2269 284.543 75.6049C285.156 76.0382 285.943 76.2917 286.596 76.6925C287.576 77.2946 288.267 78.1763 289.004 79.0535C289.784 79.9818 290.842 80.6937 291.562 81.6624C292.483 82.9016 293.731 84.174 294.945 85.1179C295.643 85.6609 296.205 86.4002 296.739 87.1028L296.753 87.121C297.302 87.8444 297.675 88.6904 298.383 89.2618C299.29 89.9939 300.32 90.4688 301.227 91.1892C302.875 92.4979 305.275 93.439 307.018 94.6169C308.027 95.2994 309.021 96.3913 308.969 97.8111C308.949 98.3594 308.216 99.1491 307.857 99.5114C307.123 100.252 306.376 100.681 305.409 101.033C302.878 101.952 300.957 101.831 298.383 101.799C297.402 101.787 295.981 100.757 294.993 100.757C294.123 100.757 293.537 100.258 292.735 100.165C291.781 100.055 291.392 101.113 290.911 101.799C290.306 102.663 289.353 103.33 288.247 103.456C286.241 103.683 283.979 104.057 282.043 103.456C281.208 103.196 280.383 102.538 279.556 102.244C279.036 102.059 278.448 101.678 277.899 101.631C276.182 101.487 274.338 101.427 272.932 102.679C271.792 103.694 270.198 104.766 270.477 106.402C271.655 113.296 279.972 123.816 279.972 129.599C279.972 130.642 277.361 131.379 276.616 131.864C275.826 132.379 274.995 132.801 274.222 133.344C273.39 133.929 272.81 134.784 272.005 135.381C271.178 135.995 270.181 136.306 269.338 136.91C268.569 137.46 268.158 138.163 267.476 138.782C266.958 139.253 266.305 139.167 265.655 139.167C264.797 139.167 263.934 139.194 263.076 139.16C242.534 138.348 224.066 137.648 207.505 137.049C-72.1419 126.941 192.443 145.724 207.505 137.049C207.957 136.789 208.184 136.504 208.166 136.194C208.112 135.258 208.816 134.482 209.217 133.716C209.435 133.298 209.596 132.878 209.824 132.47C210.083 132.005 210.453 131.628 210.744 131.182C211.256 130.401 211.836 129.522 212.811 129.276C213.48 129.107 213.663 128.041 214.06 127.493C214.878 126.363 216.49 126.418 217.102 124.946C217.534 123.905 217.1 122.831 216.856 121.821C216.527 120.456 215.956 119.283 215.315 118.035C215.016 117.454 214.68 116.903 214.551 116.252C214.43 115.645 214.443 115.014 214.182 114.442C213.863 113.741 213.648 113.091 212.955 112.68C212.427 112.367 211.769 112.222 211.727 113.024C211.682 113.878 211.404 113.767 210.594 113.767C209.281 113.767 208.034 113.877 206.788 113.395C206.223 113.177 205.687 112.99 205.151 112.707C204.678 112.457 204.43 112.024 204.06 111.661C203.442 111.055 202.437 110.661 201.713 110.174C200.903 109.629 200.211 109.593 199.203 109.685C197.875 109.807 196.64 109.945 195.335 110.243C194.148 110.513 193.2 111.564 191.952 111.406C190.891 111.272 190.058 109.958 189.135 109.492C187.985 108.912 188.03 107.841 188.03 106.718C188.03 106.39 188.101 106.279 188.398 106.113C188.723 105.931 188.794 105.452 189.074 105.17C189.432 104.808 189.985 104.781 190.417 104.571C191.03 104.274 191.238 103.993 191.659 103.483C192.474 102.496 193.685 101.995 194.476 101.012C194.911 100.472 195.66 100.112 196.161 99.6146C196.788 98.9923 197.209 98.3672 197.73 97.6666C198.551 96.5621 199.082 95.1798 200.063 94.1904C201.062 93.1815 201.346 91.7671 202.279 90.7073C202.823 90.0905 203.16 89.1776 203.596 88.4771C203.913 87.9674 204.357 87.6143 204.605 87.0591C204.875 86.4562 205.216 86.0345 205.615 85.5172C206.284 84.6494 206.89 83.8113 207.484 82.8808C208.015 82.0487 208.728 81.3278 209.217 80.4646C209.583 79.8167 209.818 79.2159 210.322 78.6405C210.798 78.0955 211.327 77.6248 211.918 77.2156C212.511 76.8045 212.823 76.1106 213.5 75.8045C214.214 75.4815 214.784 75.6035 215.383 75.0129Z" fill="#F5F7FA"/>
<path fill-rule="evenodd" clip-rule="evenodd" d="M89.3964 67.3118C87.5401 66.6371 78.2203 62.4968 62.611 66.1599C46.589 69.3849 32.2457 78.3051 22.1893 91.2987C13.635 104.659 13.4796 108.058 11.5425 111.061C11.5425 111.061 32.2395 117.657 33.4973 117.814C35.9904 136.222 30.2201 147.146 30.2201 147.146C32.4072 150.198 34.167 153.535 35.4504 157.064L38.0171 164.121C74.9379 152.72 188.941 147.146 110.058 76.9942C97.6857 69.6233 96.2491 69.8026 89.3964 67.3118Z" fill="#FFBC42"/>
<path fill-rule="evenodd" clip-rule="evenodd" d="M75.0958 64.3392C80.02 64.316 84.904 65.2352 89.489 67.048C89.489 67.2763 94.9051 68.4407 101.48 71.7842C119.97 83.333 127.832 88.336 151.06 138.366C150.578 140.34 152.179 141.575 152 141.737C151.548 142.032 149.389 141.699 139.119 142.16C139.119 142.274 119.797 139.411 69.0564 146.119C65.4558 146.597 41.0762 148.669 31.3245 146.779C32.3649 148.463 48.8918 153.265 49.462 155.164C49.5875 155.607 49.6882 155.849 49.3998 156.199C48.5706 156.924 42.7993 156.796 35.7588 169.964C33.3629 174.468 33.9172 174.086 30.9897 173.491C24.0426 172.138 17.8548 168.196 13.6577 162.448C4.7315 150.119 4.87742 133.197 8.78567 118.385C13.6498 100.244 23.3112 85.2942 38.9114 75.2979C50.5513 67.8813 64.8959 64.2867 75.0958 64.3392ZM66.5508 65.7319C43.806 69.6131 26.5204 82.4484 16.9178 100.58C0.730493 131.42 5.79572 169.42 33.5358 173.667C35.1466 171.419 39.1027 159.248 48.0876 155.277C47.519 153.488 31.0092 148.795 30.001 147.215C29.7974 146.888 29.5485 146.598 29.8393 146.119C30.2077 145.737 30.6849 145.48 31.2046 145.384C56.4333 144.512 122.123 140.612 151.06 140.511C132.478 98.6995 122.471 84.0477 97.2806 70.4943C94.8225 69.4395 92.7558 68.8345 89.3012 67.572C82.0267 64.8727 74.1584 64.2363 66.5508 65.7319Z" fill="black"/>
<path fill-rule="evenodd" clip-rule="evenodd" d="M65.8096 66.5097C79.4969 64.1218 87.6709 67.6718 89.3959 68.2859C93.1515 69.628 95.2781 70.1761 98.4771 71.5898C97.2916 83.346 97.5721 76.6978 94.8573 115.52C86.3168 100.93 70.4474 74.4273 65.8096 66.5097Z" fill="#F5F7FA"/>
<path fill-rule="evenodd" clip-rule="evenodd" d="M79.312 64.4374C83.4045 64.8274 87.4193 65.8141 91.2313 67.3666C93.7743 68.1537 96.276 69.0711 98.7265 70.1154C99.7129 70.6451 98.5364 69.7615 96.3216 104.288C96.2085 105.85 95.558 115.475 95.5298 115.683C95.4919 115.837 95.4031 115.973 95.2781 116.069C95.153 116.165 94.9991 116.216 94.842 116.211C94.2764 116.149 94.2855 115.888 93.4461 114.436C93.3794 114.322 66.5239 67.6417 65.5568 65.5984C65.5427 65.5604 65.5372 65.5197 65.5405 65.4793C65.5438 65.4388 65.556 65.3997 65.5761 65.3645C65.5962 65.3294 65.6238 65.2992 65.6568 65.2761C65.6898 65.253 65.7275 65.2375 65.7672 65.2308L65.7774 65.2856L65.766 65.2262C70.2249 64.3438 74.7821 64.0785 79.312 64.4374ZM66.2547 65.7114C72.0238 75.5525 74.0011 78.2887 94.3273 113.215C96.8747 76.742 96.6485 82.3845 97.817 71.0663C95.7684 70.1348 93.5276 69.3711 91.4077 68.6268C87.107 67.0892 79.8425 63.5311 66.2547 65.7114Z" fill="black"/>
<path fill-rule="evenodd" clip-rule="evenodd" d="M33.0557 108.07C33.6614 111.08 34.0987 114.121 34.3655 117.181C34.9928 124.407 34.354 134.867 32.2738 141.92C31.9216 143.241 31.4662 144.531 30.9118 145.78C30.7217 146.119 30.5169 146.145 30.3621 146.029L30.3039 145.636L30.6933 145.578C30.6463 145.543 30.5887 145.524 30.5299 145.526C30.4711 145.528 30.4147 145.55 30.3699 145.588L30.3776 145.586L30.3629 145.602L30.37 145.593L30.3591 145.605L30.3661 145.596L30.3583 145.607L30.3672 145.591L30.3606 145.593C30.9853 144.526 33.6101 133.362 33.1518 117.949C32.8265 107.712 32.218 108.563 32.7406 107.833L33.0557 108.07Z" fill="black"/>
<path fill-rule="evenodd" clip-rule="evenodd" d="M90.3137 75.372C90.7118 75.4964 90.61 75.453 91.3544 76.2327C94.6619 79.6892 94.3701 79.3148 94.4538 79.5831C94.3812 81.5726 94.0879 83.5475 93.5794 85.4711C93.3758 86.0019 93.0613 86.6275 92.498 86.769C89.5694 87.7016 90.8363 87.8272 88.6067 86.2519C85.1962 83.8421 84.4994 83.9403 84.7053 83.1081C84.7992 82.8969 84.6691 83.1972 85.3659 81.7292C86.1215 80.1778 88.0264 75.4302 88.3782 75.0386C88.8963 74.6186 89.1327 74.9896 90.3137 75.372ZM92.3385 86.2371H92.3317L92.3566 86.2279H92.3498H92.3566L92.3736 86.2199C92.4137 86.197 92.4515 86.1702 92.4867 86.14C92.4867 86.14 92.5342 86.0909 92.5387 86.0875L92.5455 86.0772L92.5557 86.067C93.3011 84.938 93.2344 81.5454 93.2344 79.9826C93.1213 79.8685 93.4448 80.1892 92.2729 79.0797C89.2685 76.1368 90.2899 76.8605 89.1904 76.437C88.937 77.0078 87.5129 80.3844 86.5434 82.3045C86.4303 82.5328 86.1882 83.0054 86.1294 83.1195C86.3919 83.3136 87.3228 83.9392 88.8443 85.1857C89.4099 85.6336 89.9394 86.126 90.4279 86.6583L90.4143 86.6491L90.4245 86.6571L90.4313 86.6651L90.4177 86.656L90.4347 86.6674L90.4211 86.6594L90.4347 86.6686L90.4177 86.6617L90.4313 86.6686L90.4143 86.6628H90.4211H90.4313H90.411H90.4313H90.4143H90.4347C90.6609 86.6628 91.3306 86.4174 92.3249 86.2222L92.3385 86.2371Z" fill="#F5F7FA"/>
<path fill-rule="evenodd" clip-rule="evenodd" d="M62.9028 102.627C62.7695 102.503 62.6746 102.343 62.6296 102.166C62.5847 101.989 62.5915 101.803 62.6494 101.63C63.1234 99.5508 68.5508 94.3934 70.1922 92.3717C70.2476 92.3032 70.251 92.3295 70.1673 92.2348C68.0814 89.8878 58.8283 80.2088 56.6168 77.888C48.7822 69.685 49.4281 70.4921 49.3501 70.1051C49.3321 69.9535 49.3642 69.8001 49.4413 69.6687C49.5183 69.5372 49.6362 69.4351 49.7765 69.378C54.9231 67.3447 60.2524 65.8182 65.6901 64.8198C65.8282 64.7953 65.9705 64.814 66.0977 64.8736C66.225 64.9333 66.331 65.0308 66.4016 65.1532C73.6728 77.8241 76.9012 83.0124 95.1563 115.346C95.2287 115.508 95.2479 114.981 94.7423 121.308C94.6801 122.075 94.7265 122.209 94.49 122.312C94.4597 122.321 94.4279 122.325 94.3961 122.324H94.3475C94.3176 122.316 94.2888 122.304 94.2615 122.289C94.3656 122.12 94.5285 121.851 94.2615 122.289C91.7458 120.792 65.017 104.587 62.9028 102.627ZM51.2516 70.2855C51.3104 70.3448 51.7176 70.7695 51.7753 70.83C73.1027 93.0841 71.6899 92.0019 71.6752 92.3112C71.6016 92.9802 70.8347 93.592 67.2997 97.4104C66.5803 98.1912 64.155 100.816 63.8417 101.845C66.6063 104.135 91.1881 119.685 94.1575 121.564C94.1982 120.993 94.3464 118.391 94.5138 115.601C94.4007 115.612 70.458 74.9383 65.4593 66.265C60.6151 67.1856 55.8596 68.5309 51.2471 70.2855H51.2516Z" fill="black"/>
<path fill-rule="evenodd" clip-rule="evenodd" d="M95.6994 122.764C95.7212 122.781 95.7409 122.801 95.7582 122.823L95.782 122.86L95.7989 122.899C95.8385 123.061 95.6587 123.642 95.5727 124.873C95.1609 128.876 95.317 138.391 95.317 148.872L95.0614 149.169L94.7707 148.906C94.7299 148.635 94.4472 146.247 94.4313 146.092C93.7166 140.059 93.6642 133.966 94.2752 127.921C94.3374 127.484 94.5275 125.898 94.5931 125.78C94.7521 124.82 94.975 123.873 95.2605 122.944V122.958V122.994L95.2775 123.081C95.4064 123.259 95.3906 123.316 95.3125 122.824L95.7028 122.763L95.6994 122.764Z" fill="black"/>
<path d="M97.1324 137.604C97.0422 136.516 97.1208 135.42 97.3654 134.357C97.4504 134.196 97.5948 134.074 97.7676 134.019C97.9404 133.964 98.1278 133.979 98.2893 134.062C98.4508 134.145 98.5736 134.289 98.6312 134.462C98.6888 134.636 98.6766 134.825 98.5973 134.989C98.508 135.82 98.4804 136.655 98.5147 137.489C98.5301 137.585 98.5258 137.683 98.5019 137.777C98.478 137.871 98.4352 137.959 98.376 138.035C98.3168 138.111 98.2426 138.174 98.1581 138.22C98.0736 138.266 97.9805 138.294 97.8848 138.302C97.7891 138.31 97.6928 138.298 97.602 138.266C97.5112 138.235 97.4278 138.185 97.3571 138.119C97.2864 138.053 97.23 137.974 97.1913 137.885C97.1526 137.796 97.1326 137.701 97.1324 137.604Z" fill="black"/>
<path fill-rule="evenodd" clip-rule="evenodd" d="M57.5097 213.761C55.8955 231.895 50.7464 272.076 47.8268 291.863C47.0349 297.238 47.0915 297.007 46.7974 297.353C45.8031 298.504 42.1833 298.037 40.7874 297.529C40.103 297.278 39.8564 297.147 39.7467 296.508C38.9334 291.041 44.0825 226.458 44.2579 216.506C44.2816 215.075 44.2579 215.229 44.0961 214.867C44.1583 214.705 44.2273 214.588 44.4095 214.56C44.4402 214.557 44.471 214.56 44.5011 214.567C44.854 214.652 44.8755 215.091 44.8404 217.733C44.5362 235.205 40.5759 290.975 41.0894 296.163C42.5664 296.682 44.154 296.793 45.6877 296.484C46.1843 296.164 55.9747 222.587 56.9656 213.705L57.2665 213.454L57.5097 213.761Z" fill="black"/>
<path fill-rule="evenodd" clip-rule="evenodd" d="M291.473 200.979C290.681 202.761 297.635 276.611 297.914 293.389C298 294.199 297.927 295.018 297.699 295.799C297.165 296.589 294.262 296.853 293.174 296.853C292.442 296.895 291.713 296.726 291.073 296.364C290.524 295.962 290.577 295.887 290.068 292.476C286.972 271.917 281.66 229.602 280.113 212.546L280.358 212.239L280.659 212.49C282.355 227.862 290.127 283.992 291.887 295.241C292.898 295.713 295.328 295.355 296.513 294.952C297.373 293.716 289.631 201.521 291.025 200.706L291.075 200.689L291.128 200.682C291.331 200.699 291.403 200.794 291.473 200.979ZM290.993 201.202C291.027 201.226 291.065 201.241 291.106 201.247L290.982 201.191L290.993 201.202Z" fill="black"/>
<path fill-rule="evenodd" clip-rule="evenodd" d="M217.212 296.543C217.422 296.332 217.099 278.932 217.507 275.076L217.811 274.831C218.104 275.202 218.055 275.082 218.037 275.337C217.924 277.931 218.339 288.552 218.452 294.196C218.484 297.178 218.583 297.384 217.85 297.68C216.427 297.948 214.978 298.051 213.532 297.987C213.387 297.984 213.248 297.934 213.136 297.843C213.023 297.752 212.944 297.626 212.909 297.485C212.874 297.263 212.896 297.41 212.909 296.906C212.909 295.651 212.909 296.1 212.909 295.922C211.607 295.922 192.598 300.749 188.204 300.749C187.459 300.702 186.985 300.511 186.985 299.693C186.985 293.686 197.175 288.856 202.722 286.614V286.437C202.835 286.437 202.68 274.924 203.05 274.626C203.099 274.593 203.157 274.575 203.216 274.574H203.26C203.289 274.581 203.317 274.592 203.344 274.605L203.457 274.982C203.468 274.96 203.476 274.936 203.481 274.912V274.902C203.481 280.623 203.843 286.888 203.588 287.275C200.012 288.826 196.584 290.703 193.346 292.882C191.692 293.989 190.261 295.401 189.126 297.043C188.662 297.745 188.385 298.556 188.324 299.397C190.343 299.397 197.308 297.866 199.275 297.444C213.388 294.333 213.745 294.133 214.156 294.964C214.23 295.532 214.255 296.105 214.232 296.677C215.227 296.706 216.223 296.661 217.212 296.543ZM217.192 296.843V296.837V296.843ZM203.079 275.096C203.428 275.076 203.349 275.103 203.448 274.982L203.079 275.096Z" fill="black"/>
<path fill-rule="evenodd" clip-rule="evenodd" d="M250.854 264.135C253.184 266.747 253.042 266.24 252.53 267.306C250.52 271.267 247.801 278.3 248.093 282.804C248.116 283.874 248.459 284.913 249.077 285.783C249.93 284.95 250.729 284.061 251.467 283.122C255.102 278.628 254.905 278.573 255.018 278.573C264.575 265.999 264.823 265.023 265.824 265.446C266.248 265.829 266.638 266.249 266.989 266.701C267.765 266.07 268.492 265.381 269.164 264.639C268.948 264.384 269.702 265.248 267.247 262.302C266.003 260.835 256.637 249.833 255.612 248.27C255.513 248.112 255.525 248.222 255.612 247.77C256.064 247.858 255.962 247.809 256.064 247.947C256.919 249.252 266.525 259.607 270.135 263.853C270.781 264.687 270.848 265.002 268.232 267.357C267.275 268.184 267.192 268.384 266.694 268.284C266.396 268.158 266.581 268.272 265.495 267.002C265.096 267.344 261.184 272.683 256.106 279.42C255.306 280.47 253.504 282.791 252.82 283.621C251.984 284.684 251.087 285.696 250.133 286.653C249.584 287.129 249.017 287.576 248.446 287.11C247.855 286.506 247.413 285.771 247.157 284.962C245.674 280.751 248.533 273.192 250.451 269.228C251.847 266.279 251.841 266.739 251.639 266.5C244.042 257.377 244.224 257.531 244.262 257.324C244.278 257.266 244.31 257.215 244.354 257.175L244.39 257.148C244.417 257.134 244.445 257.124 244.474 257.117L244.801 257.331C244.82 257.199 243.974 256.366 250.854 264.135ZM269.342 264.884V264.876V264.884ZM244.607 257.647C244.859 257.402 244.817 257.476 244.817 257.319L244.607 257.647Z" fill="black"/>
<path fill-rule="evenodd" clip-rule="evenodd" d="M104.075 247.362C105.122 262.519 106.843 288.332 107.807 299.04C109.301 299.465 110.879 299.481 112.381 299.085C113.346 298.842 113.132 223.804 114.181 217.905C114.303 217.255 114.754 217.288 114.894 217.744C114.739 217.958 114.664 218.22 114.682 218.484C114.104 225.393 114.92 287.319 113.918 298.443C113.854 299.135 113.815 299.907 113.343 300.186C112.198 300.617 110.979 300.814 109.758 300.764C109.623 300.764 109.339 300.75 109.236 300.749C108.258 300.681 106.927 300.508 106.534 299.607C105.996 298.276 102.089 238.752 101.586 215.732C102.439 214.798 101.77 213.817 104.075 247.362ZM114.432 217.95H114.424H114.432Z" fill="black"/>
<path fill-rule="evenodd" clip-rule="evenodd" d="M234.781 213.391C234.316 234.641 230.471 296.455 229.683 297.521C228.769 298.736 225.129 298.52 223.698 298.108C222.999 297.903 222.743 297.788 222.592 297.16C221.42 291.783 222.274 219.441 221.639 215.724C221.455 215.374 221.455 215.443 221.499 215.329C221.627 214.987 222.05 214.923 222.178 215.503C223.245 220.532 222.976 291.137 223.911 296.723C225.433 297.151 227.044 297.144 228.563 296.703C228.795 296.436 233.533 229.276 234.237 213.371L234.52 213.101L234.781 213.391ZM221.93 215.61H221.935H221.93Z" fill="black"/>
<path d="M113.896 291.12L117.209 282.837L128.391 287.392C131.428 291.534 137.751 300.728 138.745 304.373C139.739 308.017 137.502 307.824 136.26 307.272L113.896 291.12Z" fill="#F5F7FA"/>
<path fill-rule="evenodd" clip-rule="evenodd" d="M127.893 287.72L127.883 287.713L127.893 287.72L127.879 287.71L127.889 287.717L127.876 287.71L127.889 287.717L127.879 287.71H127.886L127.706 287.368L128.051 287.186C128.627 287.38 130.338 289.946 130.678 290.454C132.019 292.411 137.926 301.641 138.546 302.89C138.963 303.633 139.183 304.472 139.185 305.326C139.188 306.18 138.973 307.02 138.561 307.766C138.205 308.177 137.924 308.348 136.96 308.024C130.496 305.844 113.716 292.123 113.432 291.442C113.164 290.631 114.407 288.204 116.328 284.25C117.233 282.433 117.056 282.755 117.16 282.545C117.171 282.527 117.179 282.508 117.185 282.489V282.5V282.485C117.185 282.494 117.185 282.534 117.177 282.548V282.607L117.235 282.73L117.246 282.736C117.246 282.321 117.213 282.335 117.377 282.28L117.421 282.269C117.453 282.267 117.485 282.269 117.515 282.276L117.561 282.29L117.598 282.312C117.622 282.329 117.644 282.349 117.664 282.371C117.702 282.415 117.725 282.47 117.729 282.528V282.577C117.717 282.637 117.7 282.697 117.677 282.755C117.416 283.461 114.868 289.138 114.47 290.745C114.376 291.102 114.144 290.808 116.209 292.433C120.346 295.693 130.53 303.398 135.26 305.788C135.996 306.198 136.773 306.525 137.579 306.764L137.589 306.747C137.945 305.769 137.905 304.689 137.476 303.741C137.264 303.284 130.323 290.982 127.921 287.751L127.911 287.744L127.894 287.727H127.887L127.894 287.734L127.893 287.72ZM114.408 291.152V291.139V291.129V291.139V291.149V291.152ZM117.438 282.819L117.578 282.793C117.603 282.78 117.628 282.764 117.65 282.746C117.197 282.747 117.236 282.717 117.435 282.824L117.438 282.819Z" fill="black"/>
<path d="M147.856 302.302L144.957 293.19L156.968 290.291L173.12 295.261C174.914 295.952 178.007 297.663 176.019 298.989C174.031 300.314 156.415 301.75 147.856 302.302Z" fill="#F5F7FA"/>
<path fill-rule="evenodd" clip-rule="evenodd" d="M144.772 293.907C144.873 294.022 144.791 293.976 144.973 294.052H144.985L144.735 293.768C144.738 293.744 144.741 293.721 144.747 293.697L144.761 293.665C144.777 293.638 144.794 293.613 144.812 293.588L144.848 293.555C144.874 293.537 144.901 293.522 144.93 293.51L144.972 293.501C145.001 293.498 145.031 293.498 145.06 293.501C145.117 293.509 145.17 293.535 145.213 293.574C145.372 293.757 147.259 300.009 148.103 301.751C148.248 302.061 148.231 302.001 148.29 302.12C148.385 302.254 170.787 300.791 175.991 298.425L175.999 298.418V298.398C175.98 298.351 175.999 298.38 175.975 298.334V298.315L175.964 298.292V298.269C175.946 298.218 175.926 298.168 175.902 298.12C175.408 297.159 174.573 296.422 173.565 296.054C173.452 296.008 157.04 290.446 156.242 290.662H156.229H156.242H156.227H156.242H156.235L155.874 290.524C156.008 290.172 155.969 290.115 156.198 290.108C157.392 289.785 173.04 294.438 174.26 294.903C177.032 296.159 177.754 298.454 177.243 299.205C176.359 299.839 175.355 300.281 174.293 300.504C168.664 302.117 155.686 303.05 149.226 303.188C147.813 303.217 147.756 303.356 147.221 302.161C146.256 299.783 144.911 294.089 144.81 293.975C144.806 293.955 144.8 293.935 144.792 293.917V293.927L144.772 293.907ZM148.374 302.248L148.381 302.256H148.391L148.382 302.244L148.391 302.256L148.38 302.242H148.37L148.374 302.248ZM145.023 294.041C145.214 293.993 145.16 294.03 145.269 293.89C145.31 293.765 145.333 293.765 145.023 294.041Z" fill="black"/>
<path d="M209.674 36.8511C209.674 35.4025 209.782 33.9986 209.784 32.5536C210.022 32.1868 210.424 31.9816 210.861 31.7315C212.14 30.9979 213.162 30.9724 214.442 30.2345C216.338 29.1411 217.978 28.4471 220.042 28.4471C220.683 28.4471 221.354 28.5907 221.994 28.62C222.773 28.6555 223.549 28.7479 224.324 28.8274C224.69 28.865 225.268 29.1631 225.592 29.4152C226.098 29.8094 226.476 29.478 226.996 29.8758C227.304 30.111 227.746 30.2814 228.024 30.556C228.651 31.1748 229.515 31.4831 230.285 31.9288C231.024 32.3566 231.161 34.6444 231.844 35.1567C233.074 36.0794 234.129 36.988 235.729 36.9624C236.665 36.9474 237.022 36.3968 237.944 36.2468C238.421 36.1692 238.807 35.3641 239.241 35.1567C239.844 34.8682 241.266 34.9948 241.901 35.1567C242.793 35.3844 244.537 35.8994 245.015 36.6037C245.406 37.1782 245.165 40.8302 245.309 41.5131C245.572 42.7626 244.54 44.4098 243.46 45.0959C241.718 46.2028 239.61 44.8517 237.944 46.221C236.269 47.5989 235.298 48.9877 234.736 51.0242C234.4 52.2442 234.212 53.2676 234.295 54.5489C234.431 56.6245 234.968 58.5403 235.986 60.3492C236.54 61.3327 237.191 62.2657 237.776 63.2309C238.219 63.9623 238.379 64.7539 238.768 65.4941C239.727 67.3178 240.414 69.3194 241.93 70.775C243.571 72.35 245.484 73.7084 246.992 75.4252C248.283 76.895 245.585 77.5886 244.639 77.979C243.936 78.2694 243.329 78.6381 242.58 78.8138C241.144 79.1509 239.627 79.0835 238.174 79.3704C236.195 79.7612 234.255 80.3721 232.224 80.3721C230.733 80.3721 229.679 79.1626 228.229 78.9375C227.482 78.8215 226.901 78.2522 226.158 78.1522C225.543 78.0694 224.946 78.0391 224.338 77.8616C223.289 77.5551 222.545 76.9892 221.752 76.2476C221.349 75.8712 220.977 75.4627 220.581 75.0789C220.132 74.6423 219.558 74.3718 219.074 73.9782C217.652 72.8224 219.978 72.8139 220.643 72.5188C221.764 72.021 222.8 71.1559 222.8 69.8413C222.8 68.5056 223.22 67.4052 222.188 66.4442C221.243 65.5641 221.192 64.657 220.869 63.3545C220.661 62.5134 220.267 61.8112 219.724 61.1408C219.422 60.7688 219.035 60.4602 218.713 60.1019C218.155 59.4826 217.871 58.6843 217.34 58.0551C216.128 56.6194 215.052 54.8731 213.59 53.6708C213.196 53.3473 212.688 53.0148 212.383 52.5948C212.069 52.1639 211.956 51.2265 211.831 50.7026C211.598 49.7287 211.564 48.7127 211.218 47.7653C210.935 46.9891 210.646 46.2102 210.397 45.4217C210.185 44.7476 210.336 43.8359 210.336 43.1399C210.336 42.2293 210.247 41.3675 210.115 40.4685C209.938 39.2625 209.674 38.0733 209.674 36.8511Z" fill="#F7F8FA"/>
<path fill-rule="evenodd" clip-rule="evenodd" d="M237.811 37.3159C237.797 37.2881 239.992 35.4217 240.725 35.4191C241.499 35.3913 242.273 35.4957 243.013 35.7279C245.247 36.576 245.525 40.7329 244.72 42.6034C244.33 43.2399 243.803 43.7792 243.177 44.181C242.552 44.5828 241.844 44.8367 241.108 44.9237C240.861 44.9315 239.189 44.8841 239.189 44.8841C226.397 54.3149 237.309 68.8672 249.413 79.908C259.985 89.552 274.348 94.4599 288.138 90.7677C294.862 88.9673 299.665 86.9464 299.665 86.9464C299.665 86.9464 289.74 86.2494 282.753 83.019C282.501 82.9023 282.256 82.756 282.03 82.593C261.036 67.4352 267.222 46.211 246.701 22.4693C235.232 9.20106 206.834 11.8376 204.496 26.2449C203.409 28.9369 202.304 37.0081 205.391 35.0055C211.574 31.6 223.83 23.8925 231.304 34.5528C233.414 37.1351 237.811 37.3159 237.811 37.3159Z" fill="black"/>
<path fill-rule="evenodd" clip-rule="evenodd" d="M217.769 40.1171V40.1263V40.1091V40.124V40.1126L217.776 40.1297V40.1194L217.782 40.14V40.1285L217.794 40.1525V40.1445L217.814 40.1719V40.1651L217.859 39.7712L218.25 39.818C218.331 39.9502 218.376 40.1019 218.381 40.2575C218.589 41.799 218.485 43.3671 218.076 44.867C217.668 47.0028 217.84 46.3602 217.693 46.9914C217.602 47.2944 217.527 47.6019 217.467 47.9126C217.922 48.1523 218.414 48.3136 218.921 48.3898C219.409 48.5159 223.062 48.4848 220.771 49.2539C220.282 49.4338 219.764 49.5179 219.244 49.5016C218.494 49.5721 217.739 49.4698 217.035 49.2026C215.711 48.5941 216.106 47.6569 216.41 46.4309C216.41 45.5177 217.455 42.4105 217.564 41.1799C217.73 40.5361 217.737 40.2518 217.771 40.1377V40.1171H217.769Z" fill="black"/>
<path fill-rule="evenodd" clip-rule="evenodd" d="M225.066 52.402C224.913 52.8697 224.632 53.2841 224.256 53.5973C223.865 53.8933 223.418 54.1041 222.943 54.2161C222.064 54.4858 221.118 54.4298 220.276 54.0581C220.17 54.018 220.239 54.0644 219.953 53.7382C220.318 53.4085 220.079 53.5268 220.942 53.2712C221.703 53.0509 222.277 52.991 222.961 52.7587C223.221 52.6707 223.618 52.5212 223.622 52.5206C223.672 52.5055 223.75 52.4797 223.804 52.4605L223.806 52.4553C224.09 52.3704 224.36 52.2456 224.61 52.0848L224.994 52.0177L225.066 52.402Z" fill="black"/>
<path d="M223.857 42.8567C223.692 42.8551 223.532 42.7936 223.407 42.6835C223.283 42.5733 223.202 42.4217 223.178 42.2563C223.081 41.5714 222.537 40.213 223.06 39.5908C223.168 39.4642 223.319 39.3812 223.483 39.3571C223.647 39.3329 223.815 39.3692 223.955 39.4593C224.095 39.5495 224.198 39.6874 224.246 39.8479C224.294 40.0085 224.282 40.181 224.215 40.334C224.215 40.7152 224.504 41.7392 224.547 42.0611C224.561 42.1605 224.554 42.2617 224.525 42.3579C224.497 42.4542 224.449 42.5431 224.383 42.6186C224.317 42.6942 224.237 42.7545 224.146 42.7956C224.055 42.8367 223.957 42.8576 223.857 42.8567Z" fill="black"/>
<path d="M212.737 43.584C212.572 43.5825 212.413 43.5213 212.288 43.4116C212.164 43.3019 212.083 43.1509 212.059 42.9858C211.963 42.3158 211.655 41.8557 211.801 41.1742C211.759 41.0261 211.766 40.8686 211.819 40.7244C211.872 40.5801 211.969 40.4565 212.096 40.3714C212.223 40.2862 212.373 40.2439 212.525 40.2506C212.678 40.2572 212.824 40.3124 212.943 40.4083C213.396 40.7656 213.159 41.3215 213.137 41.5498C213.211 41.947 213.354 42.2735 213.426 42.7861C213.441 42.8856 213.434 42.987 213.406 43.0836C213.378 43.1801 213.329 43.2693 213.264 43.3451C213.199 43.4209 213.118 43.4816 213.027 43.5228C212.936 43.564 212.837 43.5849 212.737 43.584Z" fill="black"/>
<path fill-rule="evenodd" clip-rule="evenodd" d="M212.113 35.4369C212.394 35.4211 212.676 35.4636 212.94 35.5618C213.205 35.6599 213.446 35.8117 213.65 36.0076C213.886 36.2428 213.843 36.1857 213.931 36.6252L213.549 36.6983C213.254 36.68 212.903 36.8193 212.411 36.8261C211.89 36.8671 211.368 36.8671 210.847 36.8261C210.524 36.793 210.68 36.9094 210.25 36.7359H210.26L210.238 36.7256H210.252H210.238H210.258H210.245L210.267 36.7177H210.258L210.279 36.7074L210.3 36.6971L210.32 36.6846L209.948 36.6674L209.935 36.6572L209.919 36.6389C209.889 36.6064 209.868 36.5676 209.856 36.5255C209.843 36.4834 209.841 36.439 209.848 36.3957C209.922 36.0704 210.236 36.1206 210.441 35.93H210.429V35.9231L210.435 35.9152L210.413 35.9209L210.425 35.9117L210.398 35.9197C210.619 35.736 210.882 35.6098 211.163 35.5521C211.474 35.477 211.793 35.4383 212.113 35.4369ZM210.35 36.269L210.331 36.6423L210.354 36.6218L210.381 36.5887L210.406 36.5464L210.424 36.4973L210.433 36.4437V36.4072L210.426 36.3626L210.414 36.325L210.402 36.2953L210.387 36.2725L210.374 36.2542L210.362 36.2405L210.35 36.269Z" fill="black"/>
<path fill-rule="evenodd" clip-rule="evenodd" d="M223.431 35.502C223.93 35.4714 224.43 35.5593 224.89 35.7588C225.35 35.9582 225.757 36.2635 226.079 36.6503V36.6583L226.16 37.043C225.594 37.1572 225.989 37.1161 225.232 37.0556C225.006 37.0407 224.717 37.0442 224.504 37.0133C222.537 36.7234 222.643 36.9471 221.644 36.7542H221.621H221.632H221.593H221.604H221.587H221.593H221.579H221.586H221.574L221.583 36.7485H221.572L221.192 36.6697C221.274 36.1789 221.158 36.2782 221.843 35.9072C222.315 35.6024 222.872 35.4602 223.431 35.502Z" fill="black"/>
<path fill-rule="evenodd" clip-rule="evenodd" d="M218.544 90.8514C218.178 91.8468 217.739 92.8134 217.23 93.7428C216.861 94.5659 216.922 94.4129 215.668 97.7017C214.979 99.4229 214.405 101.189 213.95 102.988C213.791 103.666 212.917 107.955 212.819 109.392C212.783 109.896 212.806 110.402 212.889 110.9C212.992 111.357 212.946 112.416 213.064 112.803V112.812V112.803L213.071 112.821V112.814C213.149 113.043 213.651 113.603 213.202 113.946L213.182 113.957L212.799 113.882L212.874 113.492L212.885 113.484L212.868 113.495L212.878 113.486L212.864 113.499L212.871 113.49L212.857 113.505V113.499L212.844 113.515L212.851 113.506L212.837 113.524V113.515L212.827 113.535V113.525L212.816 113.546V113.536L212.804 113.557V113.547L212.797 113.568V113.559L212.791 113.579V113.569V113.589V113.579V113.599V113.617V113.605V113.62V113.608V113.621V113.609V113.621V113.609V113.601V113.61L212.784 113.593V113.601L212.777 113.591V113.581C212.77 113.572 212.762 113.557 212.745 113.536C212.709 113.48 212.582 113.317 212.552 113.272C212.275 112.631 212.093 111.953 212.014 111.258V111.249C211.404 108.937 211.768 107.368 212.179 104.971C212.376 103.56 212.687 102.168 213.108 100.809C214.174 97.2326 215.819 93.8594 217.978 90.8262V90.8331L217.985 90.8137V90.8228V90.8114V90.8217V90.8103V90.8217V90.8114V90.8251L218.268 90.558L218.544 90.8514Z" fill="black"/>
<path fill-rule="evenodd" clip-rule="evenodd" d="M266.813 85.2075C267.535 91.2659 268.602 97.2773 270.009 103.212C271.095 107.99 271.284 107.156 270.939 107.852L270.59 107.675C269.705 105.72 268.952 103.707 268.336 101.649C267.893 99.9298 266.995 95.858 266.71 94.0258C266.223 91.3306 266.059 88.586 266.222 85.8513C266.286 85.0671 266.176 85.2977 266.537 84.9279L266.813 85.2075Z" fill="black"/>
<path fill-rule="evenodd" clip-rule="evenodd" d="M233.921 107.132C233.78 107.344 233.57 107.5 233.327 107.574C231.762 107.836 230.24 104.711 229.567 103.236C224.873 92.4472 220.959 74.0845 222.061 71.6017C222.13 71.4876 222.039 71.5321 222.496 71.4316L222.58 71.8186L222.573 71.8289V71.8403V71.8323L222.558 71.8563V71.8494V71.8631C222.545 71.886 222.558 71.87 222.545 71.894C221.467 74.0138 229.323 103.424 232.974 106.092C234.712 103.611 248.661 76.653 249.263 73.6371V73.6257V73.6142V73.5926V73.58V73.556L249.516 73.2592L249.81 73.5149C250.183 75.3379 237.131 102.776 233.921 107.132Z" fill="black"/>
<path fill-rule="evenodd" clip-rule="evenodd" d="M239.705 115.714C239.004 116.863 238.009 117.801 236.825 118.428C235.642 119.056 234.312 119.351 232.977 119.282C231.986 119.259 231.027 118.929 230.229 118.336C229.593 117.906 229.004 117.408 228.473 116.852C227.461 115.49 226.983 113.798 227.132 112.102C227.282 110.406 228.047 108.826 229.282 107.666C231.364 105.868 236.219 105.619 238.941 108.16C239.786 108.99 240.339 110.075 240.517 111.25C240.755 112.788 240.469 114.362 239.705 115.714ZM231.283 108.024C228.043 109.331 227.636 114.353 229.87 116.319C230.449 116.858 231.096 117.319 231.793 117.688C232.621 117.983 233.506 118.075 234.375 117.954C235.821 117.838 237.181 117.21 238.214 116.181C239.246 115.153 239.887 113.789 240.022 112.331C239.98 111.463 239.713 110.622 239.248 109.891C238.997 109.499 238.686 109.149 238.328 108.853C237.306 108.154 236.133 107.713 234.906 107.569C233.68 107.425 232.437 107.581 231.283 108.024Z" fill="black"/>
<path fill-rule="evenodd" clip-rule="evenodd" d="M203.234 286.301L203.28 286.308L203.245 286.447C203.299 286.219 203.162 286.307 204.005 286.465C207.645 287.16 211.367 287.307 215.05 286.901C217.47 286.595 217.738 286.102 218.201 286.57C218.378 286.83 218.314 286.563 218.427 290.643C218.46 292.253 218.568 296.146 218.455 297.063C218.36 297.491 218.136 297.624 217.688 297.76C216.432 297.967 215.16 298.049 213.889 298.004C213.478 298.004 213.317 298.024 213.05 297.776C212.816 297.454 212.902 297.521 212.902 295.928C212.781 295.928 211.938 296.099 211.812 296.123C200.038 298.598 188.929 301.455 187.342 300.493L187.312 300.465C186.957 300.178 187.021 299.822 187.021 299.371C187.298 295.733 190.987 292.994 193.988 291.088C196.83 289.362 199.827 287.91 202.938 286.75C202.938 286.57 202.921 286.408 203.094 286.324L203.104 286.317L203.15 286.304C203.178 286.299 203.206 286.298 203.234 286.301ZM203.49 287.002C203.482 287.034 203.472 287.065 203.46 287.096L203.431 287.138C203.41 287.162 203.386 287.183 203.359 287.201L203.314 287.221C203.256 287.249 203.197 287.273 203.137 287.294C198.643 289.235 191.797 292.796 189.129 296.94C188.673 297.647 188.39 298.452 188.303 299.291C188.286 299.455 188.269 299.413 188.475 299.413C193.873 298.807 197.315 297.79 210.834 294.918C214.454 294.242 214.244 294.204 214.244 296.662C215.229 296.711 216.216 296.665 217.192 296.523C217.192 296.294 217.253 295.927 217.206 287.626C213.185 288.252 209.086 288.145 205.102 287.312C203.525 287.005 203.631 286.946 203.498 286.946C203.493 286.957 203.491 286.991 203.49 287.002Z" fill="black"/>
<path fill-rule="evenodd" clip-rule="evenodd" d="M263.48 256.423C263.735 256.492 263.359 256.065 268.393 261.759C268.49 261.873 269.788 263.357 270.203 263.894C270.852 264.736 270.768 265.085 268.241 267.366C267.378 268.112 267.125 268.478 266.589 268.249C266.37 268.118 266.543 268.249 265.491 267.012C265.165 267.295 261.211 272.615 261.124 272.731C259.464 274.966 252.188 284.844 250.121 286.634C249.851 286.916 249.517 287.127 249.148 287.251C248.618 287.365 248.336 286.998 248.017 286.555C244.699 281.989 249.183 271.785 251.898 266.806C252.048 266.525 252.04 266.65 251.873 266.418C251.852 266.386 251.839 266.349 251.833 266.311C251.828 266.273 251.831 266.234 251.841 266.197C251.852 266.16 251.871 266.125 251.896 266.096C251.921 266.067 251.951 266.043 251.986 266.027C256.189 263.751 259.876 260.618 262.815 256.827C263.011 256.516 263.13 256.396 263.48 256.423ZM260.08 261.304C257.779 263.282 255.256 264.981 252.564 266.367C252.987 266.866 250.964 269.027 249.006 275.834C248.368 277.889 248.03 280.028 248.003 282.182C247.95 283.46 248.312 284.721 249.035 285.773C249.45 286.262 258.763 273.504 263.514 267.297C265.583 264.672 265.512 264.933 266.995 266.679C267.784 266.08 268.505 265.395 269.144 264.635C269.047 264.521 268.817 264.157 263.415 257.874C262.421 259.128 261.303 260.277 260.08 261.304Z" fill="black"/>
<path fill-rule="evenodd" clip-rule="evenodd" d="M304.385 101.24C309.405 104.559 311.636 108.464 312.806 114.208C313.935 120.232 314.385 126.366 314.15 132.492C313.923 140.696 312.707 152.937 312.591 153.163C312.53 153.257 312.439 153.328 312.334 153.365C312.228 153.402 312.113 153.403 312.007 153.367C311.374 153.088 310.383 149.954 303.966 147.721C301.586 146.901 280.606 142.392 287.088 136.329C287.721 135.82 292.193 132.905 292.545 132.17C293.827 129.04 293.397 124.799 292.952 121.2C292.657 118.794 291.787 113.532 291.143 110.999C290.6 109.04 289.896 107.131 289.039 105.291C287.936 102.897 290.162 102.177 292.941 101.094C296.53 101.799 302.08 102.19 304.385 101.24ZM290.537 103.311C291.865 106.39 292.895 112.133 293.302 115.467C293.84 118.558 294.202 121.677 294.387 124.81C294.693 132.584 288.986 136.165 285.667 138.464C281.883 140.884 303.308 146.5 305.145 147.157C307.633 147.994 309.958 149.608 311.763 151.529C312.555 139.965 313.978 125.18 311.269 113.611C310.854 111.554 310.212 109.549 309.355 107.636C308.171 105.49 305.327 103.115 303.272 101.799C301.457 102.376 296.155 102.177 293.159 101.421C291.661 101.799 290.247 102.636 290.537 103.311Z" fill="black"/>
<path fill-rule="evenodd" clip-rule="evenodd" d="M218.349 73.2043C220.531 75.0386 222.871 76.6729 225.341 78.0877C230.955 80.8959 239.028 80.9838 247.727 75.7659C250.54 74.1095 250.306 73.6152 251.027 73.8709C251.475 74.1678 251.969 74.3884 252.488 74.5239C253.897 74.8096 255.355 74.7251 256.722 74.2785C258.928 73.5433 259.123 70.5354 258.83 68.2192C258.796 68.0836 258.786 67.9427 258.803 67.8037C258.826 67.6675 258.889 67.5415 258.984 67.442C259.079 67.3424 259.202 67.274 259.336 67.2455C259.47 67.2169 259.609 67.2296 259.736 67.282C259.863 67.3343 259.971 67.4238 260.047 67.5389C261.016 68.633 262.2 69.5107 263.525 70.1156C264.85 70.7205 266.285 71.0392 267.739 71.0514C269.758 70.9372 266.569 72.9212 266.741 71.8481C266.781 71.5887 266.795 71.3261 266.785 71.0639C266.616 70.3637 266.37 69.6846 266.053 69.0388C266.033 68.8892 266.062 68.7372 266.136 68.6057C266.209 68.4743 266.323 68.3706 266.461 68.3105C266.735 68.2147 266.726 68.169 269.19 68.8882C278.24 71.5616 285.08 72.9315 290.172 79.0101C294.757 84.696 296.63 85.9551 300.61 89.5316C304.883 93.3717 307.09 93.0166 308.838 94.9584C309.238 95.4685 309.511 96.0673 309.635 96.7051C309.759 97.3429 309.731 98.0014 309.553 98.6261C309.403 99.1149 309.106 99.5443 308.703 99.8544C304.359 103.838 298.341 103.615 292.866 101.479C292.825 101.532 292.688 101.681 292.64 101.73C291.324 103.02 289.719 103.969 287.961 104.498C280.668 106.794 280.579 102.274 275.727 102.695C273.327 102.937 271.283 104.112 271.283 106.494C271.283 108.038 280.569 133.415 280.258 136.018C280.249 136.129 280.216 136.236 280.159 136.331C280.103 136.427 280.026 136.508 279.933 136.568C276.618 138.806 272.222 138.637 268.343 139.56C265.597 140.201 267.143 140.372 264.617 140.064C249.819 138.307 234.72 139.186 219.752 138.786C207.562 138.473 207.636 137.058 207.636 136.6C207.636 136.589 207.636 136.559 207.643 136.548L207.66 136.505C209.775 131.623 213.839 127.091 217.591 123.344C216.736 122.477 215.953 121.541 215.249 120.546C214.078 118.484 213.726 115.452 212.412 113.428C211.863 113.767 211.282 114.047 210.676 114.265C209.586 114.612 208.421 114.642 207.314 114.353C204.456 113.638 203.016 110.942 200.946 110.287C197.457 109.259 192.102 113.681 188.754 109.766C188.324 109.274 187.978 108.714 187.73 108.108C187.553 107.462 187.257 106.053 187.654 105.513C188.162 104.898 188.883 104.785 189.917 104.347C190.55 104.058 190.437 104.073 191.331 103.157C193.552 100.929 194.815 99.7585 195.788 98.7403C202.277 92.189 206.063 80.6801 214.318 74.5536C215.659 73.5981 215.856 73.5262 215.997 73.4326C217.707 72.4223 217.553 72.5045 218.349 73.2043ZM199.812 109.19C203.454 109.288 204.26 112.701 207.515 113.515C210.978 114.372 212.147 111.894 212.92 112.75C213.959 114.07 214.562 116.86 215.272 118.788C215.671 119.967 216.343 121.032 217.233 121.895C218.767 123.648 218.84 123.087 217.378 124.542C214.112 127.853 210.34 131.932 208.344 136.344C224.459 136.418 241.891 136.883 257.809 138.328C267.058 139.177 265.703 139.312 266.414 139.037C270.342 137.584 276.932 137.159 280.159 134.988C280.159 132.487 272.962 108.313 272.867 107.44C272.485 103.973 272.043 101.761 275.524 101.379C276.981 101.184 278.463 101.454 279.76 102.152C281.934 103.224 282.851 104.467 286.927 103.394C290.897 102.265 291.967 100.366 292.218 100.14C292.321 100.059 292.443 100.009 292.573 99.9938C292.702 99.9789 292.833 100 292.951 100.055C295.123 100.973 297.438 101.501 299.79 101.616C301.27 101.673 302.748 101.462 304.154 100.993C305.642 100.485 306.992 99.6376 308.101 98.5154L308.108 98.5028C308.321 98.1139 308.398 97.6642 308.328 97.2255C308.034 94.8796 305.807 94.9002 302.772 92.9413C297.416 89.4402 292.739 84.5168 290.538 81.6824C284.882 74.4348 277.751 72.6415 267.918 69.9658C268.208 70.7089 268.257 71.5257 268.059 72.2989C267.86 73.0721 267.424 73.762 266.812 74.2693C264.903 75.4736 264.138 72.8584 260.295 69.637C260.295 72.1769 259.673 74.63 257.285 75.525C255.681 76.0739 253.964 76.1946 252.301 75.8755C250.286 75.3812 251.233 75.0193 250.264 75.7236C248.426 76.996 246.47 78.0867 244.424 78.9804C237.242 82.1299 229.064 82.3411 222.687 78.0672C221.324 77.1608 218.107 74.7008 217.418 74.0901C216.227 74.7326 215.1 75.4911 214.055 76.3549C206.66 82.4872 203.01 93.1239 196.386 99.7083C196.307 99.7905 191.124 104.861 191.006 104.951C190.564 105.227 190.089 105.444 189.592 105.599C189.207 105.714 188.84 105.887 188.504 106.11L188.497 106.117C188.45 106.669 188.515 107.225 188.687 107.75C188.884 108.244 189.163 108.7 189.513 109.098C191.797 112.045 196.306 109.143 199.812 109.19Z" fill="black"/>
<path fill-rule="evenodd" clip-rule="evenodd" d="M197.549 137.402C254.778 137.402 278.906 140.474 302.592 146.959C318.3 151.262 316.968 165.678 297.905 171.098C174.649 206.131 41.1243 185.776 19.3909 167.795C18.9202 167.42 18.5254 166.957 18.228 166.431C22.4328 170.153 27.6348 172.527 33.1743 173.252C34.1913 173.398 32.0681 172.424 37.749 164.079C37.1085 159.139 31.4054 148.772 28.8912 146.836C61.0388 144.527 104.814 140.688 138.685 138.229C158.461 137.006 177.427 137.402 197.549 137.402Z" fill="#F5F7FA"/>
<path fill-rule="evenodd" clip-rule="evenodd" d="M313.524 157.279C313.616 157.476 313.659 157.693 313.648 157.91C313.61 172.303 312.297 178.845 298.865 182.651C175.485 217.608 41.8343 197.298 20.0748 179.357C16.7728 176.636 17.559 170.503 18.2434 166.647C18.5196 167.056 18.8551 167.42 19.2388 167.729C40.9983 185.671 174.651 205.981 298.029 171.022C308.42 168.077 313.551 162.47 313.524 157.279Z" fill="#F5F7FA"/>
<path fill-rule="evenodd" clip-rule="evenodd" d="M313.597 157.01C313.626 157.019 313.654 157.032 313.68 157.048C313.704 157.067 313.727 157.088 313.746 157.111L313.77 157.15C313.512 157.284 313.64 157.217 313.77 157.15C313.96 157.619 313.939 157.578 313.914 159.89C313.875 163.543 313.705 168.41 312.574 171.903C310.075 179.551 304.254 181.531 296.425 183.72C235.219 200.719 167.461 205.607 107.734 200.558C86.0698 198.856 42.5645 193.171 23.6216 182.549C21.9814 181.674 20.4529 180.601 19.0697 179.353C16.5551 176.629 16.7565 171.986 17.2813 168.288C17.563 166.364 17.5505 166.129 18.1037 165.961C18.6557 165.892 18.7734 166.223 19.0086 166.517C19.3754 166.943 19.7934 167.321 20.2529 167.642C45.3257 186.491 177.793 203.818 295.407 171.397C298.383 170.7 301.28 169.697 304.053 168.403C307.786 166.564 311.745 163.603 312.91 159.584C313.512 157.511 312.982 156.902 313.597 157.01ZM313.327 160.129C311.457 165.861 304.212 169.581 298.482 171.236C227.979 191.972 134.466 196.654 63.0796 183.168C51.8809 181.027 27.3964 175.621 18.6896 168.17C18.2474 171.12 17.9182 175.232 19.5426 177.725C20.7925 179.163 22.3118 180.337 24.013 181.18C54.5448 198.456 176.988 214.431 292.254 184.075C302.735 181.278 310.335 179.929 312.56 169.431C313.072 166.357 313.329 163.247 313.327 160.13V160.129Z" fill="black"/>
<path fill-rule="evenodd" clip-rule="evenodd" d="M23.5898 181.736C43.0304 192.911 103.323 204.018 175.457 201.364C175.118 205.684 174.366 209.775 173.336 211.421C165.163 224.471 131.143 234.023 116.482 235.912C93.1793 238.912 44.8064 231.511 31.3645 209.06C26.5357 200.757 23.8616 191.359 23.5898 181.736Z" fill="#F5F7FA"/>
<path fill-rule="evenodd" clip-rule="evenodd" d="M176.138 201.415C175.985 203.467 175.714 205.508 175.326 207.528C174.639 210.923 173.968 211.739 173.328 212.665C169.762 217.616 163.106 221.532 157.64 224.211C145.171 230.413 124.525 236.135 113.251 236.926C105.047 237.468 96.8094 237.201 88.6567 236.127C74.63 234.372 59.9958 230.703 47.2971 223.858C39.6797 219.569 33.9208 214.849 29.8135 207.123C25.8073 199.367 23.5885 190.798 23.3228 182.056C23.316 181.773 23.2526 181.526 23.549 181.459H23.5942C23.6239 181.461 23.6532 181.466 23.6813 181.476L23.7221 181.495C23.6429 181.636 23.4698 181.943 23.7221 181.495C28.6412 184.084 33.8058 186.166 39.1379 187.711C71.3235 197.278 115.697 200.922 149.017 201.067C175.315 201.292 176.138 199.881 176.138 201.415ZM23.8838 182.352C24.3193 194.198 29.1269 206.312 34.3032 212.459C44.5857 224.625 64.4674 230.71 79.976 233.526C92.3251 235.862 108.899 236.951 121.377 234.44C135.317 231.942 164.745 223.191 172.664 211.207C172.734 211.093 172.814 210.979 172.875 210.854C174.078 208.625 174.709 202.579 174.709 202.087C168.951 202.365 152.241 202.664 136.303 202.167C106.957 201.254 51.4508 196.371 25.403 183.051C23.6508 182.136 23.8782 182.155 23.8838 182.352Z" fill="black"/>
<path fill-rule="evenodd" clip-rule="evenodd" d="M126.272 251.847C129.565 260.77 133.318 270.723 136.498 278.633C132.991 283.123 129.62 287.374 128.857 287.605C128 287.866 116.554 281.796 116.202 281.29C116.009 281.01 121.154 266.776 126.272 251.847ZM169.237 201.559C174.809 207.779 175.374 218.339 172.776 225.713C169.265 235.189 164.36 244.079 158.227 252.082C157.574 234.558 155.597 214.768 150.683 201.753C156.758 201.787 162.943 201.722 169.237 201.559Z" fill="#F5F7FA"/>
<path fill-rule="evenodd" clip-rule="evenodd" d="M126.851 252.582C137.731 280.321 137.397 278.485 137.011 279.044C129.149 289.15 129.343 288.653 127.68 288.024C123.782 286.323 119.991 284.385 116.325 282.221C115.025 281.421 115.296 281.553 117.186 275.979C120.892 265.562 122.628 261.005 125.248 253.833C126.107 251.484 125.993 251.602 126.284 251.566C126.511 251.6 126.5 251.747 126.526 251.747C126.609 251.944 126.547 251.784 126.851 252.582ZM116.944 280.993C120.72 283.233 124.645 285.207 128.69 286.901C129.197 286.901 135.637 278.651 135.74 278.524L135.733 278.511C132.905 271.518 127.221 255.592 126.271 252.712C123.04 262.856 120.847 269.142 116.949 280.993H116.944ZM151.418 202.256C153.033 206.703 154.29 211.273 155.178 215.923C158.149 230.896 158.538 245.657 158.831 250.092C162.815 244.671 166.286 238.884 169.196 232.807C170.893 229.135 172.137 225.886 172.413 225.007C174.99 217.201 173.697 208.496 170.543 203.723C170.108 203.065 169.63 202.437 169.112 201.843C164.226 202.032 156.445 202.256 151.423 202.256H151.418ZM172.837 206.692C173.852 209.197 174.463 211.85 174.647 214.55C174.939 218.259 174.526 221.991 173.431 225.545C171.874 230.086 169.939 234.486 167.646 238.699C165.313 242.963 162.711 247.073 159.857 251.002C158.709 252.607 158.632 252.841 158.074 252.753C157.926 252.721 157.793 252.64 157.696 252.524C157.599 252.407 157.543 252.261 157.538 252.108C157.041 237.337 155.312 217.601 150.751 203.479C150.185 201.776 150.103 201.873 150.226 201.53C150.468 201.123 150.565 201.243 152.967 201.271C167.188 201.445 169.176 201.133 169.44 201.373C169.299 201.501 169.058 201.715 169.44 201.373C170.9 202.911 172.054 204.717 172.842 206.692H172.837Z" fill="black"/>
<path fill-rule="evenodd" clip-rule="evenodd" d="M36.8584 187.348C60.0172 195.02 101.474 201.482 150.683 201.751C161.223 229.656 158.245 288.715 157.696 289.809C157.644 289.913 143.443 293.324 143.155 293.042C139.37 289.22 117.92 228.861 117.92 228.861C117.92 228.861 101.755 229.025 90.9348 227.934C80.2665 226.86 61.5793 221.227 52.8896 214.371C39.7294 203.986 37.1955 192.952 36.8584 187.348Z" fill="#F5F7FA"/>
<path fill-rule="evenodd" clip-rule="evenodd" d="M127.167 200.527C148.015 201.465 150.574 200.747 151.177 201.326C151.29 201.491 151.253 201.412 151.658 202.523C153.976 209.485 155.614 216.659 156.548 223.942C160.209 250.02 159.263 283.029 158.424 289.755C158.407 289.947 158.332 290.129 158.21 290.277C158.012 290.477 158.045 290.492 155.089 291.199C152.989 291.718 146.59 293.218 144.425 293.596C143.95 293.724 143.455 293.763 142.966 293.71C139.837 292.611 118.618 232.71 117.487 229.505C112.177 229.574 100.155 229.348 92.7142 228.675C82.4409 227.528 72.3996 224.814 62.9335 220.626C55.781 217.391 50.9101 214.195 45.3141 207.65C40.4387 201.745 37.2069 195.208 36.6255 187.912C36.5859 187.365 36.5452 187.274 36.6956 187.131L36.733 187.106C36.7849 187.076 36.8458 187.065 36.9049 187.075L36.9479 187.086C36.9038 187.226 36.8981 187.243 36.9479 187.086C62.2491 195.503 100.268 199.317 127.167 200.527ZM118.117 228.251C118.531 228.427 118.524 228.641 118.768 229.326C123.868 243.494 131.897 265.462 137.528 279.354C142.61 291.849 143.328 292.043 143.476 292.345C146.821 291.782 155.709 289.655 157.101 289.263C157.908 284.388 159.873 227.941 150.238 202.392C144.319 202.392 133.189 202.128 119.583 201.325C92.3217 199.528 63.2367 195.924 37.1673 187.741C37.4265 190.693 38.118 193.59 39.2193 196.338C42.8289 205.445 51.0131 213.651 58.9291 217.676C66.2043 221.322 73.8954 224.052 81.83 225.806C86.8733 226.987 92.0199 227.663 97.1949 227.822C105.624 228.347 117.853 228.194 118.116 228.251H118.117Z" fill="black"/>
<path fill-rule="evenodd" clip-rule="evenodd" d="M308.958 177.45C309.121 177.45 309.283 177.421 309.436 177.366C309.436 177.366 309.387 181.066 309.294 182.251C308.753 188.692 306.528 194.874 302.847 200.164C291.585 216.101 251.056 221.353 231.528 219.222C219.25 217.886 190.743 211.1 183.893 201.837C183.713 201.581 183.561 201.305 183.441 201.014C220.41 199.149 260.144 193.622 298.866 182.651C303.55 181.324 306.761 179.662 308.958 177.45Z" fill="#F5F7FA"/>
<path fill-rule="evenodd" clip-rule="evenodd" d="M309.508 177.093L309.55 177.109C309.579 177.122 309.605 177.139 309.629 177.16C309.749 179.302 309.701 181.45 309.484 183.584C308.877 188.856 307.156 193.935 304.439 198.479C303.05 200.878 301.258 203.015 299.144 204.795C284.745 217.248 249.699 222.25 229.124 219.602C217.338 217.901 190.204 211.689 183.273 202.148C183.046 201.822 182.871 201.462 182.754 201.081C182.741 200.931 182.776 200.78 182.855 200.652C182.933 200.524 183.051 200.425 183.19 200.37C184.565 199.922 237.446 199.152 298.321 182.448C301.959 181.442 305.818 180.075 308.56 177.458C308.755 177.271 308.786 177.204 308.937 177.178C309.102 177.173 309.265 177.144 309.421 177.09C309.45 177.087 309.479 177.088 309.508 177.093ZM300.451 182.523C296.647 183.765 282.517 187.669 266.599 191.076C239.581 196.709 212.175 200.244 184.622 201.649C189.248 207.879 205.051 212.802 212.817 214.853C218.403 216.335 224.068 217.496 229.784 218.333C248.769 220.829 285.564 216.256 299.573 203.209C303.645 199.576 306.835 192.952 308.078 187.684C308.855 184.42 309.212 181.07 309.142 177.715C306.663 179.99 303.684 181.638 300.451 182.523ZM309.266 177.139L309.256 177.15L309.273 177.137L309.266 177.139Z" fill="black"/>
<path fill-rule="evenodd" clip-rule="evenodd" d="M293.66 184.091C293.623 184.312 293.594 184.519 293.571 184.711C292.912 189.885 290.491 194.666 286.721 198.236C270.465 214.256 231.619 213.647 230.987 214.285C230.576 214.699 226.17 274.786 226.021 274.932C225.538 275.417 201.213 275.361 198.043 273.761C197.547 273.513 192.874 223.515 201.211 199.847C232.433 197.408 263.375 192.135 293.66 184.091Z" fill="#D81159"/>
<path fill-rule="evenodd" clip-rule="evenodd" d="M293.722 183.822C294.045 183.925 293.909 184.205 293.85 184.735C293.625 186.782 293.105 188.786 292.306 190.681C287.072 203.681 269.775 209.309 256.176 211.985C244.738 214.238 232.891 214.566 231.503 214.781C231.064 216.994 226.915 273.772 226.705 274.94C226.697 275.1 226.638 275.253 226.536 275.375C226.434 275.498 226.295 275.584 226.14 275.619C224.086 276.136 202.444 275.994 198.184 274.563C197.323 274.273 197.302 274.314 196.95 270.988C195.134 252.882 194.461 218.197 199.977 201.5C200.177 200.798 200.418 200.109 200.699 199.436C201.039 199.057 200.505 199.307 208.934 198.523C262.178 193.539 292.718 183.666 293.722 183.822ZM275.941 188.882C251.499 194.544 226.683 198.414 201.688 200.464C201.612 200.616 200.625 203.744 200.13 205.992C195.139 227.055 197.357 266.876 198.62 273.248C201.798 274.482 221.81 274.717 225.409 274.357C225.409 274.242 229.955 215.385 230.429 214.064C230.661 213.598 230.963 213.595 232.862 213.472C242.138 212.888 254.517 212.042 266.016 208.646C275.631 205.84 286.627 200.824 291.088 191.823C292.245 189.568 292.995 187.124 293.303 184.604C293.349 184.245 294.08 184.565 275.941 188.882Z" fill="black"/>
<path fill-rule="evenodd" clip-rule="evenodd" d="M213.743 198.686C228.592 211.975 262.98 244.509 262.837 244.658C258.037 249.503 238.177 261.632 238.177 261.632C238.177 261.632 232.568 256.366 230.011 254.212C219.627 245.476 210.026 235.757 199.638 227.021C194.136 222.393 188.089 213.962 187.505 200.79C196.126 200.3 204.889 199.606 213.743 198.686Z" fill="#D81159"/>
<path fill-rule="evenodd" clip-rule="evenodd" d="M188.009 201.248C188.249 206.154 189.444 210.964 191.527 215.403C193.504 219.643 196.368 223.4 199.92 226.417C206.32 231.829 208.743 234.091 217.162 241.841C229.324 253.068 226.446 249.902 238.262 260.763C238.895 260.421 258.111 248.461 261.904 244.631C259.867 242.503 222.753 207.18 213.645 198.97C202.78 200.245 192.347 200.929 188.009 201.248ZM243.314 225.259C264.605 245.091 263.616 244.382 263.449 244.894C265.324 244.894 239.378 262.176 238.223 262.324C237.611 262.324 238.215 262.406 230.358 255.422C216.454 243.496 210.096 236.769 199.229 227.526C192.632 221.784 188.408 213.755 187.39 205.023C187.171 203.55 187.069 202.061 187.086 200.572C187.425 200.049 186.674 200.572 203.389 199.298C212.959 198.568 213.71 198.295 213.933 198.475C213.803 198.622 213.594 198.857 213.933 198.475C230.26 212.945 243.146 225.259 243.314 225.259Z" fill="black"/>
<path fill-rule="evenodd" clip-rule="evenodd" d="M100.195 173.373C99.9391 173.408 103.768 127.264 106.945 117.387C107.881 114.474 185.32 95.8602 186.263 96.8088C187.131 97.6844 181.992 152.415 181.765 152.643C181.139 153.273 119.429 170.808 100.195 173.373Z" fill="#F5F7FA"/>
<path fill-rule="evenodd" clip-rule="evenodd" d="M100.136 173.647C99.3953 173.57 103.475 126.138 106.402 117.205C107.29 113.757 181.334 96.2347 185.966 96.0806C187.161 96.0475 187.049 96.9778 187.049 98.2792C186.74 108.781 183.429 143.914 182.687 150.561C182.43 153.005 182.502 153.087 181.765 153.37C176.244 155.437 120.021 170.911 100.928 173.554C100.667 173.608 100.402 173.637 100.136 173.642V173.647ZM114.149 115.079C107.702 117.088 107.579 117.59 107.466 117.63C104.113 129.461 100.469 170.927 100.469 173.055C117.369 170.596 175.09 154.406 181.173 152.175C182.091 143.968 185.666 105.304 185.666 97.4961C179.889 98.1787 133.468 109.065 114.149 115.079Z" fill="black"/>
<path fill-rule="evenodd" clip-rule="evenodd" d="M179.826 103.865C180.967 104.093 180.844 105.03 180.844 106.215C180.966 110.015 180.076 121.228 179.976 122.609C179.17 133.716 179.429 132.139 179.147 132.761L178.764 132.917H178.757L178.384 132.741L178.227 132.342C178.227 126.724 178.64 117.451 178.695 111.08C178.695 106.496 178.622 106.879 178.622 106.212C172.904 106.817 167.277 108.108 161.861 110.057C155.916 112.112 157.603 111.863 155.928 111.796L155.209 111.017V111.011L155.251 109.948C156.187 109.065 155.669 109.344 157.649 108.638C162.063 107.042 166.585 105.77 171.181 104.831C174.03 104.261 176.922 103.937 179.826 103.865Z" fill="black"/>
<path fill-rule="evenodd" clip-rule="evenodd" d="M102.468 147.612C101.145 160.074 100.195 171.746 100.185 173.217C94.583 173.04 61.9506 160.125 61.8578 159.071C61.782 158.235 61.6112 155.688 62.1892 155.887C62.9211 156.138 65.2762 157.27 65.2762 157.27C65.2762 157.27 94.6972 149.328 102.468 147.612Z" fill="black"/>
<path fill-rule="evenodd" clip-rule="evenodd" d="M102.503 147.336C102.566 147.344 102.623 147.375 102.666 147.422L102.697 147.458C102.712 147.486 102.725 147.515 102.735 147.545L102.742 147.593V147.64C102.563 147.62 102.234 147.585 102.742 147.64C102.73 147.769 101.306 163.85 100.869 171.416C100.737 173.548 100.823 173.242 100.714 173.502C100.46 173.898 100.165 173.856 99.4138 173.757C93.6663 173.049 74.8196 165.69 68.7236 163.141C61.5055 160.116 61.2306 159.747 61.1684 159.045C61.0938 158.143 60.9422 156.256 61.4275 155.556C61.8799 154.963 62.424 155.228 62.898 155.424C63.605 155.723 64.4896 156.139 65.1853 156.47C65.6377 156.684 66.8549 155.907 90.2897 150.164C91.5578 149.856 102.088 147.321 102.503 147.336ZM65.0755 157.923L64.9873 157.889C63.2407 157.052 62.5948 156.8 62.4806 156.747C62.4466 157.342 62.4534 157.939 62.501 158.533C62.5213 158.815 62.501 158.762 62.6016 158.822C66.2802 161.051 93.0566 171.567 99.6141 172.561C100.27 164.366 101.417 153.706 102.143 147.982C94.0351 149.925 65.6683 158.06 65.0755 157.923Z" fill="black"/>
<path fill-rule="evenodd" clip-rule="evenodd" d="M102.37 144.095C101.047 156.557 99.5854 168.253 99.5753 169.725C93.9736 169.548 60.5233 156.343 61.2484 155.579C64.8716 151.769 93.2425 146.111 102.37 144.095Z" fill="black"/>
<path fill-rule="evenodd" clip-rule="evenodd" d="M101.895 143.089C101.957 143.098 102.016 143.128 102.061 143.173L102.088 143.211C102.103 143.238 102.116 143.267 102.126 143.297L102.133 143.345V143.392C101.954 143.373 101.625 143.337 102.133 143.392C99.7362 171.436 100.302 168.8 100.107 169.257C99.8505 169.666 99.5416 169.599 98.8912 169.524C92.3677 168.695 66.6524 158.717 61.6967 156.021C61.1187 155.706 60.5542 155.418 60.5542 154.803C60.7397 153.381 66.3232 151.505 67.6298 151.069C78.1317 147.601 101.781 143.084 101.895 143.089ZM101.476 143.738C94.0644 145.478 67.7078 151.272 62.3494 154.811C67.1083 157.367 93.1742 167.534 98.9998 168.299C98.9998 167.306 99.8878 158.466 99.9885 157.487C101.474 143.055 101.658 143.697 101.476 143.738Z" fill="#F5F7FA"/>
<path fill-rule="evenodd" clip-rule="evenodd" d="M184.553 123.465C184.802 123.423 185.051 123.387 185.3 123.359C186.64 123.206 189.146 123.966 190.321 123.293C190.459 123.212 190.531 122.516 190.58 122.338C190.873 121.259 191.005 120.186 191.209 119.089C191.866 116.277 192.711 113.513 193.738 110.817C196.019 110.467 198.476 109.379 200.581 109.722C203.021 110.121 204.4 113.015 206.995 113.817C210.64 114.941 212.305 112.578 212.623 113.024C213.955 114.887 214.382 118.093 215.482 120.209C216.258 121.328 217.128 122.378 218.083 123.346C213.864 127.555 209.862 131.89 207.644 137.249C203.936 140.695 201.161 143.443 195.963 144.484C193.762 144.925 191.112 144.369 188.883 144.322C186.809 144.274 184.735 144.224 182.662 144.172C183.201 138.598 183.907 130.97 184.553 123.465Z" fill="#F5F7FA"/>
<path fill-rule="evenodd" clip-rule="evenodd" d="M185.935 123.042C187.432 123.08 188.996 123.474 190.072 123.018C190.128 122.793 190.171 122.564 190.2 122.333C190.879 119.452 190.515 118.819 192.225 113.727C193.397 110.242 193.243 110.563 193.434 110.396C193.608 110.288 193.554 110.334 194.174 110.206C197.228 109.579 199.789 108.2 202.53 109.877C204.195 110.987 205.159 112.388 206.922 113.117C208.2 113.622 209.624 113.594 210.881 113.04C211.827 112.584 212.012 112.345 212.474 112.31C213.019 112.302 213.193 112.638 213.555 113.259C214.811 115.428 215.201 118.895 216.634 120.679C218.43 122.929 218.983 122.894 218.705 123.647C218.091 124.661 211.449 130.068 208.327 137.398C208.182 137.741 208.362 137.52 206.921 138.866C204.665 141.199 201.969 143.053 198.993 144.318C195.516 145.609 193.828 145.397 190.13 145.022C188.946 144.919 189.144 144.964 184.209 144.784C182.382 144.721 182.546 144.756 182.322 144.605C182.02 144.298 182.089 144.46 182.485 140.791C184.384 122.588 184.25 123.378 184.392 123.249C184.417 123.231 184.444 123.217 184.473 123.207L184.517 123.195C184.983 123.092 185.458 123.04 185.935 123.042ZM194.128 111.285C193.668 112.605 192.942 114.558 192.697 115.306C191.46 118.804 191.625 119.847 190.78 123.17C190.746 123.331 190.66 123.476 190.535 123.581C189.29 124.38 186.717 123.44 184.812 123.707C184.405 129.3 183.75 138.033 183.257 143.623C186.107 143.562 188.958 143.652 191.799 143.893C194.319 144.251 196.886 143.863 199.192 142.777C201.792 141.508 204.149 139.785 206.154 137.687C207.303 136.619 206.963 137.026 207.34 136.211C209.394 131.509 213.51 126.904 217.127 123.328C216.36 122.528 215.655 121.67 215.018 120.763C213.92 118.854 213.378 115.532 212.316 113.765C211.594 114.215 210.796 114.527 209.963 114.684C208.715 114.88 207.439 114.722 206.275 114.227C204.405 113.428 203.089 111.637 201.783 110.837C199.681 109.5 197.171 110.761 194.128 111.288V111.285Z" fill="black"/>
<path fill-rule="evenodd" clip-rule="evenodd" d="M252.367 147.913C252.539 148.339 252.267 148.836 251.236 151.049C248.138 157.669 241.885 170.112 239.031 174.836C237.931 176.569 237.996 176.509 235.814 176.49C229.551 176.414 191.599 173.728 188.798 172.423C188.705 172.384 188.621 172.326 188.552 172.251C188.484 172.177 188.432 172.088 188.401 171.991C188.37 171.894 188.36 171.792 188.373 171.691C188.386 171.59 188.42 171.493 188.474 171.407C189.652 169.243 209.812 145.575 212.471 143.63C212.554 143.744 212.57 143.771 212.471 143.63C212.689 143.502 237.13 145.843 244.208 146.583C252.186 147.429 252.124 147.421 252.367 147.913ZM212.595 144.252C211.394 144.858 196.72 162.758 194.39 165.659C190.601 170.356 190.013 171.286 189.877 171.46C189.991 171.472 194.618 172.464 219.555 174.215C220.261 174.264 236.895 175.459 237.282 174.974C238.66 173.086 242.233 166.148 243.347 163.995C249.869 151.313 250.7 149.078 250.943 148.629C249.864 148.468 212.892 143.989 212.595 144.252Z" fill="black"/>
<path d="M232.132 166.205C224.657 164.499 217.088 163.243 209.466 162.443C209.319 162.496 209.158 162.496 209.01 162.444C208.863 162.393 208.737 162.292 208.653 162.159C208.57 162.025 208.533 161.867 208.55 161.711C208.567 161.554 208.636 161.407 208.745 161.295C209.023 161.014 209.311 160.724 219.319 162.317C224.087 163.076 230.058 164.143 232.519 164.865C232.606 164.89 232.687 164.933 232.758 164.99C232.829 165.048 232.888 165.119 232.931 165.199C232.975 165.279 233.003 165.368 233.013 165.459C233.022 165.55 233.015 165.642 232.989 165.73C232.964 165.818 232.921 165.9 232.865 165.972C232.808 166.043 232.737 166.102 232.658 166.147C232.578 166.191 232.491 166.219 232.4 166.229C232.31 166.238 232.219 166.23 232.132 166.205Z" fill="black"/>
<path d="M234.047 156.143C230.152 155.002 217.864 153.198 216.589 153.376C216.408 153.399 216.224 153.349 216.079 153.236C215.935 153.123 215.84 152.957 215.817 152.773C215.793 152.59 215.843 152.405 215.955 152.258C216.067 152.112 216.231 152.017 216.413 151.993C218.004 151.788 230.467 153.642 234.433 154.804C234.604 154.86 234.747 154.98 234.832 155.141C234.917 155.301 234.936 155.489 234.886 155.663C234.835 155.838 234.72 155.986 234.563 156.075C234.406 156.165 234.221 156.189 234.047 156.143Z" fill="black"/>
<path fill-rule="evenodd" clip-rule="evenodd" d="M76.5236 43.9105C76.0657 44.0253 75.5882 44.0363 75.1256 43.9425C74.663 43.8488 74.2268 43.6526 73.8483 43.3683C73.6583 42.8375 70.8383 39.3901 67.8813 41.2279C65.8271 42.5042 65.9368 45.8842 66.43 47.8922C67.1087 50.6855 69.5385 50.7323 71.5373 50.528C71.6131 50.5211 71.3394 63.5345 71.7409 64.6612C72.3902 66.4808 89.935 77.1324 91.151 76.1221C93.2143 74.4099 90.7053 65.6886 90.8919 65.4569C91.1793 65.103 95.6203 66.4694 99.705 64.8861C107.58 61.8222 106.699 53.4503 106.605 48.0782C106.392 43.0717 105.726 38.0952 104.616 33.211C104.092 30.7605 103.412 28.3469 102.579 25.9851C102.154 27.896 99.127 28.7248 97.5377 29.0455C92.1593 30.0841 86.6026 29.6332 81.4578 27.7408C79.6479 27.0456 74.682 23.4737 74.716 23.8367C75.2526 27.4312 75.9795 30.994 76.8935 34.51C77.3392 36.5967 78.407 39.2097 78.0926 41.414C78.094 41.9377 77.9471 42.451 77.6691 42.8933C77.3912 43.3356 76.9937 43.6886 76.5236 43.9105Z" fill="#F5F7FA"/>
<path fill-rule="evenodd" clip-rule="evenodd" d="M102.379 25.3356C102.467 25.3075 102.56 25.2974 102.652 25.3057C102.744 25.3141 102.833 25.3407 102.915 25.3842C102.996 25.4276 103.069 25.4869 103.127 25.5587C103.186 25.6305 103.23 25.7133 103.257 25.8024C104.639 29.9778 105.664 34.2646 106.323 38.6161C107.329 44.2769 107.672 52.8007 107.086 56.1066C106.914 57.8708 106.332 59.5694 105.389 61.065C104.446 62.5606 103.167 63.8113 101.657 64.716C98.3591 66.6007 95.3479 66.4865 91.6602 66.1144C92.1806 68.8792 93.5086 74.4772 91.7733 76.4406C91.6363 76.611 91.4541 76.7384 91.248 76.8081C91.0419 76.8779 90.8204 76.887 90.6093 76.8345C89.0474 76.3933 87.5438 75.764 86.131 74.9601C81.834 72.6776 77.6896 70.114 73.7242 67.2856C72.826 66.6007 71.455 65.6087 71.1779 64.8347C70.7706 63.1224 71.0647 53.8418 71.0647 51.0622C67.3126 51.2905 65.919 49.665 65.7323 45.9755C65.5061 40.1537 70.0071 39.059 72.869 41.729C73.0863 41.9201 73.2925 42.1236 73.4866 42.3386C74.4142 43.4311 73.8542 43.084 74.4447 43.3877C75.042 43.7348 75.7505 43.8312 76.4175 43.6559C76.663 43.5455 76.8877 43.393 77.0815 43.205C77.6688 42.4003 77.9374 41.4035 77.8349 40.4094C77.6469 38.7056 77.2794 37.0268 76.7388 35.4016C75.709 31.5887 74.8783 27.7238 74.2502 23.823C74.2502 23.6935 74.301 23.5693 74.3915 23.4775C74.482 23.3858 74.6049 23.3339 74.7332 23.3333C75.8783 23.7841 76.9563 24.3922 77.9367 25.1404C79.9916 26.6483 82.3456 27.6896 84.8369 28.1928C86.7787 28.6405 88.7588 28.8982 90.7496 28.9622C93.7235 29.0432 98.4948 28.7122 100.972 27.0752C102.249 26.0707 101.694 25.8093 102.216 25.4177C102.267 25.3842 102.322 25.3567 102.379 25.3356ZM72.0308 50.5633C72.1281 51.4594 71.9403 62.4912 72.2762 64.3758C72.5511 65.6886 88.1128 75.2363 90.8198 75.5183C90.9706 75.3352 91.074 75.1171 91.1206 74.8836C91.6862 73.1188 90.8299 68.8335 90.4815 67.1212C90.3598 66.5983 90.2673 66.069 90.2044 65.5356C90.1956 65.3587 90.2484 65.1843 90.3537 65.0425C90.7541 64.5859 91.3435 64.708 92.0912 64.7856C95.8026 65.1829 98.5503 65.1281 101.671 63.0791C105.765 60.0962 106.101 55.4434 105.97 50.2323C105.968 45.6365 105.5 41.053 104.574 36.5534C104.041 33.5092 103.329 30.4997 102.442 27.541C101.762 28.2063 100.942 28.7075 100.043 29.0067C94.8332 30.969 86.0654 30.3765 81.0158 28.1334C79.3959 27.3812 76.672 25.4782 75.2694 24.6164C75.5454 26.9577 76.2648 29.9873 76.8247 32.445C77.198 34.0842 77.2421 34.4278 77.3903 35.0191C78.0566 37.7988 78.7907 39.4962 78.2715 42.1046C78.1656 42.6421 77.9169 43.1404 77.5521 43.5464C77.2898 43.8099 76.9804 44.021 76.6403 44.1685C76.1112 44.3308 75.5495 44.352 75.0098 44.2299C74.4702 44.1079 73.9711 43.8468 73.5613 43.4722V43.4607L73.5533 43.4505C73.5454 43.4242 73.5285 43.4117 73.516 43.3797C72.1054 41.5281 69.989 40.2976 68.0399 41.5749C66.5558 42.5681 66.3986 44.8671 66.6395 46.6456C66.6658 47.7162 67.1082 48.7335 67.8714 49.4777C69.7152 50.875 72.0308 49.3533 72.0308 50.5599V50.5633Z" fill="black"/>
<path fill-rule="evenodd" clip-rule="evenodd" d="M70.0982 40.2683C65.2057 36.0313 64.5293 26.077 67.8836 21.4352C69.3868 19.6003 70.9946 18.9709 72.0469 19.3642C72.0469 18.6563 70.6744 11.9099 75.7103 10.6521C92.9363 6.34941 108.661 8.73812 107.307 15.9994C106.212 21.8748 107.934 32.2783 105.166 34.6299C105.125 34.65 105.08 34.6613 105.034 34.6631C104.989 34.6649 104.943 34.6571 104.9 34.6401C104.356 31.6958 103.581 28.7997 102.582 25.9794C102.156 27.8903 99.1292 28.719 97.5399 29.0398C92.1615 30.0784 86.6049 29.6275 81.4601 27.735C79.0289 26.8012 76.5167 33.046 76.8958 34.5043C77.3415 36.591 78.4093 39.204 78.0948 41.4083C78.0974 41.933 77.951 42.4475 77.6729 42.8909C77.3949 43.3343 76.9969 43.6882 76.5259 43.9105C76.068 44.0253 75.5905 44.0363 75.1279 43.9425C74.6653 43.8488 74.2291 43.6526 73.8506 43.3683C73.6606 42.8375 70.8405 39.3901 67.8836 41.2279C67.2423 41.6442 70.3447 39.5402 70.0982 40.2683Z" fill="#181819"/>
<path fill-rule="evenodd" clip-rule="evenodd" d="M100.781 37.8204C101.529 40.1572 102.161 42.5304 102.674 44.931C102.814 45.568 103.085 46.8271 103.145 47.4766C103.167 47.6356 103.139 47.7975 103.067 47.9404C102.995 48.0833 102.881 48.2003 102.74 48.2757C101.512 49.0416 99.0072 48.9606 98.3002 49.0268H98.3171H98.307L98.3239 49.0211L98.3477 49.0085L98.3929 48.9766L98.4484 48.9126C98.4936 48.7985 98.5671 48.7711 98.1576 49.0405L97.9438 48.7117C97.9506 48.6812 97.962 48.6519 97.9778 48.625L98.0027 48.5907C98.0411 48.5418 98.0943 48.5069 98.1543 48.4914C99.3839 48.1781 100.593 47.7873 101.774 47.3213C100.991 44.2215 100.471 41.0597 100.222 37.8706V37.8626V37.8341L100.496 37.5487L100.781 37.8204Z" fill="black"/>
<path fill-rule="evenodd" clip-rule="evenodd" d="M101.325 55.3783V55.3852C101.049 55.7732 100.669 56.0737 100.23 56.2516C99.9714 56.3377 99.703 56.3902 99.4313 56.408C99.2843 56.4148 99.2288 56.408 99.127 56.408C98.7058 56.4216 98.2875 56.3322 97.9079 56.1473C97.5284 55.9625 97.1988 55.6876 96.9473 55.3463C96.9187 55.3178 96.8964 55.2836 96.8817 55.2459L96.867 55.2048C96.867 55.1169 96.8466 55.2048 96.867 55.0621L96.8851 55.0176L96.9054 54.9788C96.9223 54.9551 96.9421 54.9336 96.9642 54.9148L96.9982 54.8909L97.04 54.8715L97.393 55.0301L97.3749 54.989L97.3443 54.9457L97.324 54.924H97.3341L97.3206 54.9126H97.3341L97.324 54.9057C97.5027 54.9331 98.0027 54.9388 98.1248 54.9445C98.7194 55.0157 99.3201 55.0191 99.9155 54.9548C101.386 54.9046 100.82 54.8326 101.419 54.9776L101.325 55.3783ZM97.2368 55.4011C97.4258 55.2219 97.385 55.3075 97.4065 55.0724L97.393 55.045L97.2368 55.4011Z" fill="black"/>
<path fill-rule="evenodd" clip-rule="evenodd" d="M91.0138 33.3504C92.178 33.2784 93.3419 33.4968 94.4078 33.9872C95.4738 34.4776 96.4106 35.2258 97.1398 36.1689C97.0013 36.1689 97.4461 36.044 98.1763 38.4303C99.0077 41.0938 99.4567 43.5993 97.9657 45.9195C94.0761 51.3943 82.4707 49.6264 82.4707 40.9282C82.5137 39.6331 82.4707 38.3959 82.4707 36.7012C82.4707 35.1538 85.0279 34.4653 86.5622 33.9872C88.0965 33.5091 89.6729 33.2535 91.0138 33.3504ZM87.7256 35.0365C86.6945 35.1894 84.5165 36.3858 84.5165 37.7486C84.5165 39.7034 84.5165 41.4629 84.5165 43.0527C84.5165 44.536 86.4228 46.1732 88.6079 46.7576C90.0365 47.1396 91.0138 47.1894 92.6132 47.1894C95.6668 47.1894 97.4729 45.3304 97.4729 43.0527C97.4729 41.1026 97.4785 38.8556 96.8516 37.0247C95.4229 33.8123 90.3176 34.6521 87.7256 35.0365Z" fill="black"/>
<path fill-rule="evenodd" clip-rule="evenodd" d="M111.285 35.0253C110.726 34.1615 109.944 33.5005 109.039 33.1272C108.135 32.7539 107.149 32.6852 106.208 32.93C104.604 33.1782 103.395 34.6015 102.7 36.8209C101.513 40.5956 103.321 44.7334 106.009 45.6141C107.173 46.0092 108.428 45.9228 109.538 45.3711C110.647 44.8193 111.532 43.8407 112.027 42.6209C112.484 40.7914 112.454 38.857 111.941 37.0453C111.841 36.3328 111.618 35.6474 111.285 35.0253Z" fill="#F5F7FA"/>
<path fill-rule="evenodd" clip-rule="evenodd" d="M109.787 32.0692C110.731 32.6782 111.623 35.1363 111.881 36.4289C112.521 38.4698 112.689 40.6872 112.367 42.8375C112.058 44.0781 111.433 45.1645 110.583 45.9369C109.733 46.7093 108.703 47.1268 107.645 47.1279C106.969 47.1862 106.29 47.0681 105.653 46.7814C105.017 46.4946 104.437 46.0458 103.953 45.4644C101.671 42.8184 101.768 38.3193 101.768 35.4381C101.768 33.7128 104.084 33.0361 105.099 32.4753C106.152 31.9334 108.789 31.425 109.787 32.0692ZM105.767 33.619C104.868 34.1172 103.029 34.682 103.029 35.953C103.138 37.0957 103.22 39.9174 103.294 40.6952C103.667 44.5887 105.017 45.4229 106.124 45.4644C106.965 45.4959 108.716 45.3091 109.739 45.079C110.843 44.8305 111.506 43.423 111.506 42.4252C111.506 41.4275 111.639 40.1161 111.506 38.9546C111.433 37.6717 111.21 36.4083 110.843 35.2035L110.828 35.1785L110.819 35.1563C110.551 34.4015 110.048 33.4956 109.47 33.1646C108.77 32.764 106.929 33.1083 105.767 33.619Z" fill="black"/>
<path d="M91.97 42.5418C91.7867 42.5418 91.6109 42.4683 91.4812 42.3375C91.3516 42.2067 91.2788 42.0293 91.2788 41.8443C91.2788 41.4824 91.3105 41.0715 91.3105 40.0327C91.3105 38.6891 92.9507 39.0362 92.7018 40.0327C92.6588 42.2119 92.6611 41.3466 92.6611 41.85C92.6599 42.0341 92.5865 42.2102 92.457 42.3398C92.3275 42.4695 92.1524 42.5421 91.97 42.5418Z" fill="black"/>
<path d="M105.592 40.802C105.428 40.8013 105.269 40.7418 105.145 40.6341C105.021 40.5263 104.938 40.3775 104.913 40.2141C104.869 39.9424 104.792 39.2484 104.661 38.4208C104.448 37.0966 106.131 37.1765 106.032 38.1925C106.329 40.3089 106.179 39.3648 106.277 39.9938C106.293 40.0938 106.288 40.1961 106.261 40.2936C106.233 40.3911 106.186 40.4815 106.12 40.5585C106.055 40.6354 105.974 40.6971 105.883 40.7391C105.791 40.7812 105.692 40.8026 105.592 40.802Z" fill="black"/>
<path d="M97.8801 40.8706C97.5714 40.8706 97.4803 40.7245 97.4052 40.3717C97.3671 40.1942 97.3827 40.0034 97.4485 39.8414C97.5143 39.6793 97.6249 39.5593 97.7561 39.5076C97.9855 39.4163 97.4086 39.632 99.0331 39.2302C99.9341 38.9677 100.847 38.7835 101.765 38.6788C101.902 38.6788 102.033 38.7523 102.129 38.8831C102.226 39.0139 102.28 39.1913 102.28 39.3763C102.28 39.5613 102.226 39.7387 102.129 39.8695C102.033 40.0003 101.902 40.0738 101.765 40.0738C101.047 40.0738 98.4165 40.8706 97.8801 40.8706Z" fill="black"/>
<path d="M83.7615 40.7244C77.5504 40.7244 78.2709 40.5875 78.2012 39.9254L78.8049 39.8397L78.8577 39.1457C79.0789 39.1628 82.5669 39.3249 83.7615 39.3249C83.923 39.3249 84.0778 39.3984 84.192 39.5292C84.3061 39.66 84.3703 39.8374 84.3703 40.0224C84.3703 40.2074 84.3061 40.3848 84.192 40.5156C84.0778 40.6464 83.923 40.7199 83.7615 40.7199V40.7244Z" fill="black"/>
<path fill-rule="evenodd" clip-rule="evenodd" d="M270.652 106.947C270.321 102.321 275.687 101.655 277.76 102.119C279.975 102.615 281.372 104.255 283.431 104.43C286.711 104.707 287.089 103.855 289.776 103.483C293.691 105.102 296.203 117.983 296.941 121.976C298.841 132.302 297.408 138.281 294.882 141.195C289.77 147.091 274.934 154.174 264.398 158.728C259.017 161.054 239.637 164.435 238.472 163.107C236.403 160.746 243.967 159.895 243.967 159.895C243.967 159.895 236.765 159.862 236.644 158.728C236.486 157.207 238.922 156.482 241.206 156.134C242.481 156.11 243.753 156.003 245.014 155.811C243.739 155.844 242.468 155.951 241.206 156.134C239.499 156.144 238.697 155.989 238.472 154.868C237.982 152.4 244.721 152.44 245.014 152.144C245.153 152.006 244.568 150.69 244.492 150.469C244.276 149.92 244.202 149.325 244.275 148.739C244.348 148.153 244.567 147.595 244.911 147.117C246.494 145.519 249.186 151.327 249.475 151.622C249.486 151.633 253.26 150.469 253.26 150.469C253.26 150.469 277.392 130.703 280.251 130.512C280.251 130.512 273.8 116.35 270.652 106.947Z" fill="#F5F7FA"/>
<path fill-rule="evenodd" clip-rule="evenodd" d="M270.365 106.854C270.174 103.762 272.492 102.077 275.545 101.717C279.165 101.336 280.359 103.23 282.615 103.894C287.327 105.241 289.798 99.7069 292.497 105.716C295.473 112.094 295.342 109.912 296.705 117.638C296.705 117.638 298.277 126.329 298.55 129.595C298.796 132.764 298.874 138.562 296.745 140.879C290.539 147.087 278.881 153.303 265.43 159.036C262.922 160.087 260.318 160.89 257.655 161.433C255.316 161.981 239.881 165.243 238.058 163.665C237.816 163.434 237.63 163.15 237.515 162.835C237.124 161.642 238.095 160.805 239.246 160.324C238.305 160.209 236.564 159.994 236.095 159.189C235.928 158.823 235.909 158.406 236.043 158.027C236.189 157.657 236.41 157.321 236.69 157.041C236.971 156.761 237.306 156.542 237.674 156.399C238.534 156.009 238.398 156.197 238.24 155.957C238.034 155.683 237.897 155.364 237.838 155.025C237.779 154.687 237.8 154.339 237.9 154.011C238.579 152.152 242.287 151.867 244.259 151.64C244.079 151.152 243.933 150.8 243.907 150.727C243.376 149.311 243.583 146.987 244.947 146.341C246.907 145.532 248.707 149.06 249.761 150.917C250.494 150.698 251.69 150.337 252.504 150.09L252.943 149.955C252.943 150.069 274.349 131.994 278.679 130.137C278.629 130.016 270.398 107.293 270.365 106.854ZM245.131 155.141C245.277 155.167 245.411 155.241 245.511 155.352C245.611 155.463 245.672 155.605 245.684 155.754C245.696 155.904 245.658 156.053 245.577 156.179C245.496 156.305 245.375 156.4 245.235 156.449C244.052 156.646 242.857 156.764 241.658 156.804C240.625 156.833 237.586 157.466 237.342 158.426L237.335 158.44V158.454V158.467L237.328 158.495C238.396 159.139 243.975 159.197 244.091 159.208C244.244 159.234 244.384 159.312 244.486 159.429C244.589 159.546 244.65 159.695 244.657 159.851C244.634 160.591 244.037 160.568 243.492 160.65C242.392 160.814 239.542 161.335 238.847 162.209L238.817 162.263V162.271V162.282V162.306V162.321V162.328V162.335C238.826 162.361 238.837 162.386 238.851 162.41V162.423C238.88 162.471 238.912 162.517 238.948 162.561C239.096 162.789 241.698 162.675 244.065 162.401C250.643 161.634 256.656 160.979 262.991 159.036C274.174 153.755 287.841 148.768 296.745 139.489C297.529 138.476 297.657 137.09 297.78 135.811C298.197 126.267 295.644 112.437 291.726 106.33C291.642 106.143 289.761 102.986 289.458 102.858C287.44 104.972 286.45 104.236 285.155 104.776C283.747 104.986 282.311 104.716 281.073 104.008C279.34 103.107 278.385 102.259 276.252 102.303C273.355 102.376 270.727 103.84 270.928 106.745C270.928 107.201 279.593 130.153 279.611 130.374C279.613 130.479 279.575 130.58 279.505 130.657C279.434 130.735 279.338 130.782 279.234 130.79C276.549 131.061 253.685 150.867 253.572 150.947C253.711 150.947 251.47 151.625 250.247 152.003C248.964 152.391 249.212 152.352 248.08 150.405C247.51 149.254 246.686 148.251 245.672 147.472L245.626 147.457C245.596 147.448 245.565 147.442 245.534 147.44H245.512H245.495C245.485 147.44 245.47 147.449 245.453 147.455H245.447L245.426 147.468H245.416C245.314 147.562 245.229 147.673 245.164 147.795C245.014 148.098 244.932 148.43 244.922 148.768C244.894 149.266 244.963 149.764 245.125 150.236C245.465 151.202 245.934 151.923 245.53 152.498C245.233 152.841 244.958 152.805 243.218 153.026C242.114 153.129 241.028 153.374 239.986 153.755C239.679 153.865 239.405 154.055 239.194 154.307V154.317L239.173 154.348V154.357L239.166 154.367L239.159 154.385L239.153 154.396L239.146 154.414V154.423L239.136 154.45V154.459L239.129 154.479V154.488V154.498V154.528V154.539V154.585V154.598V154.623L239.136 154.651V154.665C239.142 154.701 239.156 154.756 239.163 154.788L239.17 154.804L239.176 154.836L239.183 154.85V154.865L239.19 154.878L239.197 154.905L239.203 154.917V154.929L239.21 154.941V154.953L239.217 154.963L239.224 154.983L239.231 154.993V155.003C239.576 155.459 240.822 155.442 241.746 155.324C242.87 155.197 244 155.137 245.131 155.143V155.141Z" fill="black"/>
<path fill-rule="evenodd" clip-rule="evenodd" d="M286.914 127.636L286.71 127.972C286.025 128.262 284.736 128.844 284.208 129.044C284.159 129.063 282.318 129.741 281.719 129.985C280.241 130.57 278.801 131.249 277.407 132.018H277.4V131.97L277.071 132.04C277.047 132.022 277.025 132 277.006 131.976L276.978 131.937L276.961 131.893C276.952 131.863 276.947 131.831 276.947 131.8C277.231 131.372 277.574 130.988 277.965 130.658C278.369 130.28 278.811 129.944 279.282 129.655C281.34 128.434 283.643 127.693 286.021 127.486C286.69 127.42 286.492 127.38 286.914 127.636Z" fill="black"/>
<path fill-rule="evenodd" clip-rule="evenodd" d="M37.6473 187.603C40.9165 188.663 44.5362 189.699 48.4762 190.696C41.9639 209.396 6.79537 303.759 6.51596 304.392C4.71285 308.472 -0.277936 307.328 1.78082 301.64C2.14846 300.63 31.7912 210.755 37.6473 187.603Z" fill="#F5F7FA"/>
<path fill-rule="evenodd" clip-rule="evenodd" d="M45.313 189.531C48.8785 190.481 48.6308 190.301 48.7823 190.535C49.1839 191.449 7.68525 303.786 6.83573 305.286C4.37767 309.319 -0.575794 307.674 0.872123 302.235C1.25333 300.781 30.5194 212.98 37.0022 188.962C37.4094 187.459 37.3789 187.528 37.4162 187.453C37.6922 187.101 37.4309 187.418 45.313 189.531ZM2.00444 303.637C1.8857 304.338 2.03794 305.058 2.42976 305.648C3.34263 306.773 4.98172 305.845 5.73056 304.435C5.83237 304.242 44.1298 201.918 48.0199 190.944C41.5495 189.27 38.2827 188.074 37.8393 187.966C29.8282 219.617 2.16054 302.057 2.00444 303.637Z" fill="black"/>
<path fill-rule="evenodd" clip-rule="evenodd" d="M291.107 184.774C295.478 203.979 327.091 299.825 327.471 300.878C329.528 306.562 324.537 307.706 322.737 303.626C322.44 302.956 283.321 197.992 279.972 187.564C283.687 186.683 287.399 185.753 291.107 184.774Z" fill="#F5F7FA"/>
<path fill-rule="evenodd" clip-rule="evenodd" d="M291.248 184.538L291.282 184.562L291.314 184.593C291.333 184.617 291.348 184.642 291.359 184.67L291.373 184.711C291.083 184.777 291.089 184.776 291.373 184.711C295.309 200.861 318.251 270.741 323.449 286.51C328.377 301.591 328.983 302.244 328.526 304.397C328.013 306.813 325.148 307.732 323.055 305.408C322.689 304.988 322.384 304.517 322.15 304.01C320.987 301.27 279.3 188.837 279.645 187.446C279.832 187.039 279.541 187.485 289.992 184.77C291.148 184.479 291.099 184.46 291.248 184.538ZM290.826 185.137C289.476 185.479 287.32 186.125 280.42 187.811C280.441 187.869 280.533 188.154 280.598 188.335C283.957 197.935 294.035 224.642 303.109 249.025C324.362 306.111 323.357 304.171 324.777 305.066C325.082 305.299 325.463 305.408 325.844 305.37C326.225 305.333 326.578 305.152 326.833 304.864C326.888 304.795 326.938 304.721 326.981 304.645L326.992 304.619C327.062 304.488 327.119 304.349 327.161 304.205C327.265 303.813 327.298 303.406 327.259 303.002C327.101 300.947 304.895 235.613 294.063 197.046C290.517 184.614 291.069 185.064 290.826 185.137Z" fill="black"/>
<ellipse cx="99.2885" cy="15.3101" rx="7.9736" ry="10.1828" fill="#181819"/>
<ellipse rx="4.3028" ry="10.331" transform="matrix(0.997521 -0.0703719 0.0691093 0.997609 103.411 10.6091)" fill="#181819"/>
<path fill-rule="evenodd" clip-rule="evenodd" d="M45.6702 180.115C46.5876 180.344 49.7142 180.915 50.3963 180.642C50.7718 179.986 48.1203 178.943 47.3421 178.668C46.9269 178.521 44.7403 177.947 44.4315 177.76C44.3138 177.674 44.2332 177.556 44.203 177.425C44.1728 177.293 44.1947 177.157 44.2652 177.038C44.7856 176.332 45.3297 176.968 48.9031 177.804C49.8363 178.022 53.4776 178.826 54.2197 178.282L54.2332 178.269C54.3882 178.068 54.1326 177.396 51.5523 176.425C50.0667 175.886 48.532 175.457 46.9642 175.14C46.1249 174.943 45.6883 174.932 45.5831 174.403C45.5689 174.267 45.6095 174.131 45.698 174.018C45.7865 173.905 45.9174 173.822 46.0683 173.784C46.7131 173.667 48.6124 174.446 52.0546 174.891C52.757 174.976 54.8305 175.198 55.3927 174.819L55.4165 174.801C55.5386 174.686 55.4527 174.356 54.6699 173.96C52.1496 172.711 46.9575 172.374 45.2166 170.6C44.585 170.042 44.2132 169.3 44.1725 168.518C44.2245 167.3 45.3421 166.467 45.953 165.47C46.2923 164.904 46.4597 164.348 45.8715 163.976C45.7054 163.882 45.5178 163.82 45.3216 163.794C45.1254 163.769 44.9252 163.781 44.7347 163.829C43.3523 164.492 42.0225 165.235 40.754 166.052C40.4147 166.15 40.0052 165.793 38.1715 164.235C37.9826 164.072 38.0256 164.18 38.003 163.767C38.4713 163.748 38.3559 163.718 38.5584 163.879C39.0177 164.243 40.1081 165.116 40.6047 165.43C41.3536 164.911 42.4463 164.235 43.2381 163.766C43.8152 163.301 44.5745 163.044 45.3614 163.049C45.7285 163.062 46.0837 163.166 46.3858 163.348C46.6879 163.53 46.9246 163.782 47.0683 164.076C47.6135 165.323 46.1487 166.675 45.5559 167.625C45.3141 167.932 45.2042 168.304 45.2456 168.674C45.2869 169.045 45.4769 169.391 45.7822 169.652C46.078 170.044 46.4935 170.358 46.9823 170.557C49.5298 171.632 54.5409 172.057 56.2049 173.57C56.4137 173.726 56.5732 173.926 56.6685 174.15C56.7638 174.374 56.7916 174.616 56.7494 174.852C56.7071 175.089 56.5962 175.312 56.4271 175.5C56.2579 175.689 56.0363 175.837 55.783 175.93C55.4506 176.05 55.0994 176.125 54.7411 176.152C53.9787 176.225 53.9222 176.138 54.0794 176.23C55.1257 176.836 55.9775 177.711 55.5013 178.727C54.8791 179.916 52.7288 179.696 51.2526 179.484C51.4732 179.699 51.6177 179.965 51.6685 180.25C51.7192 180.534 51.6742 180.826 51.5388 181.089C51.4501 181.265 51.3091 181.417 51.1301 181.53C50.9512 181.643 50.7408 181.713 50.5207 181.732C48.6301 181.775 46.7469 181.51 44.9677 180.953C43.9655 180.658 40.3298 179.425 37.6863 178.344C35.8643 177.601 34.1017 176.753 32.4104 175.805C31.8301 175.473 29.2646 173.917 29.1945 173.507C29.1913 173.467 29.2003 173.426 29.2206 173.389C29.2408 173.352 29.2716 173.32 29.31 173.297C29.3484 173.273 29.3931 173.259 29.4398 173.255C29.4866 173.251 29.5337 173.257 29.5768 173.273L29.6277 173.382L29.6696 173.33C32.2803 175.817 41.6839 179.106 45.6702 180.115Z" fill="black"/>
<path d="M28.3872 172.234L44.2781 177.591L50.5645 179.68C50.7908 179.755 50.9346 179.977 50.9102 180.214C50.878 180.528 50.5707 180.737 50.2668 180.652L38.642 177.392L32.8105 175.35L28.3872 172.234Z" fill="#F5F7FA"/>
<path d="M216.2 56.9222L215.75 57.5223L216.2 56.9222ZM208.872 32.1304C208.12 49.5188 213.035 55.4869 215.75 57.5223L216.65 56.3221C214.468 54.6865 209.632 49.2891 210.37 32.1952L208.872 32.1304ZM215.75 57.5223C216.651 58.1977 217.841 59.5203 218.958 61.1635C220.069 62.7983 221.064 64.6874 221.612 66.4603C222.17 68.264 222.216 69.7882 221.663 70.8234C221.148 71.7863 219.97 72.57 217.435 72.57V74.07C220.261 74.07 222.106 73.1765 222.985 71.5306C223.827 69.9569 223.64 67.9406 223.045 66.0174C222.442 64.0635 221.367 62.0395 220.198 60.3203C219.036 58.6094 217.737 57.1371 216.65 56.3221L215.75 57.5223Z" fill="black"/>
<path fill-rule="evenodd" clip-rule="evenodd" d="M27.3537 144.25C28.6409 145.492 29.8491 146.818 30.9725 148.221C33.6243 151.536 36.6425 156.959 37.8029 161.279C38.0401 162.074 38.2128 162.895 38.3195 163.734C38.3276 163.979 38.2274 164.074 38.1079 164.079L37.9509 163.908L38.139 163.723C38.1026 163.724 38.0661 163.738 38.0355 163.763C38.0049 163.788 37.982 163.821 37.9706 163.858L37.974 163.854L37.9713 163.868L37.9721 163.861L37.9703 163.871L37.9712 163.864L37.9703 163.872L37.9702 163.861L37.9672 163.864C37.9562 163.086 35.7653 156.516 30.5755 149.09C27.1173 144.166 27.0679 144.832 27.1107 144.261L27.3537 144.25Z" fill="black"/>
<path fill-rule="evenodd" clip-rule="evenodd" d="M34.3073 117.672C32.7125 117.977 31.0653 118.091 29.3736 118.012C25.0622 117.084 19.2794 115.824 14.8335 112.638C14.0084 112.083 13.1796 111.417 12.355 110.646C12.1228 110.392 12.0664 110.161 12.1015 110.002L12.3138 109.986L12.4256 110.427C12.4364 110.379 12.4353 110.317 12.4223 110.251C12.4094 110.186 12.3855 110.12 12.3545 110.065L12.3572 110.074L12.3453 110.056L12.3518 110.065L12.3426 110.051L12.3491 110.06L12.3416 110.05L12.3522 110.062L12.3499 110.054C13.0851 110.882 19.7699 114.509 28.4722 115.893C34.2479 116.79 33.8559 116.678 34.3784 117.35L34.3073 117.672Z" fill="black"/>
</svg>
