<svg width="24" height="24" viewBox="0 0 24 24" fill="none" xmlns="http://www.w3.org/2000/svg">
<path d="M6 3V6H9V3H6ZM10.5 3V6H13.5V3H10.5ZM17.6982 7.00781L17.0889 7.45605C17.0889 7.45605 16.5798 7.83005 16.0752 8.41406C15.5706 8.99807 15 9.82775 15 10.875C15 11.6121 15.0602 11.6459 15.1201 12H1.4707L1.5 12.7793C1.58157 14.8186 2.21303 16.5375 3.1875 17.8857V18H3.27832C4.69339 19.8829 6.80749 20.9923 9.18457 21H9.1875C12.0207 21 13.9859 20.3251 15.4277 19.1455C16.7676 18.0493 17.5926 16.5361 18.4395 14.915C21.2052 14.6723 22.4238 12.5156 22.4238 12.5156L22.6787 11.9941L22.2393 11.6191C22.2393 11.6191 20.985 10.7429 19.333 10.6289C19.0763 9.01739 18.1406 7.62305 18.1406 7.62305L17.6982 7.00781ZM1.5 7.5V10.5H4.5V7.5H1.5ZM6 7.5V10.5H9V7.5H6ZM10.5 7.5V10.5H13.5V7.5H10.5ZM17.2559 9.34863C17.5731 9.9094 18 10.4934 18 11.25V12.0879L18.832 11.9941C19.5952 11.9093 20.2083 12.1484 20.6572 12.3896C20.2813 12.8753 19.6055 13.5 18 13.5H17.543L17.332 13.9072C16.434 15.6482 15.6309 17.0425 14.4785 17.9854C13.3266 18.9278 11.7926 19.4995 9.19043 19.5C7.66672 19.4951 6.30888 18.971 5.25879 18H7.5V16.5H4.11035C3.63829 15.6572 3.29464 14.6666 3.15234 13.5H16.9775L16.6494 12.5127C16.6494 12.5127 16.5 12.1161 16.5 10.875C16.5 10.4223 16.8219 9.8435 17.209 9.39551C17.2332 9.36753 17.2318 9.3753 17.2559 9.34863ZM9.75 15C9.55109 15 9.36032 15.079 9.21967 15.2197C9.07902 15.3603 9 15.5511 9 15.75C9 15.9489 9.07902 16.1397 9.21967 16.2803C9.36032 16.421 9.55109 16.5 9.75 16.5C9.94891 16.5 10.1397 16.421 10.2803 16.2803C10.421 16.1397 10.5 15.9489 10.5 15.75C10.5 15.5511 10.421 15.3603 10.2803 15.2197C10.1397 15.079 9.94891 15 9.75 15Z" fill="white"/>
</svg>
