<svg width="32" height="32" viewBox="0 0 32 32" fill="none" xmlns="http://www.w3.org/2000/svg">
<path d="M7.54297 20.668L13.7496 11.3066" stroke="#BB6BD9" stroke-width="2" stroke-miterlimit="10" stroke-linecap="square"/>
<path d="M24.4576 20.668L18.251 11.3066" stroke="#BB6BD9" stroke-width="2" stroke-miterlimit="10" stroke-linecap="square"/>
<path d="M22.6668 24H9.3335" stroke="#BB6BD9" stroke-width="2" stroke-miterlimit="10" stroke-linecap="square"/>
<path d="M5.3335 28C7.54263 28 9.3335 26.2091 9.3335 24C9.3335 21.7909 7.54263 20 5.3335 20C3.12436 20 1.3335 21.7909 1.3335 24C1.3335 26.2091 3.12436 28 5.3335 28Z" stroke="#BB6BD9" stroke-width="2" stroke-miterlimit="10" stroke-linecap="square"/>
<path d="M26.667 28C28.8761 28 30.667 26.2091 30.667 24C30.667 21.7909 28.8761 20 26.667 20C24.4579 20 22.667 21.7909 22.667 24C22.667 26.2091 24.4579 28 26.667 28Z" stroke="#BB6BD9" stroke-width="2" stroke-miterlimit="10" stroke-linecap="square"/>
<path d="M16 12C18.2091 12 20 10.2091 20 8C20 5.79086 18.2091 4 16 4C13.7909 4 12 5.79086 12 8C12 10.2091 13.7909 12 16 12Z" stroke="#BB6BD9" stroke-width="2" stroke-miterlimit="10" stroke-linecap="square"/>
</svg>
