<svg width="31" height="31" viewBox="0 0 31 31" fill="none" xmlns="http://www.w3.org/2000/svg">
<g clip-path="url(#clip0)">
<path d="M1.11707 4.23413C1.11707 3.12956 2.0125 2.23413 3.11707 2.23413H23.6936C24.7982 2.23413 25.6936 3.12956 25.6936 4.23413V22.5764C25.6936 23.681 24.7982 24.5764 23.6936 24.5764H3.11707C2.0125 24.5764 1.11707 23.681 1.11707 22.5764V4.23413Z" stroke="#1371FD" stroke-width="2" stroke-miterlimit="10" stroke-linecap="square"/>
<path d="M1.11707 6.70264H25.6936" stroke="#1371FD" stroke-width="2" stroke-miterlimit="10" stroke-linecap="square"/>
<path d="M6.70264 2.23413V6.70259" stroke="#1371FD" stroke-width="2" stroke-miterlimit="10" stroke-linecap="square"/>
</g>
<g clip-path="url(#clip1)">
<path d="M12.5677 20.9457C12.5677 20.9457 15.9191 15.9187 20.9461 15.9187C25.9731 15.9187 29.3245 20.9457 29.3245 20.9457C29.3245 20.9457 25.9731 25.9727 20.9461 25.9727C15.9191 25.9727 12.5677 20.9457 12.5677 20.9457Z" fill="white"/>
<path d="M25.8366 19.8134C26.2952 20.2065 26.6851 20.6014 26.996 20.9458C26.6851 21.2902 26.2952 21.6852 25.8366 22.0783C24.5309 23.1974 22.8451 24.1539 20.9461 24.1539C19.047 24.1539 17.3612 23.1974 16.0555 22.0783C15.5969 21.6852 15.207 21.2902 14.8961 20.9458C15.207 20.6014 15.5969 20.2065 16.0555 19.8134C17.3612 18.6942 19.047 17.7378 20.9461 17.7378C22.8451 17.7378 24.5309 18.6942 25.8366 19.8134ZM30.8379 21.9548L31.2332 21.3619L31.5106 20.9458L31.2332 20.5298L30.855 19.9625C30.8428 19.9424 30.8353 19.9329 30.8373 19.936L30.8372 19.9358L30.8367 19.935L30.8362 19.9343L30.8349 19.9324L30.8339 19.9309L30.4219 19.3128L30.3923 19.3326C30.3118 19.2302 30.2208 19.1174 30.1196 18.9959C29.6783 18.4664 29.0318 17.7606 28.2041 17.0513C26.5778 15.6572 24.0744 14.0999 20.9461 14.0999C17.8178 14.0999 15.3143 15.6572 13.688 17.0513C12.8604 17.7606 12.2138 18.4664 11.7725 18.9959L12.2118 19.362L11.7725 18.9959C11.6713 19.1174 11.5803 19.2302 11.4999 19.3326L11.4702 19.3128L11.0561 19.9341L11.0556 19.9348L11.0551 19.9356L11.0548 19.936L11.0542 19.9369L10.6589 20.5298L10.3816 20.9458L10.6589 21.3619L11.0542 21.9548L11.0551 21.9561L11.0551 21.9561L11.0556 21.9568L11.056 21.9575L11.0573 21.9594L11.4702 22.5789L11.4999 22.5591C11.5803 22.6614 11.6713 22.7743 11.7725 22.8958C12.2138 23.4253 12.8604 24.131 13.688 24.8404C15.3143 26.2344 17.8178 27.7918 20.9461 27.7918C24.0744 27.7918 26.5778 26.2344 28.2041 24.8404C29.0318 24.131 29.6783 23.4253 30.1196 22.8958C30.2208 22.7743 30.3118 22.6614 30.3923 22.5591L30.4219 22.5789L30.8339 21.9608L30.8349 21.9592L30.8362 21.9573L30.8367 21.9566L30.8372 21.9559L30.8372 21.9559L30.8379 21.9548Z" fill="#1371FD" stroke="white" stroke-width="1.5" stroke-miterlimit="10" stroke-linecap="square"/>
<path d="M20.9461 22.6214C22.797 22.6214 24.2974 21.1209 24.2974 19.27C24.2974 17.4192 22.797 15.9187 20.9461 15.9187C19.0952 15.9187 17.5947 17.4192 17.5947 19.27C17.5947 21.1209 19.0952 22.6214 20.9461 22.6214Z" fill="white"/>
<path fill-rule="evenodd" clip-rule="evenodd" d="M20.9461 16.9878C19.6855 16.9878 18.6637 18.0096 18.6637 19.2702C18.6637 20.5307 19.6855 21.5525 20.9461 21.5525C22.2066 21.5525 23.2285 20.5307 23.2285 19.2702C23.2285 18.0096 22.2066 16.9878 20.9461 16.9878ZM16.5258 19.2702C16.5258 16.8289 18.5048 14.8499 20.9461 14.8499C23.3873 14.8499 25.3664 16.8289 25.3664 19.2702C25.3664 21.7114 23.3873 23.6905 20.9461 23.6905C18.5048 23.6905 16.5258 21.7114 16.5258 19.2702Z" fill="#1371FD"/>
</g>
<defs>
<clipPath id="clip0">
<rect width="26.8108" height="26.8108" fill="white"/>
</clipPath>
<clipPath id="clip1">
<rect width="20.1081" height="20.1081" fill="white" transform="translate(10.892 10.8918)"/>
</clipPath>
</defs>
</svg>
