<svg width="20" height="20" viewBox="0 0 20 20" fill="none" xmlns="http://www.w3.org/2000/svg">
<path d="M14.1321 3.38867L16.6112 5.86776" stroke="#171725" stroke-width="1.5" stroke-miterlimit="10" stroke-linecap="square"/>
<path d="M10.0002 12.4789L7.52112 9.99982L15.3716 2.14937C15.7031 1.83424 16.1446 1.6611 16.6019 1.66689C17.0593 1.67268 17.4963 1.85693 17.8197 2.18035C18.1431 2.50377 18.3274 2.94075 18.3331 3.3981C18.3389 3.85545 18.1658 4.29696 17.8507 4.62846L10.0002 12.4789Z" stroke="#171725" stroke-width="1.5" stroke-miterlimit="10" stroke-linecap="square"/>
<path d="M2.90505 13.5885C3.37001 13.1235 4.00063 12.8623 4.65818 12.8623C5.31573 12.8623 5.94635 13.1235 6.41131 13.5885C6.87627 14.0534 7.13748 14.6841 7.13748 15.3416C7.13748 15.9992 6.87627 16.6298 6.41131 17.0947C5.44281 18.0624 1.73657 18.2632 1.73657 18.2632C1.73657 18.2632 1.93738 14.557 2.90505 13.5885V13.5885Z" stroke="#171725" stroke-width="1.5" stroke-miterlimit="10" stroke-linecap="square"/>
</svg>
